<svg xmlns="http://www.w3.org/2000/svg" width="119" height="110" viewBox="-6.5 0 119 110"><defs><clipPath id="x1zma"><path d="M28.011 55c0-30.376 24.398-55 54.495-55C112.602 0 137 24.624 137 55s-24.398 55-54.494 55c-18.327 0-34.541-9.13-44.42-23.13H0V55.513h28.013a56.761 56.761 0 0 1-.002-.514z"/></clipPath></defs><g><g transform="matrix(-1 0 0 1 131 0)"><g><path fill="#ffd304" d="M82.5 110c30.1 0 54.5-24.624 54.5-55S112.6 0 82.5 0 28 24.624 28 55s24.4 55 54.5 55z"/></g><g><g/><g clip-path="url(#x1zma)"><g><g><g><g><path fill="#fff" d="M62.499 78.86l-1.383 8.726-22.39-12.693 2.75-1.88c.88-.9 1.139-2.026.719-2.728-.42-.702-1.497-.794-1.681-.794-2.357-.079-3.948 3.292-4.023 3.459-10.959-1.922-16.748-2.002-17.366-.238-.196.563.13 1.309.975 2.245 2.388.264 4.797.555 7.227.873 2.527.322 5.015.655 7.463.999l32.38 27.296c7.722-8.61 8.436-18.641 4.296-22.838-.514-.508-3.075-2.95-8.967-2.427z"/></g><g><path fill="#0d1d4a" d="M20.378 74.404c-.782-.913-.758-1.333-.72-1.456.182-.508 1.914-1.971 16.71.623l.445.079.192-.397c.012-.031 1.446-3.113 3.41-3.113h.059c.216.008.962.099 1.198.5.235.4.106 1.221-.598 1.963l-3.503 2.38 23.96 13.564 1.442-9.122c4.91-.306 7.267 1.503 8.053 2.316 4.733 4.807 1.807 14.909-3.928 21.592L35.029 76.3l-.169-.023a576.296 576.296 0 0 0-14.498-1.853zm47.21 30.155c8.112-9.047 8.536-19.324 4.274-23.655-.938-.956-3.74-3.125-9.447-2.63l-.46.04-1.323 8.33-20.818-11.789 1.964-1.34.09-.075c1.045-1.071 1.375-2.487.805-3.451-.385-.655-1.174-1.047-2.168-1.079h-.098c-2.192 0-3.732 2.404-4.27 3.391-14.628-2.546-17.09-1.214-17.598.23-.275.79.083 1.722 1.096 2.84l.15.163.22.027c2.4.274 4.796.564 7.223.873 2.428.31 4.883.639 7.302.976l32.686 27.554z"/></g></g><g><path fill="#fff" d="M73.335 183.28l4.784 12.776 4.321-4.561-5.216-10.015-4.164 1.8"/></g><g><path fill="#fff" d="M61.498 191.098l-5.668 12.399 6.25-.087 3.417-10.773-4.191-1.737"/></g><g><path fill="#fff" d="M97.991 48.713l-3.209-5.12-.228-5.292 1.112-6.378-4.156-9.122-10.468-1.091-6.194.992-.099 5.624-.047 9.003-.086 7.715.432 1.884 3.402 1.158 2.576-.738.393 3.249c-1.469 1.724-2.94 3.442-4.411 5.156l-3.017 3.593-1.571 4.859 26.907-1.884z"/></g><g><g><path fill="#6435a5" d="M74.78 56.35c-1.47.075-2.919.388-4.29.928-10.68 4.24-12.012 21.188-12.11 22.672l12.373 2.974 1.83-14.675"/></g><g><path fill="#0d1d4a" d="M71.26 83.653l-13.5-3.244.035-.504c.126-1.916 1.572-18.844 12.484-23.187a14.184 14.184 0 0 1 4.47-.968l.066 1.19a13.02 13.02 0 0 0-4.104.896c-4.301 1.71-7.558 5.751-9.683 12.01a43.478 43.478 0 0 0-2.019 9.65l11.246 2.705 1.748-14.02 1.178.15z"/></g></g><g><path fill="#fff" d="M115.203 83.45c5.054 12.909 9.659 26.262 13.815 40.06l.589 1.983 5.762 4.041 2.518 2.158-11.945-.317-2.883-6.346-15.449-35.463z"/></g><g><g><g><g transform="rotate(-19.75 56 189)"><path fill="#0d1d4a" d="M80.54 182.484l1.18-.004-.04 12.983-1.18.004z"/></g><g transform="rotate(-17.88 61 190.5)"><path fill="#0d1d4a" d="M75.67 183.893l1.179-.003-.04 13.996-1.179.004z"/></g></g><g><path fill="#0d1d4a" d="M142.219 133.072H128.1a4.396 4.396 0 0 1-1.964-.484c-2.207-1.143-2.577-3.804-2.636-4.45l-17.491-39.98 1.076-.485 17.578 40.175v.107c0 .107.18 2.63 2.007 3.57.448.23.943.35 1.446.353h10.005l-8.151-5.156-.067-.199-14.298-42.066 1.116-.397 14.231 41.864z"/></g><g><path fill="#0d1d4a" d="M77.54 55.428l-.608-1.016a7.892 7.892 0 0 0 2.631-2.594 6.53 6.53 0 0 0 .947-3.708c-2.616.615-5.106.043-6.061-1.452a2.924 2.924 0 0 1-.334-2.265V35.6h1.179v8.996c-.145.472-.088.983.157 1.412.652 1.011 2.86 1.586 5.42.793l.652-.206.106.686a7.804 7.804 0 0 1-1.052 5.16 9.032 9.032 0 0 1-3.037 2.987z"/></g><g><path fill="#0d1d4a" d="M75.288 37.609H74.11V23.37h21.423v7.23h-1.178v-6.04H75.288v13.049z"/></g><g><path fill="#0d1d4a" d="M101.387 53.985L94.36 43.268V37.33h1.178v5.58l6.831 10.42-.982.655z"/></g><g><g><path fill="#6435a5" d="M62.81 119.762h40.494c.29-9.914.583-19.83.876-29.748l14.966-5.485c-.967-2.53-8.414-21.954-13.403-31.076-.699-1.273-2.093-3.57-4.49-4.24-2.725-.75-5.762.428-7.514 2.983a23.613 23.613 0 0 1-8.728 8.218c-3.873 2.058-9.883 3.744-11.053 1.915-1.088-1.701 2.357-5.834 3.99-7.658a10.904 10.904 0 0 0-6.021 2.268c-4.058 3.173-4.215 8.187-4.227 8.897a7135.11 7135.11 0 0 0-1.551 16.31 22792.27 22792.27 0 0 0-3.339 37.616z"/></g><g><path fill="#0d1d4a" d="M66.699 82.194L68.27 65.89v-.048c.016-.9.271-5.509 3.999-8.436a10.042 10.042 0 0 1 4.215-1.936c-2.864 3.435-3.877 5.85-3.02 7.187 1.63 2.554 8.802-.123 11.822-1.71a23.917 23.917 0 0 0 8.94-8.424c1.603-2.348 4.369-3.438 6.875-2.744 2.078.59 3.346 2.546 4.132 3.966 4.62 8.448 11.356 25.757 13.151 30.437l-14.777 5.414-.872 29.565h-39.28zm38.063 8.254l15.154-5.553-.216-.563c-1.39-3.641-8.567-22.247-13.438-31.151-.507-.928-2.05-3.748-4.851-4.522-2.99-.829-6.265.452-8.162 3.229a22.77 22.77 0 0 1-8.5 7.992c-4.302 2.288-9.499 3.355-10.284 2.118-.468-.714.326-2.911 3.928-6.937l.966-1.063-1.442.087c-2.31.128-4.53.958-6.367 2.38-4.12 3.232-4.435 8.285-4.454 9.333l-1.552 16.285-3.374 38.267h41.708z"/></g></g><g><path fill="#fff" d="M106.741 89.353a.59.59 0 0 1-.546-.377l-8.563-21.62a.597.597 0 0 1 .33-.774.588.588 0 0 1 .766.334l8.559 21.62a.6.6 0 0 1-.326.793.603.603 0 0 1-.22.024z"/></g><g><path fill="#0d1d4a" d="M134.124 132.893a.59.59 0 0 1-.563-.417.598.598 0 0 1 .225-.666s.098-.083.09-.163a.182.182 0 0 0-.121-.158l-4.16-1.389a.599.599 0 0 1-.208-1.01.585.585 0 0 1 .577-.12l4.18 1.396c.517.183.876.661.91 1.214.013.473-.211.92-.596 1.19a.586.586 0 0 1-.334.123z"/></g><g><g><g transform="rotate(-72.81 73 196.5)"><path fill="#0d1d4a" d="M57.903 196.144l12.602-.034-.003 1.18-12.602.034z"/></g><g transform="rotate(-70.95 77 195)"><path fill="#0d1d4a" d="M52.504 194.74l13.578-.04-.003 1.18-13.579.04z"/></g></g><g><path fill="#ffd304" d="M64.666 208.957c-.282-2.84-.567-5.681-.852-8.524a10.246 10.246 0 0 1-4.62 1.127c-.746 0-3.696 0-4.206-1.337-.456-1.19 1.375-2.558.943-3.237-.244-.396-1.16-.5-3.972.476 1.112 3.546 0 5.26-.279 5.668-1.928 2.701-7.318 2.582-7.856 2.562-1.807-.06-3.091-.48-3.97.353-.759.722-.787 1.956-.677 2.912z"/></g><g><path fill="#fff" d="M60.032 202.69l-.617 1.257-1.375.203.998.98-.236 1.384 1.23-.655 1.229.655-.236-1.385.998-.98-1.375-.202-.617-1.257z"/></g><g><path fill="#0d1d4a" d="M39.111 210.933h25.556v-1.983H39.111c-.429.136-.721.537-.721.992 0 .454.292.855.721.991z"/></g></g><g><g><path fill="#0d1d4a" d="M88.283 192.3l2.14 1.226-11.096 17.416h-8.79a1.43 1.43 0 0 1-1.085-.925 1.556 1.556 0 0 1 1.084-1.808h7.031z"/></g><g><path fill="#ffd304" d="M88.892 192.242l-10.527 17.226h-7.137c-.723-.397-1.473-.928-1.458-1.551.036-1.226 3.025-1.436 5.338-3.47 1.815-1.587 2.561-3.757 2.911-5.347l-3.928-.694c-.703-.849-.668-1.983-.09-2.53a1.74 1.74 0 0 1 1.453-.37 7.162 7.162 0 0 0 4.286-1.983c2.455-2.447 2.074-5.798 2.022-6.203z"/></g><g><path fill="#fff" d="M84.13 191.75l-.632 1.297-1.418.21 1.025 1.008-.243 1.428 1.268-.675 1.27.675-.244-1.428 1.025-1.008-1.414-.21-.637-1.297z"/></g></g><g><path fill="#0d1d4a" d="M71.397 182.009l2.635 6.996 7.495-2.848-3.85-19.97 22.249-46.477H65.564l-4.235 31.453c1.493 4.138 2.984 8.277 4.474 12.418-2.6 9.82-5.198 19.643-7.793 29.466l8.59 2.61z"/></g><g><path fill="#fff" d="M81.936 186.407c-.28 0-.52-.2-.574-.476l-8.641-42.693 1.995-10.431-5.923-4.883a.599.599 0 0 1-.07-.826.585.585 0 0 1 .816-.094l6.466 5.339-2.086 10.891 8.59 42.44a.596.596 0 0 1-.082.446.585.585 0 0 1-.373.256z"/></g></g><g><path fill="#0d1d4a" d="M71.005 10.54a33.957 33.957 0 0 0 7.385 2.142c7.903 1.352 12.86-.722 16.31 1.65 1.013.698 2.356 2.027 2.749 4.716-.555 6.29-1.108 12.583-1.658 18.88.032.288-.042.579-.208.816-.182.26-.438.456-.734.564a2.337 2.337 0 0 1-1.902-.21c.94-1.742 2.149-4.693 1.422-7.683-.149-.615-.46-1.84-1.225-2.035-1.128-.282-2.188 1.924-2.946 1.686-.53-.163-.849-1.496-.393-5.755-6.678 2.439-13.47 2.018-17.503-1.496-.762-.674-3.025-2.641-1.297-13.275z"/></g></g></g></g><g><g><path fill="#0d1d4a" d="M79.645 44.891c-1.249-.139-2.56-1.221-2.47-1.586.058-.25.738-.115 1.99-.107a17.09 17.09 0 0 0 3.308-.278c-.506 1.317-1.598 2.11-2.828 1.971z"/></g><g><path fill="#0d1d4a" d="M79.822 40.476a2.46 2.46 0 0 1-2.196-1.333c-.88-1.634-.507-4.692 1.292-6.183l.75.92c-1.394 1.154-1.57 3.645-1.009 4.7a1.348 1.348 0 0 0 1.933.5l.558 1.051a2.799 2.799 0 0 1-1.328.345z"/></g></g></g></g><g><g><path fill="#0d1d4a" d="M71.13 32.849a.393.393 0 0 1-.141-.758l3.877-1.485a.393.393 0 1 1 .279.734l-3.874 1.485a.444.444 0 0 1-.141.024z"/></g><g><g><path fill="#0d1d4a" d="M83.471 34.236c.443 0 .802-.52.802-1.163 0-.642-.359-1.163-.802-1.163-.442 0-.801.52-.801 1.163 0 .642.359 1.163.801 1.163z"/></g><g><path fill="#0d1d4a" d="M84.336 31.582a.578.578 0 0 1-.392-.141 1.241 1.241 0 0 0-.444-.236 1.253 1.253 0 0 0-.484-.035.594.594 0 0 1-.145-1.179 2.38 2.38 0 0 1 1.83.538.59.59 0 0 1-.392 1.041z"/></g><g><path fill="#0d1d4a" d="M76.481 34.236c.443 0 .802-.52.802-1.163 0-.642-.359-1.163-.802-1.163-.442 0-.801.52-.801 1.163 0 .642.359 1.163.801 1.163z"/></g><g><path fill="#0d1d4a" d="M75.621 32.22a.578.578 0 0 1-.451-.213.585.585 0 0 1 .07-.829 2.357 2.357 0 0 1 1.831-.538.594.594 0 0 1-.15 1.179 1.179 1.179 0 0 0-.478.039 1.127 1.127 0 0 0-.444.236.593.593 0 0 1-.378.125z"/></g><g><path fill="#0d1d4a" d="M77.796 33.049c0 2.157-1.382 3.928-3.086 3.928-2.046 0-3.083-1.308-3.083-3.928 0-2.16 1.382-3.929 3.083-3.929 1.7 0 3.086 1.772 3.086 3.929zm.787.035c0-2.593-1.74-4.714-3.873-4.714-2.134 0-3.87 2.106-3.87 4.714 0 4.098 2.424 4.715 3.87 4.715 2.133 0 3.873-2.122 3.873-4.715z"/></g><g><path fill="#fff" d="M74.17 38.695h-.07c-2.282-.236-3.991-2.483-3.885-5.108a.393.393 0 1 1 .785.032c-.086 2.216 1.313 4.101 3.183 4.298a.393.393 0 0 1 .369.428.393.393 0 0 1-.381.35z"/></g><g><path fill="#0d1d4a" d="M87.479 33.277c0 2.157-1.446 3.928-3.222 3.928s-3.221-1.767-3.221-3.928c0-2.16 1.445-3.929 3.221-3.929s3.222 1.772 3.222 3.929zm.785.027c0-2.593-1.799-4.714-4.007-4.714-2.208 0-4.007 2.121-4.007 4.714 0 2.593 1.8 4.715 4.007 4.715 2.208 0 4.007-2.122 4.007-4.715z"/></g><g><path fill="#0d1d4a" d="M87.992 32.505a.393.393 0 0 1-.38-.49.393.393 0 0 1 .183-.24l3.485-2.024a.393.393 0 1 1 .393.68l-3.485 2.023a.393.393 0 0 1-.196.051z"/></g><g><path fill="#0d1d4a" d="M80.46 32.744a.393.393 0 0 1-.26-.098 1.073 1.073 0 0 0-.786-.267 1.041 1.041 0 0 0-.577.263.394.394 0 0 1-.527-.585 1.854 1.854 0 0 1 1.022-.46c.51-.044 1.016.12 1.402.456a.393.393 0 0 1-.275.691z"/></g></g></g></g></g></svg>
