<svg xmlns="http://www.w3.org/2000/svg" width="120" height="110" viewBox="0 0 120 110"><defs><clipPath id="x8pna"><path d="M65.67 0C95.677 0 120 24.51 120 54.744c0 30.235-24.324 54.744-54.33 54.744a53.782 53.782 0 0 1-22.848-5.062V110H-11V53.21h22.362C12.169 23.684 36.175 0 65.671 0z"/></clipPath></defs><g><g><g><path fill="#f1f4f9" d="M65.5 109c30.1 0 54.5-24.4 54.5-54.5S95.6 0 65.5 0 11 24.4 11 54.5 35.4 109 65.5 109z"/></g><g><g/><g clip-path="url(#x8pna)"><g><path fill="#fff" d="M60.786 56.418l-.698 9.644-7.811-.325c-.096.402-1.467 6.58 2.35 10.454 4.078 4.139 11.173 2.699 14.583.056.054-.042.25-.194.552-.46 3.164-2.794 4.456-6.127 5.047-8.429l-6.648-.81 3.482-12.318-10.857 2.188"/></g><g><path fill="#fff" d="M105.691 68.05l4.676-10.768a8.384 8.384 0 0 0 2.311-1.294c.813-.645 2.962-2.35 2.955-4.995-.008-2.914-2.623-4.67-2.855-4.82 2.759-6.024 3.959-9.131 3.602-9.324-.433-.232-3.157 3.82-8.17 12.157-.424-1.161-2.02-5.35-3.578-5.188-.5.052-1.015.552-1.119 1.087-.214 1.108 1.374 2.201 1.805 2.628 1.341 1.33.986 5.637-6.648 18.842z"/></g><g><path fill="#93a1c8" d="M74.334 66.709c10.08.48 16.531 10.167 17.876 12.282l9.994-20.661 6.117 6.507-12.69 28.722-15.575-11.17-2.454 30.685H51.385c-.658-4.667-1.197-23.976-1.856-28.642l-11.616 19.227a1.48 1.48 0 0 1-2.274.323L25.05 94.175l4.101-4.741 5.666 4.646 8.158-25.13c.616-.792 1.913-2.222 4.04-3.085 3.775-1.532 7.218-.08 7.928.237.69 4.415 4.553 7.424 8.446 7.068 3.152-.289 5.926-2.748 6.793-6.133a16.68 16.68 0 0 1 4.152-.328z"/></g><g><path fill="#dadfe5" d="M60.59 61.905l6.297-6.498 2.335-.147c-.146.614-.949 3.716-3.99 5.5-1.923 1.129-3.8 1.177-4.642 1.145"/></g><g><path fill="#93a1c8" d="M56.805 65.009c1.278-.746 1.835-2.191 2.508-4.061 1.375-3.818 3.135-9.12 4.914-15.814.057-3.255.113-6.511.168-9.767.36-2.305.304-3.993.073-5.228-.05-.263-.436-1.82-.968-2.509-2.16-2.798-13.714-.011-18.471 9.776-3.406 7.006-2.8 16.516 1.313 22.283 2.533 3.551 7.409 7.1 10.463 5.32"/></g><g><path fill="#93a1c8" d="M47.773 41.958a.384.384 0 0 1-.358-.26.413.413 0 0 1 .221-.524l4.312-1.747a.377.377 0 0 1 .494.234.412.412 0 0 1-.22.522l-4.313 1.748a.362.362 0 0 1-.136.027"/></g><g><path fill="#dadfe5" d="M50.137 43.892c.582 2.088 2.211 3.487 3.64 3.125 1.427-.361 2.113-2.347 1.531-4.435-.582-2.088-2.21-3.487-3.639-3.125-1.428.362-2.114 2.348-1.532 4.435"/></g><g><path fill="#fff" d="M53.47 29.215c-.112.142-.356.452-.64.858-6.868 9.803-4.136 27.815 3.738 30.858 2.122.82 4.057.337 4.629.186 4.483-1.182 7.744-6.346 8.65-13.22l.183-8.463c.279-1.513.51-4.254-.977-6.703-2.504-4.124-8.966-5.907-15.583-3.516"/></g><g><path fill="#93a1c8" d="M62.621 42.21c0 .705-.454 1.278-1.016 1.278-.56 0-1.015-.573-1.015-1.279s.454-1.279 1.015-1.279c.562 0 1.016.573 1.016 1.28"/></g><g><path fill="#93a1c8" d="M62.585 40.415a.54.54 0 0 1-.349-.127 1.344 1.344 0 0 0-1.034-.306.545.545 0 1 1-.138-1.082 2.417 2.417 0 0 1 1.87.551.547.547 0 0 1-.35.964"/></g><g><path fill="#93a1c8" d="M52.98 42.21c0 .705.454 1.278 1.015 1.278.561 0 1.016-.573 1.016-1.279s-.455-1.279-1.016-1.279c-.56 0-1.015.573-1.015 1.28"/></g><g><path fill="#93a1c8" d="M53.014 40.935a.547.547 0 0 1-.35-.964 2.44 2.44 0 0 1 1.87-.552.545.545 0 0 1-.138 1.083 1.343 1.343 0 0 0-1.033.305.54.54 0 0 1-.349.128"/></g><g><path fill="#fff" d="M50.484 47.584c-2.263 0-4.104-2.41-4.104-5.372 0-2.962 1.841-5.372 4.104-5.372h.067a.401.401 0 0 1 .401.403.398.398 0 0 1-.417.387h-.051c-1.781 0-3.286 2.098-3.286 4.582s1.505 4.583 3.286 4.583c.159 0 .32-.017.478-.05a.41.41 0 0 1 .486.303.394.394 0 0 1-.313.469 3.213 3.213 0 0 1-.651.067"/></g><g><path fill="#93a1c8" d="M51.706 47.584c-1.612 0-4.316-.698-4.316-5.372 0-2.962 1.936-5.372 4.316-5.372s4.316 2.41 4.316 5.372c0 2.962-1.936 5.372-4.316 5.372m0-9.955c-1.952 0-3.54 2.056-3.54 4.583 0 3.041 1.191 4.583 3.54 4.583 1.951 0 3.54-2.056 3.54-4.583s-1.589-4.583-3.54-4.583"/></g><g><path fill="#93a1c8" d="M62.62 48.094c-2.52 0-4.57-2.41-4.57-5.372 0-2.962 2.05-5.372 4.57-5.372 2.52 0 4.57 2.41 4.57 5.372 0 2.962-2.05 5.372-4.57 5.372m.005-9.954c-2.085 0-3.78 2.055-3.78 4.582 0 2.527 1.695 4.582 3.78 4.582s3.78-2.055 3.78-4.582c0-2.527-1.695-4.582-3.78-4.582"/></g><g><path fill="#93a1c8" d="M67.067 41.44a.374.374 0 0 1-.326-.194.397.397 0 0 1 .137-.533l3.816-2.29a.37.37 0 0 1 .515.141.396.396 0 0 1-.137.532l-3.816 2.291a.365.365 0 0 1-.189.053"/></g><g><path fill="#93a1c8" d="M58.162 41.953a.457.457 0 0 1-.266-.082 1.513 1.513 0 0 0-.987-.27c-.35.032-.598.18-.715.267a.467.467 0 0 1-.57-.025c-.15-.137-.136-.348.03-.471a2.32 2.32 0 0 1 1.17-.433 2.461 2.461 0 0 1 1.605.43c.168.122.184.332.037.47a.445.445 0 0 1-.304.114"/></g><g><path fill="#93a1c8" d="M56.783 52.196h2.792c0 .839-1.26 1.529-2.792 1.529-1.532 0-2.793-.69-2.793-1.53v-.005z"/></g><g><path fill="#dadfe5" d="M55.846 47.226c.588.889 1.956 1.183 3.228.482-.828-.151-1.73-.483-2.097-1.265-.705-1.5 1.03-3.646.7-3.941-.241-.215-1.452.676-1.911 2.136-.125.395-.526 1.672.08 2.588"/></g><g><path fill="#dadfe5" d="M57.94 56.275a.625.625 0 0 1-.254-.055c-.36-.159-.768-.25-1.179-.262-.401-.011-.8.048-1.185.178a.622.622 0 0 1-.788-.377.606.606 0 0 1 .384-.773 4.646 4.646 0 0 1 1.627-.244 4.43 4.43 0 0 1 1.652.37c.312.138.45.499.31.805a.622.622 0 0 1-.566.358"/></g><g><path fill="#fff" d="M72.969 44.612c-.712 2.065-2.398 3.35-3.766 2.873-1.368-.478-1.9-2.538-1.187-4.603.713-2.064 2.399-3.35 3.766-2.872 1.368.477 1.9 2.538 1.187 4.602"/></g><g><path fill="#93a1c8" d="M64.92 31.627c-.778.852-1.521 1.913-1.208 2.706.454 1.15 2.62.453 4.09 1.866 1.378 1.324 1.524 3.502 1.396 5.97-.523 10.062-3.578 14.164-1.395 17.911.467.803 1.43 2.027 3.626 2.986l8.554 1.4c7.154-14.42 5.407-29.388-2.936-36.378-1.66-1.391-5.648-4.197-12.73-4.489-.241-.144-5.678-3.274-10.833-.367-4.486 2.528-6.706 8.472-5.021 10.82 1.797 2.506 8.508 1.584 16.458-2.425"/></g><g><path fill="#93a1c8" d="M79.257 21.642c.758 4.168-1.982 8.166-6.118 8.93-4.137.764-8.105-1.996-8.863-6.165-.758-4.168 1.981-8.166 6.118-8.93 4.137-.764 8.104 1.996 8.863 6.165"/></g><g><path fill="#93a1c8" d="M9.768 70.522L.17 63.95l12.309 18.446 9.524 5.6z"/></g><g><path fill="#93a1c8" d="M9.82 70.597l20.386-5.107 12.618 17.504-20.609 5.008L9.82 70.597"/></g><g><path fill="#fff" d="M17.71 88.61c-2.792-1.924-4.057-3.192-3.797-3.805.112-.262.503-.405 1.173-.428l1.942 1.468c2.953-1.134 4.017-1.915 4.43-2.428.101-.127.451-.595.795-.531.223.041.408.3.442.548.079.575-.647 1.121-.618 1.15.036.037.96-1.115 1.48-.913.224.087.3.399.31.567.029.453-.358.93-.983 1.095.07.001.705.02.763.258.035.147-.162.319-.337.45-1.007.758-2.406 1.037-2.399 1.076.008.045 1.773-.394 1.992.048.075.152-.054.356-.098.424-.5.79-2.145.465-2.226.448l4.98 3.677-2.733 4.468-5.116-7.572"/></g></g></g></g></g></svg>