<svg width="16" height="16" viewBox="0 0 16 16" fill="none" xmlns="http://www.w3.org/2000/svg">
<path fill-rule="evenodd" clip-rule="evenodd" d="M3.28616 11.866C3.02581 12.1263 3.02581 12.5484 3.28616 12.8088C3.5465 13.0691 3.96861 13.0691 4.22896 12.8088L8.00022 9.03753L11.7715 12.8088C12.0318 13.0691 12.4539 13.0691 12.7143 12.8088C12.9746 12.5484 12.9746 12.1263 12.7143 11.866L8.94303 8.09472L12.7142 4.32351C12.9746 4.06316 12.9746 3.64105 12.7142 3.3807C12.4539 3.12035 12.0318 3.12035 11.7714 3.3807L8.00022 7.15191L4.22898 3.38067C3.96863 3.12032 3.54652 3.12032 3.28617 3.38067C3.02582 3.64102 3.02582 4.06313 3.28617 4.32348L7.05741 8.09472L3.28616 11.866Z" fill="white"/>
</svg>
