<svg width="123" height="122" viewBox="0 0 123 122" fill="none" xmlns="http://www.w3.org/2000/svg">
<g id="draw">
<path id="Path" d="M99.9375 122H23.0625C10.3244 122 0 111.759 0 99.125V22.875C0 10.2405 10.3244 0 23.0625 0H99.9375C112.676 0 123 10.2405 123 22.875V99.125C123 111.759 112.676 122 99.9375 122Z" fill="#FFCCEA"/>
<path id="Path_2" d="M90.4657 86H57.5343C56.1364 86 55 84.879 55 83.5C55 82.1201 56.1364 81 57.5343 81H90.4657C91.8636 81 93 82.1201 93 83.5C93 84.8827 91.8636 86 90.4657 86Z" fill="#FF9DD7"/>
<path id="Path_3" d="M83.4689 40.898L79.778 37.402C77.8044 35.5327 74.3676 35.5327 72.3989 37.402L67 42.5147L78.071 53L83.4689 47.8873C84.4552 46.9531 85 45.7147 85 44.3904C85 43.0741 84.4552 41.8322 83.4689 40.898Z" fill="#F75DB8"/>
<path id="Path_4" d="M63.2513 46L37.1345 72.1155C36.9675 72.2825 36.8496 72.4922 36.7967 72.7196L34.0332 84.4411C33.9339 84.867 34.0602 85.3152 34.371 85.627C34.6104 85.8664 34.9343 86 35.2684 86C35.363 86 35.4623 85.9879 35.557 85.9657L47.2791 83.2023C47.5074 83.1494 47.7208 83.0316 47.8841 82.8645L74 56.7491L63.2513 46Z" fill="#F75DB8"/>
</g>
</svg>
