<svg xmlns="http://www.w3.org/2000/svg" width="41" height="48" viewBox="0 0 41 48">
    <path fill="#6435A5" fill-rule="evenodd" d="M39.83 7.772L21.228.143c-.466-.19-.99-.19-1.456 0L1.17 7.773C.462 8.062 0 8.745 0 9.503v9.274c0 12.77 7.814 24.257 19.783 29.083.46.185.974.185 1.434 0C33.187 43.035 41 31.548 41 18.778V9.504c0-.758-.462-1.44-1.17-1.732zm-2.626 11.006c0 10.856-6.454 20.85-16.704 25.31-9.976-4.341-16.704-14.16-16.704-25.31v-8.022L20.5 3.906l16.704 6.85v8.022zm-18.802 6.32l8.159-8.059c.74-.732 1.943-.732 2.684 0 .741.733.741 1.92 0 2.652l-9.5 9.385c-.742.732-1.944.732-2.685 0l-5.305-5.24c-.741-.733-.741-1.92 0-2.652.741-.732 1.943-.732 2.684 0l3.963 3.914z"/>
</svg>
