<svg xmlns="http://www.w3.org/2000/svg" width="32" height="32" viewBox="0 0 32 32">
    <path fill="#FFF" d="M16 0c8.837 0 16 7.163 16 16s-7.163 16-16 16S0 24.837 0 16 7.163 0 16 0zm-.085 20.31c-3.729 0-7.143 1.756-9.3 4.618l-.029.038c2.358 2.475 5.682 4.02 9.367 4.034h-.038c2.354 0 4.604-.613 6.565-1.727l.246-.146c.95-.575 1.82-1.269 2.59-2.06l-.1-.14c-2.094-2.777-5.372-4.512-8.973-4.612l-.328-.005zM16 3C8.82 3 3 8.82 3 16c0 2.738.846 5.278 2.292 7.374 1.863-2.307 4.474-3.993 7.467-4.699-1.434-1.085-2.359-2.799-2.359-4.727 0-3.285 2.686-5.948 6-5.948s6 2.663 6 5.948c0 2.043-1.038 3.845-2.62 4.916 2.745.803 5.128 2.444 6.849 4.623C28.122 21.371 29 18.787 29 16c0-7.18-5.82-13-13-13zm.4 7c-2.213 0-4 1.772-4 3.948 0 2.177 1.787 3.949 4 3.949s4-1.772 4-3.949c0-2.176-1.787-3.948-4-3.948z"/>
</svg>
