<svg width="123" height="122" viewBox="0 0 123 122" fill="none" xmlns="http://www.w3.org/2000/svg">
<g id="login">
<path id="Path" d="M99.9375 122H23.0625C10.3244 122 0 111.759 0 99.125V22.875C0 10.2405 10.3244 0 23.0625 0H99.9375C112.676 0 123 10.2405 123 22.875V99.125C123 111.759 112.676 122 99.9375 122Z" fill="#F5E6FE"/>
<path id="Path_2" d="M67 45.5C67 52.4038 61.1799 58 54 58C46.8201 58 41 52.4038 41 45.5C41 38.5962 46.8201 33 54 33C61.1799 33 67 38.5962 67 45.5Z" fill="#BE63F9"/>
<path id="Path_3" d="M64.8599 63H43.1364C36.4468 63 31 68.4468 31 75.1401V84.0833C31 85.1409 31.8591 86 32.9167 86H75.0833C76.1409 86 77 85.1409 77 84.0833V75.1401C77 68.4468 71.5532 63 64.8599 63Z" fill="#BE63F9"/>
<path id="Path_4" d="M91.3802 53.6257L82.2819 45.499C81.9153 45.1685 81.4393 45 80.9556 45C79.6684 45 79.0057 46.0538 79.0057 46.8715V52.4968H68.6011C67.1663 52.4968 66 53.6184 66 54.9982C66 56.378 67.1625 57.4995 68.6011 57.4995H79.0019V63.1249C79.0019 64.1641 79.8797 65 80.9518 65C81.4355 65 81.9115 64.8279 82.2781 64.501L91.3764 56.3743C91.7734 56.0218 92 55.5228 92 55.0018C92 54.4809 91.7734 53.9819 91.3802 53.6257Z" fill="#D9A4FC"/>
</g>
</svg>
