<svg xmlns="http://www.w3.org/2000/svg" width="22" height="19" viewBox="0 0 22 19">
    <path fill="#FFD304" fill-rule="evenodd" d="M14.387 11.643V14.634H9.445c-.472 0-.927-.066-1.36-.185-.016.005-.033.008-.05.012l.05-.012c-1.387-.383-2.524-1.336-3.123-2.582h-.001c-.285-.603-.446-1.273-.446-1.98v-.238c0-2.639 2.211-4.778 4.939-4.778 1.241 0 2.374.444 3.242 1.176l.005.004c.03.024.057.05.085.076l.068.06c.208.191.399.4.57.623l.06.082c.037.05.073.1.108.152l.093.143c.014.021.027.044.04.066.07.114.136.236.199.365l.02.042c.065.136.125.28.18.432l.008.023c.014.041.031.08.045.122.013.04.02.078.031.117l.002.005c.04.14.071.274.096.405.01.053.02.107.028.16l.017.114c.026.213.036.41.036.58v2.025zm4.75 4.59V9.28c0-.083-.001-.17-.004-.26v-.019c-.021-.66-.12-1.483-.401-2.393-.49-1.582-1.32-2.718-1.932-3.412l-.102-.112-.061-.067-.024-.024C14.864 1.153 12.357 0 9.57 0 4.284 0 0 4.145 0 9.258v.462c0 1.112.203 2.179.575 3.167v.002l.008.02c.118.336.276.718.494 1.127.218.41.448.757.663 1.045C3.474 17.451 6.33 19 9.56 19H22c-1.58 0-2.863-1.24-2.863-2.768z"/>
</svg>
