<svg xmlns="http://www.w3.org/2000/svg" xmlns:xlink="http://www.w3.org/1999/xlink" width="171" height="42" viewBox="0 0 171 42">
    <defs>
        <linearGradient id="uhe4tpre6b" x1="89.727%" x2=".925%" y1="143.061%" y2="-57.298%">
            <stop offset="0%" stop-color="#F85DB9"/>
            <stop offset="17%" stop-color="#EF5CBB"/>
            <stop offset="45%" stop-color="#D558C1"/>
            <stop offset="81%" stop-color="#AC52CB"/>
            <stop offset="100%" stop-color="#934ED1"/>
        </linearGradient>
        <linearGradient id="b4enbt9kbc" x1="44.664%" x2="74.738%" y1="45.179%" y2="75.771%">
            <stop offset="0%" stop-color="#FECF00"/>
            <stop offset="34%" stop-color="#FDC607"/>
            <stop offset="100%" stop-color="#FAA81C"/>
        </linearGradient>
        <linearGradient id="d9jl55hwge" x1="15.225%" x2="107.373%" y1="32.954%" y2="94.013%">
            <stop offset="0%" stop-color="#6435A5"/>
            <stop offset="24%" stop-color="#6D3AAE"/>
            <stop offset="63%" stop-color="#8747C6"/>
            <stop offset="100%" stop-color="#934ED1"/>
        </linearGradient>
        <path id="msnw3pa71a" d="M12.647 1.345c7.638-2.952 16.32-.946 21.856 5.05l-.018.005.04.043.135.143c.074.078.14.16.21.238 1.837 2.12 3.208 4.596 4.025 7.27.496 1.655.772 3.368.821 5.094v.043c.005.191.009.373-.065.551v1.236l-.002.001.076.016V34.59c-.001 1.563.624 3.062 1.738 4.167 1.114 1.105 2.626 1.725 4.201 1.724H19.845c-6.457.004-12.513-3.107-16.235-8.34l.238.012-.062-.01-.071-.007H3.61c-1.035-1.415-1.85-2.975-2.417-4.63.002-.014.002-.029 0-.043l-.176-.501C.342 24.95 0 22.842 0 20.718v-.984C-.014 11.603 5.01 4.298 12.647 1.345zM26.104 12.69c-3.012-2.445-7.173-2.99-10.731-1.383-3.658 1.652-6.004 5.273-5.999 9.26v.507c-.001 1.455.313 2.894.922 4.218l-.016.006.02-.006.14.284c1.286 2.537 3.582 4.432 6.342 5.222l-.084.017-.071.02.155-.037c.918.256 1.868.386 2.823.385H29.86v-6.61l-.06-.057v-4.032c0-.413-.025-.825-.075-1.235-.009-.078-.017-.122-.035-.239-.017-.117-.057-.23-.057-.346-.052-.287-.118-.573-.2-.867l-.02-.08c-.01-.054-.022-.107-.042-.168-.03-.09-.066-.173-.096-.26v-.047c-.114-.326-.236-.633-.372-.924l-.043-.09c-.131-.274-.267-.534-.411-.777-.03-.047-.053-.095-.083-.139l-.192-.303-.223-.325-.127-.174c-.355-.475-.751-.92-1.184-1.326l-.14-.13-.175-.16-.008-.026z"/>
    </defs>
    <g fill="none" fill-rule="evenodd">
        <g fill="#FFF" fill-rule="nonzero">
            <path d="M56.616 4.972c-4.93-.043-8.605 3.538-8.614 8.398-.009 4.86 3.601 8.392 8.513 8.427 4.912.035 8.6-3.507 8.631-8.358.03-4.851-3.526-8.419-8.53-8.467zm-.088 13.236c-2.74 0-4.65-2.008-4.645-4.838.004-2.831 1.962-4.856 4.72-4.843 2.757.013 4.671 2.012 4.663 4.886-.01 2.874-1.936 4.816-4.738 4.795zM100.99 13.59c2.623-2.414 3.26-5.44 2.037-8.739C101.873 1.73 99.422.212 96.135.082c-4.693-.195-8.211 2.948-8.277 7.37-.026 1.942.573 3.616 2.124 4.868.455.417 1.1.564 1.692.385.593-.178 1.047-.654 1.192-1.252.184-.737-.157-1.326-.546-1.911-.936-1.255-.97-2.96-.083-4.249 1.005-1.552 2.6-1.834 4.313-1.565 1.495.167 2.71 1.273 3.007 2.736.523 1.701-.005 3.549-1.35 4.725-.472.433-.984.832-1.5 1.222-2.508 1.917-5.02 3.831-7.533 5.745-.748.572-.98 1.213-.748 1.963.246.808.981 1.372 1.831 1.405h11.048c.2.013.4.013.599 0 .943-.075 1.67-.856 1.67-1.795.018-.46-.148-.908-.463-1.247-.315-.338-.752-.538-1.216-.556-.778-.06-1.56-.035-2.342-.04H95.62l-.053-.138c.267-.195.533-.386.795-.585 1.53-1.184 3.195-2.255 4.628-3.572zM12.35 5.666c-2.36-.965-5.013-.951-7.364.039-5.366 2.09-6.38 9.537-2.818 13.413 2.81 3.065 8.334 3.767 10.82.585.048.076.089.156.123.239.38 1.196 1.123 1.734 2.185 1.582 1.062-.152 1.63-.915 1.634-2.098 0-2.432.066-4.869-.026-7.3-.127-3.092-1.683-5.277-4.554-6.46zm.586 9.073c-.437 2.259-1.95 3.469-4.252 3.469-2.37 0-4.222-1.366-4.585-3.538-.155-.91-.142-1.842.04-2.748.515-2.367 2.678-3.69 5.296-3.364 2.517.307 3.632 1.712 3.667 4.582-.053.524-.066 1.058-.166 1.6zM120.586 12.888c-.83 0-1.66.135-2.53.208v-1.24c0-1.564-.507-2.21-1.748-2.21s-1.77.65-1.77 2.167v1.37l-3.65-.386c.119-.195.224-.381.342-.563 1.923-2.925 3.846-5.851 5.768-8.779.18-.253.337-.521.468-.802.226-.491.224-1.055-.006-1.545s-.663-.854-1.187-1c-.874-.286-1.783.074-2.377 1.032-2.535 4.084-5.07 8.172-7.57 12.277-.992 1.622-.152 3.035 1.749 3.065h4.754c1.18 0 1.543.369 1.582 1.552.022.663 0 1.331.035 1.994.088 1.045.822 1.635 1.914 1.609.477.028.944-.144 1.287-.474.343-.33.531-.787.518-1.26.022-.62 0-1.24.022-1.86.066-1.231.415-1.552 1.648-1.57h.738c1.276-.026 2.006-.684 2.002-1.812-.005-1.127-.721-1.79-1.989-1.773zM76.631 4.981c-4.523-.212-8.203 2.883-8.373 7.322-.157 4.136-.061 8.28-.04 12.42-.009.485.18.953.522 1.298.343.345.812.538 1.3.536.986.072 1.853-.64 1.967-1.613.05-.372.073-.747.066-1.122V19.79c.733.559 1.512 1.056 2.33 1.487 1.731.717 3.677.735 5.423.052 5.545-1.96 6.511-9.19 3.644-13.036-1.7-2.272-4.073-3.178-6.839-3.312zm4.265 10.092c-.52 2.016-2.124 3.174-4.221 3.19-2.098.018-3.811-1.096-4.37-2.938-.141-.599-.242-1.205-.302-1.817h.061c.022-.373 0-.754.075-1.123.375-2.505 1.957-3.901 4.37-3.845 2.412.057 4.34 1.635 4.562 4.032.086.837.027 1.683-.175 2.501zM45.148 4.968h-9.675c-1.037.049-1.853.897-1.853 1.927s.816 1.878 1.853 1.927h3.033v11.029c.049 1.028.904 1.837 1.942 1.837 1.038 0 1.894-.809 1.943-1.837V8.822h2.757c.716.034 1.393-.326 1.761-.936.368-.61.368-1.372 0-1.982-.368-.61-1.045-.97-1.76-.936zM31.972 14.18c-.944-.786-2.11-1.266-3.339-1.374h-.03l.03-.03c1.05-.142 2.03-.596 2.815-1.3.674-.624 1.05-1.502 1.036-2.416 0-2.73-2.524-4.096-7.57-4.096-1.057 0-2.202.052-3.435.156-.504.027-.976.253-1.31.628-.333.371-.513.852-.503 1.349v12.571c-.006.494.175.972.507 1.34.317.379.776.612 1.271.646 1.338.108 2.575.16 3.72.16 5.346 0 8.017-1.65 8.014-4.95.019-1.028-.423-2.01-1.206-2.684zm-8.106-6.134c-.011-.155.099-.292.253-.316.511-.044.874-.065 1.145-.065 2.185 0 3.278.631 3.278 1.894.008.642-.342 1.235-.91 1.543-.75.417-1.605.614-2.464.568h-1.014c-.192 0-.288-.082-.288-.251V8.046zm1.481 11.029c-.403.007-.806-.013-1.206-.061-.192-.043-.289-.148-.289-.317V14.51c0-.17.097-.252.289-.252h1.11c2.587 0 3.88.768 3.88 2.302.01 1.676-1.252 2.515-3.784 2.515z" transform="translate(47.198 9.97)"/>
        </g>
        <g transform="translate(0 1)">
            <mask id="kyp4d5isyd" fill="#fff">
                <use xlink:href="#msnw3pa71a"/>
            </mask>
            <use fill="url(#uhe4tpre6b)" fill-rule="nonzero" xlink:href="#msnw3pa71a"/>
            <path fill="url(#b4enbt9kbc)" fill-rule="nonzero" d="M41.115 21.166c-3.273-.741-7.118 1.101-10.863 3.499-8.108 4.347-12.468 6.435-13.08 6.264-4.29 1.144-8.737 1.598-13.172 1.344 3.722 5.233 9.778 12.345 16.235 12.34l25.82-4c-1.576.002-2.088-.619-3.202-1.724-1.114-1.105-1.739-2.604-1.738-4.167V21.166z" mask="url(#kyp4d5isyd)"/>
            <path fill="url(#d9jl55hwge)" fill-rule="nonzero" d="M10.296 25.292c-.609-1.324-.923-2.763-.922-4.218v-.507c-.005-3.987 2.341-7.608 5.999-9.26 3.657-1.652 7.95-1.03 10.98 1.59 1.714-3.174 4.656-5.521 8.15-6.502C28.966.4 20.285-1.607 12.647 1.345 5.009 4.298-.014 11.603 0 19.735v.983c-.002 2.3.402 4.584 1.193 6.746 1.487-.155 2.963-.403 4.418-.741 1.593-.37 3.159-.848 4.685-1.431z" mask="url(#kyp4d5isyd)"/>
        </g>
    </g>
</svg>
