<svg width="123" height="122" viewBox="0 0 123 122" fill="none" xmlns="http://www.w3.org/2000/svg">
<g id="people">
<path id="Path" d="M99.9375 122H23.0625C10.3243 122 0 111.76 0 99.125V22.875C0 10.2404 10.3243 0 23.0625 0H99.9375C112.676 0 123 10.2404 123 22.875V99.125C123 111.76 112.676 122 99.9375 122Z" fill="#FFF9DD"/>
<path id="Path_2" d="M42.8812 46.1263V34.8752C42.8812 34.2264 42.9604 33.6001 43.1465 33H35.6218C33.0871 33 31 34.9727 31 37.3729V48.6241C31 51.0243 33.0871 53.0007 35.6218 53.0007H36.6L39.9782 57.2499C40.3465 57.7 40.901 57.9737 41.4832 58H41.5624C42.1446 58 42.6713 57.775 43.0396 57.3512L47 53.0758C44.5446 51.6244 42.8812 49.0516 42.8812 46.1263Z" fill="#FFED96"/>
<path id="Path_3" d="M87.3782 33H79.8535C80.0396 33.6001 80.1188 34.2226 80.1188 34.8752V46.1263C80.1188 49.0516 78.4554 51.6281 76 53.0758L79.9604 57.3512C80.3287 57.775 80.8594 58 81.4376 58H81.5168C82.099 57.9737 82.6535 57.7 83.0218 57.2499L86.3762 53.0007H87.3782C89.9129 53.0007 92 51.0243 92 48.6241V37.3729C92 34.9727 89.9129 33 87.3782 33Z" fill="#FFED96"/>
<path id="Path_4" d="M61.5 56C61.4768 56 61.4535 56 61.4264 56C60.8413 55.9775 60.2987 55.7038 59.95 55.25L56.6562 51.0015H50.5221C48.0305 51.0015 46 49.0403 46 46.6255V35.376C46 32.9612 48.0266 31 50.5221 31H72.4818C74.9734 31 77 32.9612 77 35.376V46.6255C77 49.0366 74.9734 51.0015 72.4779 51.0015H66.8979L62.957 55.3588C62.5889 55.7638 62.058 56 61.5 56Z" fill="#FFED96"/>
<g id="Group">
<ellipse id="Oval" cx="41.3346" cy="69.0747" rx="5.16538" ry="5.09325" fill="#FFD304"/>
<path id="Path_5" d="M48.2321 77.7366C45.6242 79.6738 43.9192 82.7802 43.9192 86.2687V86.9068H32.9375C31.8796 86.9068 31 86.0394 31 84.9963V83.724C31 79.8496 34.1775 76.7164 38.1029 76.7164H44.5625C45.9071 76.7164 47.1704 77.0985 48.2321 77.7366Z" fill="#FFD304"/>
<ellipse id="Oval_2" cx="82.6654" cy="69.0747" rx="5.16538" ry="5.09325" fill="#FFD304"/>
<path id="Path_6" d="M93 83.7201V84.9925C93 86.0356 92.1204 86.9029 91.0625 86.9029H80.0846V86.2687C80.0846 82.7802 78.3796 79.67 75.7717 77.7366C76.8296 77.0985 78.0929 76.7164 79.4375 76.7164H85.8971C89.8225 76.7164 93 79.8496 93 83.7201Z" fill="#FFD304"/>
<ellipse id="Oval_3" cx="62" cy="67.8023" rx="7.75" ry="7.64179" fill="#FFD304"/>
<path id="Path_7" d="M69.1028 79.265H54.8932C50.9755 79.265 47.7903 82.4058 47.7903 86.2687V90.0896C47.7903 91.1442 48.6583 92.0001 49.7278 92.0001H74.2682C75.3377 92.0001 76.2057 91.1442 76.2057 90.0896V86.2687C76.2095 82.4058 73.0204 79.265 69.1028 79.265Z" fill="#FFD304"/>
</g>
</g>
</svg>
