<svg xmlns="http://www.w3.org/2000/svg" width="12" height="11" viewBox="0 0 12 11">
    <path fill="#FFD304" fill-rule="evenodd" d="M11.535 4.985c.227-.22.308-.543.21-.844-.099-.3-.355-.515-.67-.56l-2.802-.404c-.12-.018-.223-.092-.276-.2L6.744.46C6.604.176 6.318 0 6 0s-.603.176-.744.459L4.003 2.978c-.053.107-.156.182-.276.199L.926 3.58c-.315.045-.572.26-.67.56-.099.3-.018.624.21.844l2.027 1.96c.086.085.126.205.105.323l-.478 2.768c-.042.244.022.481.181.668.247.291.678.38 1.023.2L5.83 9.597c.104-.055.236-.054.34 0l2.507 1.307c.121.064.251.096.386.096.244 0 .477-.108.636-.296.16-.187.224-.425.181-.668l-.478-2.768c-.02-.118.019-.238.105-.322l2.028-1.961z"/>
</svg>