<svg width="10" height="10" viewBox="0 0 10 10" fill="none" xmlns="http://www.w3.org/2000/svg">
<path fill-rule="evenodd" clip-rule="evenodd" d="M5 0C4.81447 0 4.66044 0.130356 4.61243 0.308687L3.62912 3.47827H0.399954C0.176978 3.47827 0 3.6806 0 3.91518C0 4.05872 0.0687228 4.18692 0.172896 4.26313C0.237423 4.30876 2.78117 6.24786 2.78117 6.24786C2.78117 6.24786 1.80422 9.37839 1.78528 9.4283C1.77083 9.47393 1.76044 9.52404 1.76044 9.57606C1.76044 9.81085 1.94153 10 2.16453 10C2.24997 10 2.32912 9.97174 2.39583 9.92403L5 7.9456C5 7.9456 7.54581 9.88048 7.6042 9.92403C7.67067 9.97174 7.75006 10 7.83529 10C8.05829 10 8.23956 9.80873 8.23956 9.57606C8.23956 9.52404 8.22924 9.47393 8.21451 9.4283C8.19583 9.37839 7.21885 6.24786 7.21885 6.24786C7.21885 6.24786 9.76239 4.30876 9.82706 4.26313C9.93123 4.18692 10 4.05872 10 3.91308C10 3.68057 9.82706 3.47827 9.60406 3.47827H6.37494L5.38734 0.308687C5.3396 0.130356 5.1853 0 5 0Z" fill="white"/>
</svg>
