<svg width="123" height="122" viewBox="0 0 123 122" fill="none" xmlns="http://www.w3.org/2000/svg">
<g id="signs">
<path id="Path" d="M99.9375 122H23.0625C10.3243 122 0 111.76 0 99.125V22.875C0 10.2404 10.3243 0 23.0625 0H99.9375C112.676 0 123 10.2404 123 22.875V99.125C123 111.76 112.676 122 99.9375 122Z" fill="#E6ECFF"/>
<path id="Shape" fill-rule="evenodd" clip-rule="evenodd" d="M38.1024 31H85.8937C89.8111 31 92.9961 34.1339 93 37.9921V72.3046C93 76.1591 89.8149 79.2929 85.8976 79.2929H56.9919L44.643 91.4434C44.271 91.8056 43.7751 92 43.2714 92C43.0195 92 42.7676 91.9543 42.5274 91.8551C41.8028 91.5578 41.3301 90.8639 41.3301 90.0938V79.2891H38.1024C34.1851 79.2891 31 76.1553 31 72.3008V37.9883C31 34.1339 34.1851 31 38.1024 31ZM87.8311 37.9883C87.8311 36.9361 86.9631 36.0821 85.8937 36.0821V36.0859H38.1024C37.033 36.0859 36.1651 36.9399 36.1651 37.9921V72.3046C36.1651 73.3569 37.033 74.2109 38.1024 74.2109H41.334C44.1858 74.2109 46.499 76.4869 46.499 79.2929V82.423L53.3341 75.6978C54.3028 74.7408 55.6163 74.2071 56.988 74.2071H85.8937C86.9631 74.2071 87.8311 73.3531 87.8311 72.3008V37.9883Z" fill="#C2D2FF"/>
<g id="Group">
<path id="Path_2" d="M53.9303 65.3029C53.9303 66.7048 52.7845 67.8438 51.3658 67.8438H48.8012C47.3862 67.8438 46.2366 66.7048 46.2366 65.3029V50.0648C46.2366 48.6629 47.3824 47.5238 48.8012 47.5238H51.3658C52.7807 47.5238 53.9303 48.659 53.9303 50.0648V65.3029Z" fill="#A6BDFF"/>
<path id="Path_3" d="M75.5389 62.7124C75.0775 65.6343 72.3861 67.8438 69.3101 67.8438H67.3607C62.2354 67.8438 58.6711 66.9029 56.441 65.9886C56.4679 65.76 56.491 65.5315 56.491 65.3029V50.0648C56.491 49.1772 56.2603 48.3391 55.8489 47.6C57.2061 46.5334 58.8979 44.8077 58.8979 42.8762C58.8979 41.3029 58.8979 38.0496 61.9739 38.0496C64.0233 38.0496 66.2533 39.9277 66.2533 44.0419C66.2533 45.44 65.9957 46.6324 65.715 47.52H70.8173C74.2316 47.5238 77 50.2667 77 53.6458C77 53.7219 76.6924 60.0953 75.4351 62.6858L75.5389 62.7124Z" fill="#A6BDFF"/>
</g>
</g>
</svg>
