<svg width="24" height="24" viewBox="0 0 24 24" fill="none" xmlns="http://www.w3.org/2000/svg">
<path d="M10.1931 1.36326C11.2626 0.556369 12.7374 0.556369 13.8069 1.36326L22.6762 8.05508C23.6882 8.81861 24.1111 10.1359 23.7325 11.3457L20.2996 22.3176C19.9079 23.5695 18.7482 24.4217 17.4364 24.4217H6.56355C5.25179 24.4217 4.09213 23.5695 3.70043 22.3176L0.267503 11.3457C-0.111052 10.1359 0.311764 8.81862 1.32376 8.05508L10.1931 1.36326Z" fill="#7D2AEB"/>
<path d="M6.30582 11.0902L7.84624 15.9375H16.1539L17.6828 10.7565C17.8052 10.3415 17.3786 9.97748 16.9881 10.1636L14.2501 11.4688L12.4467 7.88696C12.262 7.5201 11.7382 7.5201 11.5535 7.88696L9.75008 11.4688L6.95065 10.468C6.56104 10.3287 6.18051 10.6959 6.30582 11.0902Z" fill="white"/>
<rect x="7.84619" y="17" width="8.30769" height="2" rx="1" fill="white"/>
</svg>
