<?xml version="1.0" encoding="utf-8"?><svg viewBox="0 0 534 545" xmlns="http://www.w3.org/2000/svg" xmlns:xlink="http://www.w3.org/1999/xlink"><style>:root>svg{display:none}:root>svg:target{display:block}</style><svg viewBox="0 0 534 545" id="google" xmlns="http://www.w3.org/2000/svg"><path d="M376.5 148.5c-28.1-26.8-65.6-41.4-104.4-40.8-71 0-131.3 47.9-152.8 112.4-11.4 33.8-11.4 70.4 0 104.2h.1c21.6 64.4 81.8 112.3 152.8 112.3 36.65 0 68.114-9.374 92.5-25.932v-.068c28.7-19 48.3-48.9 54.4-82.7h-147V223.1h256.7c3.2 18.2 4.7 36.8 4.7 55.3 0 82.776-29.582 152.759-81.054 200.158l.054.042c-45.1 41.6-107 65.7-180.4 65.7-102.9 0-197-58-243.2-149.9-38.6-76.9-38.6-167.5 0-244.4C75.1 58 169.2 0 272.1 0 339.7-.8 405 24.6 454.2 70.8l-77.7 77.7z"/><defs><clipPath id="aclip0"><path fill="#fff" d="M0 0h533.5v544.3H0z"/></clipPath></defs></svg><svg viewBox="0 0 307 348" id="irecommend" xmlns="http://www.w3.org/2000/svg"><path d="M171.44 305L76 347.089l7.667-42.09C37.428 304.82 0 267.281 0 221V84C0 37.608 37.608 0 84 0h139c46.392 0 84 37.608 84 84v137c0 46.392-37.608 84-84 84h-51.56z"/><path fill="#FFF" d="M99.056 225.632l3.447-35.124h22.353l13.484-76.414h-23.845l7.07-36.086h91.433l-7.054 36.086-23.55 2.625-10.95 73.79h22.655l-5.986 35.123z"/></svg><svg viewBox="0 0 30 28" id="yell" xmlns="http://www.w3.org/2000/svg"><path d="M28.784 27.97c1.798.516-.515-5.895-.515-5.895 1.03-3.08 2.05-13.595 1.41-16.8-.64-3.206-3.04-3.095-7.45-3.972C17.74.403 6.45-.112 4 .02 1.565.147-.225 1.81.025 5.15c.257 3.33 4.163 15.74 6.1 18.82 1.93 3.08 4.783 2.542 6.485 2.336 2.334-.288 11.12-2.336 11.12-2.336-.786-1.01 3.256 3.484 5.053 4h.001zM17 8.59l1.564-3.324h4.68l-5.116 9.742v5.74h-5.37v-5.74l-2.86-5.446-2.263-4.296h4.68l3.124 6.625L17 8.59z"/></svg></svg>