<svg width="119" height="81" viewBox="0 0 119 81" fill="none" xmlns="http://www.w3.org/2000/svg">
<path fill-rule="evenodd" clip-rule="evenodd" d="M26.559 29.4545C41.162 29.4545 53 40.9936 53 55.2273C53 69.461 41.162 81 26.559 81C11.956 81 0.11804 69.461 0.11804 55.2273L0 51.5455C0 23.0776 23.676 0 52.882 0V14.7273C42.7926 14.7273 33.3069 18.5571 26.1726 25.5111C24.7993 26.8499 23.5459 28.2743 22.4153 29.7705C23.7655 29.5634 25.1492 29.4545 26.559 29.4545ZM92.559 29.4545C107.162 29.4545 119 40.9936 119 55.2273C119 69.461 107.162 81 92.559 81C77.9563 81 66.118 69.461 66.118 55.2273L66 51.5455C66 23.0776 89.6758 0 118.882 0V14.7273C108.793 14.7273 99.3067 18.5571 92.1726 25.5111C90.799 26.8499 89.5457 28.2743 88.4151 29.7705C89.7652 29.5634 91.1489 29.4545 92.559 29.4545Z" fill="white"/>
</svg>
