<svg width="24" height="24" viewBox="0 0 24 24" fill="none" xmlns="http://www.w3.org/2000/svg">
<path d="M11.3906 0.468554C11.75 0.192286 12.2502 0.192285 12.6096 0.468554L15.557 2.73441C15.6966 2.84177 15.8622 2.91034 16.0368 2.93317L19.7231 3.41507C20.1726 3.47382 20.5263 3.82755 20.5851 4.27701L21.0669 7.9633C21.0898 8.13797 21.1583 8.30351 21.2657 8.44316L23.5316 11.3905C23.8078 11.7499 23.8078 12.2501 23.5316 12.6095L21.2657 15.5568C21.1583 15.6965 21.0898 15.862 21.0669 16.0367L20.5851 19.723C20.5263 20.1724 20.1726 20.5262 19.7231 20.5849L16.0368 21.0668C15.8622 21.0897 15.6966 21.1582 15.557 21.2656L12.6096 23.5314C12.2502 23.8077 11.75 23.8077 11.3906 23.5314L8.44328 21.2656C8.30363 21.1582 8.13809 21.0897 7.96342 21.0668L4.27713 20.5849C3.82767 20.5262 3.47394 20.1724 3.41519 19.723L2.93329 16.0367C2.91046 15.862 2.84189 15.6965 2.73453 15.5568L0.468676 12.6095C0.192408 12.2501 0.192407 11.7499 0.468676 11.3905L2.73453 8.44316C2.84189 8.30351 2.91046 8.13797 2.93329 7.9633L3.41519 4.27701C3.47394 3.82755 3.82767 3.47382 4.27713 3.41507L7.96342 2.93317C8.13809 2.91034 8.30363 2.84177 8.44328 2.73441L11.3906 0.468554Z" fill="#7D2AEB"/>
<path fill-rule="evenodd" clip-rule="evenodd" d="M16.7787 7.68116C17.2787 8.15449 17.2987 8.94782 16.8187 9.44782L10.1987 16.3945L7.01202 13.0478C6.53869 12.5478 6.55202 11.7545 7.05202 11.2812C7.55202 10.8078 8.34536 10.8212 8.81869 11.3212L10.1987 12.7678L15.012 7.72116C15.4854 7.22116 16.2787 7.20116 16.7787 7.68116Z" fill="white"/>
</svg>
