<svg xmlns="http://www.w3.org/2000/svg" width="246" height="231"><path fill="#F75DB8" fill-rule="evenodd" d="M6.669 0C2.989 0 0 2.968 0 6.621c0 3.66 2.99 6.621 6.669 6.621 3.68 0 6.668-2.96 6.668-6.621C13.337 2.968 10.348 0 6.67 0m59.28 0c-3.684 0-6.672 2.968-6.672 6.621 0 3.66 2.988 6.621 6.673 6.621 3.677 0 6.664-2.96 6.664-6.621C72.614 2.968 69.627 0 65.95 0m57.799 0c-3.695 0-6.677 2.968-6.677 6.621 0 3.66 2.982 6.621 6.677 6.621 3.68 0 6.66-2.96 6.66-6.621 0-3.653-2.98-6.621-6.66-6.621m56.305 0c-3.68 0-6.668 2.968-6.668 6.621 0 3.66 2.989 6.621 6.668 6.621 3.695 0 6.669-2.96 6.669-6.621 0-3.653-2.974-6.621-6.669-6.621m59.281 13.242c3.685 0 6.665-2.96 6.665-6.621C246 2.968 243.02 0 239.335 0c-3.677 0-6.672 2.968-6.672 6.621 0 3.66 2.995 6.621 6.672 6.621M6.67 42.669c-3.681 0-6.67 2.966-6.67 6.625 0 3.65 2.99 6.617 6.669 6.617 3.68 0 6.668-2.966 6.668-6.617 0-3.66-2.989-6.625-6.668-6.625m59.28 0c-3.684 0-6.672 2.966-6.672 6.625 0 3.65 2.988 6.617 6.673 6.617 3.677 0 6.664-2.966 6.664-6.617 0-3.66-2.987-6.625-6.664-6.625m57.799 0c-3.695 0-6.677 2.966-6.677 6.625 0 3.65 2.982 6.617 6.677 6.617 3.68 0 6.66-2.966 6.66-6.617 0-3.66-2.98-6.625-6.66-6.625m56.305 0c-3.68 0-6.668 2.966-6.668 6.625 0 3.65 2.989 6.617 6.668 6.617 3.695 0 6.669-2.966 6.669-6.617 0-3.66-2.974-6.625-6.669-6.625m59.281 0c-3.677 0-6.672 2.966-6.672 6.625 0 3.65 2.995 6.617 6.672 6.617 3.685 0 6.665-2.966 6.665-6.617 0-3.66-2.98-6.625-6.665-6.625M6.67 85.338c-3.68 0-6.669 2.96-6.669 6.62 0 3.654 2.99 6.622 6.669 6.622 3.68 0 6.668-2.968 6.668-6.621 0-3.661-2.989-6.621-6.668-6.621m59.28 0c-3.684 0-6.672 2.96-6.672 6.62 0 3.654 2.988 6.622 6.673 6.622 3.677 0 6.664-2.968 6.664-6.621 0-3.661-2.987-6.621-6.664-6.621m57.799 0c-3.695 0-6.677 2.96-6.677 6.62 0 3.654 2.982 6.622 6.677 6.622 3.68 0 6.66-2.968 6.66-6.621 0-3.661-2.98-6.621-6.66-6.621m56.305 0c-3.68 0-6.668 2.96-6.668 6.62 0 3.654 2.989 6.622 6.668 6.622 3.695 0 6.669-2.968 6.669-6.621 0-3.661-2.974-6.621-6.669-6.621m59.281 0c-3.677 0-6.672 2.96-6.672 6.62 0 3.654 2.995 6.622 6.672 6.622 3.685 0 6.665-2.968 6.665-6.621 0-3.661-2.98-6.621-6.665-6.621M6.67 132.42c-3.68 0-6.669 2.966-6.669 6.618 0 3.658 2.99 6.624 6.669 6.624 3.68 0 6.668-2.966 6.668-6.624 0-3.652-2.989-6.618-6.668-6.618m59.28 0c-3.684 0-6.672 2.966-6.672 6.618 0 3.658 2.988 6.624 6.673 6.624 3.677 0 6.664-2.966 6.664-6.624 0-3.652-2.987-6.618-6.664-6.618m57.799 0c-3.695 0-6.677 2.966-6.677 6.618 0 3.658 2.982 6.624 6.677 6.624 3.68 0 6.66-2.966 6.66-6.624 0-3.652-2.98-6.618-6.66-6.618m56.305 0c-3.68 0-6.668 2.966-6.668 6.618 0 3.658 2.989 6.624 6.668 6.624 3.695 0 6.669-2.966 6.669-6.624 0-3.652-2.974-6.618-6.669-6.618m59.281 0c-3.677 0-6.672 2.966-6.672 6.618 0 3.658 2.995 6.624 6.672 6.624 3.685 0 6.665-2.966 6.665-6.624 0-3.652-2.98-6.618-6.665-6.618M6.67 175.09c-3.68 0-6.669 2.96-6.669 6.62 0 3.661 2.99 6.621 6.669 6.621 3.68 0 6.668-2.96 6.668-6.62 0-3.662-2.989-6.622-6.668-6.622m59.28 0c-3.684 0-6.672 2.96-6.672 6.621 0 3.661 2.988 6.621 6.673 6.621 3.677 0 6.664-2.96 6.664-6.62 0-3.662-2.987-6.622-6.664-6.622m57.799 0c-3.695 0-6.677 2.96-6.677 6.621 0 3.661 2.982 6.621 6.677 6.621 3.68 0 6.66-2.96 6.66-6.62 0-3.662-2.98-6.622-6.66-6.622m56.305 0c-3.68 0-6.668 2.96-6.668 6.621 0 3.661 2.989 6.621 6.668 6.621 3.695 0 6.669-2.96 6.669-6.62 0-3.662-2.974-6.622-6.669-6.622m59.281 0c-3.677 0-6.672 2.96-6.672 6.621 0 3.661 2.995 6.621 6.672 6.621 3.685 0 6.665-2.96 6.665-6.62 0-3.662-2.98-6.622-6.665-6.622M6.67 217.758c-3.68 0-6.669 2.968-6.669 6.629C0 228.04 2.99 231 6.669 231c3.68 0 6.668-2.96 6.668-6.613 0-3.661-2.989-6.629-6.668-6.629m59.28 0c-3.684 0-6.672 2.968-6.672 6.629 0 3.653 2.988 6.613 6.673 6.613 3.677 0 6.664-2.96 6.664-6.613 0-3.661-2.987-6.629-6.664-6.629m57.799 0c-3.695 0-6.677 2.968-6.677 6.629 0 3.653 2.982 6.613 6.677 6.613 3.68 0 6.66-2.96 6.66-6.613 0-3.661-2.98-6.629-6.66-6.629m56.305 0c-3.68 0-6.668 2.968-6.668 6.629 0 3.653 2.989 6.613 6.668 6.613 3.695 0 6.669-2.96 6.669-6.613 0-3.661-2.974-6.629-6.669-6.629M246 224.387c0 3.653-2.98 6.613-6.665 6.613-3.677 0-6.672-2.96-6.672-6.613 0-3.661 2.995-6.629 6.672-6.629 3.685 0 6.665 2.968 6.665 6.629"/></svg>