<svg width="278" height="146" xmlns="http://www.w3.org/2000/svg"><g fill-rule="nonzero" fill="#FFD304"><path d="M272 134.417c-8.994 0-13.386-3.098-22.388-13.683-10.94-12.865-17.63-17.584-30.794-17.584-13.171 0-19.863 4.72-30.806 17.583-9.005 10.587-13.396 13.684-22.39 13.684-8.99 0-13.38-3.097-22.381-13.68-10.944-12.866-17.636-17.587-30.808-17.587s-19.866 4.72-30.81 17.58l-.003.002c-9.009 10.587-13.403 13.685-22.403 13.685-8.996 0-13.39-3.097-22.397-13.682C25.872 107.87 19.176 103.15 6 103.15c-3.06 0-5.542 2.5-5.542 5.583 0 3.084 2.481 5.584 5.542 5.584 9 0 13.395 3.098 22.404 13.684 10.947 12.863 17.64 17.582 30.813 17.582 13.176 0 19.872-4.72 30.817-17.582 9.01-10.587 13.403-13.684 22.4-13.684 8.993 0 13.384 3.097 22.388 13.683 10.942 12.864 17.633 17.583 30.8 17.583 13.171 0 19.863-4.72 30.806-17.583 9.005-10.586 13.396-13.683 22.39-13.683 8.985 0 13.374 3.096 22.372 13.676l.006.007c10.938 12.862 17.632 17.583 30.804 17.583 3.06 0 5.542-2.5 5.542-5.583 0-3.084-2.481-5.583-5.542-5.583zM272 83.05c-8.994 0-13.386-3.098-22.388-13.683-10.94-12.864-17.63-17.584-30.794-17.584-13.171 0-19.863 4.72-30.806 17.584-9.005 10.586-13.396 13.683-22.39 13.683-8.99 0-13.38-3.097-22.381-13.68-10.944-12.866-17.636-17.587-30.808-17.587s-19.866 4.72-30.81 17.58l-.003.003C72.611 79.952 68.217 83.05 59.217 83.05c-8.996 0-13.39-3.097-22.397-13.681C25.872 56.504 19.176 51.783 6 51.783c-3.06 0-5.542 2.5-5.542 5.584C.458 60.45 2.94 62.95 6 62.95c9 0 13.395 3.098 22.404 13.684 10.947 12.863 17.64 17.583 30.813 17.583 13.176 0 19.872-4.72 30.817-17.583 9.01-10.587 13.403-13.684 22.4-13.684 8.993 0 13.384 3.098 22.388 13.683 10.942 12.864 17.633 17.584 30.8 17.584 13.171 0 19.863-4.72 30.806-17.584 9.005-10.586 13.396-13.683 22.39-13.683 8.985 0 13.374 3.096 22.372 13.677l.006.006C252.134 89.495 258.828 94.217 272 94.217c3.06 0 5.542-2.5 5.542-5.584 0-3.083-2.481-5.583-5.542-5.583zM272 31.683c-8.994 0-13.386-3.098-22.388-13.683C238.672 5.136 231.982.417 218.818.417c-13.171 0-19.863 4.72-30.806 17.583-9.005 10.586-13.396 13.683-22.39 13.683-8.99 0-13.38-3.096-22.381-13.68C132.297 5.137 125.605.417 112.433.417s-19.866 4.719-30.81 17.58l-.003.002c-9.009 10.586-13.403 13.684-22.403 13.684-8.996 0-13.39-3.097-22.397-13.68C25.872 5.136 19.176.416 6 .416 2.94.417.458 2.917.458 6c0 3.084 2.481 5.583 5.542 5.583 9 0 13.395 3.098 22.404 13.685C39.35 38.13 46.044 42.85 59.217 42.85c13.176 0 19.872-4.72 30.817-17.582 9.01-10.588 13.403-13.685 22.4-13.685 8.993 0 13.384 3.098 22.388 13.683 10.942 12.864 17.633 17.584 30.8 17.584 13.171 0 19.863-4.72 30.806-17.583 9.005-10.587 13.396-13.684 22.39-13.684 8.985 0 13.374 3.097 22.372 13.677l.006.006C252.134 38.128 258.828 42.85 272 42.85c3.06 0 5.542-2.5 5.542-5.583 0-3.084-2.481-5.584-5.542-5.584z"/></g></svg>