<svg xmlns="http://www.w3.org/2000/svg" width="31" height="31" viewBox="0 0 31 31">
    <path fill="#F75DB8" fill-rule="evenodd" d="M23.371 0c.669 0 1.211.542 1.211 1.21v1.212h1.574C28.827 2.422 31 4.595 31 7.266v6.902c0 .669-.542 1.21-1.21 1.21-.67 0-1.212-.541-1.212-1.21V7.266c0-1.336-1.086-2.422-2.422-2.422h-1.574v1.21c0 .67-.542 1.212-1.21 1.212-.67 0-1.212-.543-1.212-1.211V4.844h-5.51v1.21c0 .67-.542 1.212-1.21 1.212-.67 0-1.211-.543-1.211-1.211V4.844h-5.45v1.21c0 .67-.542 1.212-1.21 1.212-.67 0-1.212-.543-1.212-1.211V4.844H4.844c-1.336 0-2.422 1.086-2.422 2.422v18.89c0 1.336 1.086 2.422 2.422 2.422h9.263c.67 0 1.211.542 1.211 1.211S14.776 31 14.108 31H4.843C2.173 31 0 28.827 0 26.156V7.266c0-2.671 2.173-4.844 4.844-4.844h1.513V1.21C6.357.542 6.9 0 7.568 0c.67 0 1.211.542 1.211 1.21v1.212h5.45V1.21c0-.669.542-1.211 1.21-1.211.67 0 1.211.542 1.211 1.21v1.212h5.51V1.21C22.16.542 22.702 0 23.371 0zm.129 16c4.136 0 7.5 3.364 7.5 7.5S27.636 31 23.5 31 16 27.636 16 23.5s3.364-7.5 7.5-7.5zm0 2.48c-2.768 0-5.02 2.252-5.02 5.02s2.252 5.02 5.02 5.02 5.02-2.252 5.02-5.02-2.252-5.02-5.02-5.02zm.66 1.52c.64 0 1.159.553 1.159 1.235v1.296h.522c.64 0 1.159.553 1.159 1.234 0 .682-.52 1.235-1.16 1.235h-1.68c-.64 0-1.16-.553-1.16-1.235v-2.53c0-.682.52-1.235 1.16-1.235zM7.5 22c.828 0 1.5.672 1.5 1.5S8.328 25 7.5 25 6 24.328 6 23.5 6.672 22 7.5 22zm5 0c.828 0 1.5.672 1.5 1.5s-.672 1.5-1.5 1.5-1.5-.672-1.5-1.5.672-1.5 1.5-1.5zm0-5c.828 0 1.5.672 1.5 1.5s-.672 1.5-1.5 1.5-1.5-.672-1.5-1.5.672-1.5 1.5-1.5zm-5 0c.828 0 1.5.672 1.5 1.5S8.328 20 7.5 20 6 19.328 6 18.5 6.672 17 7.5 17zm16-6c.828 0 1.5.672 1.5 1.5s-.672 1.5-1.5 1.5-1.5-.672-1.5-1.5.672-1.5 1.5-1.5zm-5 0c.828 0 1.5.672 1.5 1.5s-.672 1.5-1.5 1.5-1.5-.672-1.5-1.5.672-1.5 1.5-1.5zm-11 0c.828 0 1.5.672 1.5 1.5S8.328 14 7.5 14 6 13.328 6 12.5 6.672 11 7.5 11zm5 0c.828 0 1.5.672 1.5 1.5s-.672 1.5-1.5 1.5-1.5-.672-1.5-1.5.672-1.5 1.5-1.5z"/>
</svg>
