<svg xmlns="http://www.w3.org/2000/svg" width="28" height="32" viewBox="0 0 28 32">
    <path fill="#F75DB8" fill-rule="evenodd" d="M27.2 5.182L14.498.096c-.318-.128-.676-.128-.994 0L.799 5.182C.315 5.375 0 5.83 0 6.336v6.183c0 8.513 5.336 16.171 13.51 19.388.314.124.666.124.98 0C22.664 28.69 28 21.032 28 12.52V6.336c0-.505-.315-.96-.8-1.154zm-1.793 7.337c0 7.237-4.407 13.9-11.407 16.873-6.813-2.894-11.407-9.44-11.407-16.873V7.17L14 2.603l11.407 4.568v5.348zm-12.84 4.213l5.572-5.372c.506-.489 1.327-.489 1.833 0 .506.488.506 1.28 0 1.767l-6.488 6.257c-.507.488-1.327.488-1.833 0L8.028 15.89c-.506-.488-.506-1.28 0-1.767.506-.488 1.327-.488 1.833 0l2.706 2.61z"/>
</svg>
