<?xml version="1.0" encoding="utf-8"?><svg viewBox="0 0 515.56 515.56" xmlns="http://www.w3.org/2000/svg" xmlns:xlink="http://www.w3.org/1999/xlink"><style>:root>svg{display:none}:root>svg:target{display:block}</style><svg viewBox="0 0 24 15" id="arrow" xmlns="http://www.w3.org/2000/svg"><path fill="#93A1C8" fill-rule="evenodd" d="M12.959 13.598l10.658-10.57A1.28 1.28 0 0024 2.11c0-.348-.136-.675-.383-.92l-.784-.778a1.32 1.32 0 00-1.853 0l-8.95 8.876L3.068.403a1.306 1.306 0 00-.926-.38c-.352 0-.68.135-.927.38L.43 1.18c-.247.245-.383.57-.383.919 0 .348.136.674.383.918L11.1 13.598c.248.245.578.38.93.38.352 0 .683-.135.93-.38z"/></svg><svg viewBox="0 0 40 40" id="contact-i-1" xmlns="http://www.w3.org/2000/svg"><defs><style>.abcls-1,.abcls-2{fill:#6435a5}.abcls-1{fill-rule:evenodd}</style></defs><g id="abСлой_2" data-name="Слой 2"><g id="abСлой_1-2" data-name="Слой 1"><g id="abIcons-_-Online-chat" data-name="Icons-/-Online-chat"><g id="abconversation"><path id="abPath" class="abcls-1" d="M37.06 32.79a13.06 13.06 0 00-4.29-18A12.9 12.9 0 0027.66 13a11.32 11.32 0 01.13 1.93A13.29 13.29 0 0114.36 27.8H13A13.38 13.38 0 0026.28 39h12.07l-1.27-2.16a3.93 3.93 0 01-.02-4.05z"/><g id="abGroup"><path id="abShape" class="abcls-1" d="M37.88 36.36a3 3 0 010-3.13 14.26 14.26 0 00-9.51-21.5 14.23 14.23 0 00-4.26-7.81 14.27 14.27 0 00-22 17.88 3.05 3.05 0 010 3.14L.83 27.15a1 1 0 00.33 1.3.92.92 0 00.49.13h10.12A14.59 14.59 0 0026 40h12.36a1 1 0 001-1 1.05 1.05 0 00-.13-.49zM3.31 26.68l.46-.77a5 5 0 000-5.11 12.36 12.36 0 1122.89-6.3 12.61 12.61 0 01-12.73 12.18zM26.07 38.1a12.72 12.72 0 01-12.37-9.52h.23a14.51 14.51 0 0014.63-14v-.88a12.39 12.39 0 017.71 18.52 4.92 4.92 0 000 5.1l.45.78z"/><path id="abPath-2" data-name="Path" class="abcls-1" d="M15.35 12c0 1-.89 1.56-3.19 1.66l-.09.09.42 2.95h1.9l.2-1.11c1.94-.34 3.51-1.29 3.51-3.62 0-2.42-1.78-3.81-4.4-3.81a5.72 5.72 0 00-4.46 2L10.92 12a3.74 3.74 0 012.73-1.26c1.08-.01 1.7.47 1.7 1.26z"/><path id="abRectangle" class="abcls-2" d="M11.89 18.17h2.95v2.91h-2.95z"/></g></g></g></g></g></svg><svg viewBox="0 0 40 40" id="contact-i-2" xmlns="http://www.w3.org/2000/svg"><path d="M20 0c11.046 0 20 8.954 20 20s-8.954 20-20 20S0 31.046 0 20 8.954 0 20 0zm-3.453 13.316c-.41.206-.728.664-.535.69.239.033.779.15 1.065.548.324.45.354 1.391.357 1.62v.05s.213 3.183-.496 3.578c-.486.271-1.154-.282-2.586-2.814-.734-1.296-1.289-2.73-1.289-2.73s-.107-.267-.297-.41c-.231-.174-.555-.23-.555-.23l-3.429.024s-.515.014-.704.243c-.168.204-.013.625-.013.625s2.685 6.422 5.725 9.659c2.724 2.9 5.809 2.78 5.947 2.773h1.44s.433-.05.654-.293c.184-.202.197-.562.197-.632v-.059c.003-.297.054-1.948.866-2.212.88-.285 2.011 1.903 3.21 2.744.907.637 1.595.497 1.595.497l3.205-.046s1.677-.105.882-1.453c-.065-.11-.463-.997-2.383-2.82-2.01-1.907-1.74-1.598.68-4.898 1.475-2.009 2.064-3.236 1.88-3.761-.176-.5-1.26-.368-1.26-.368l-3.609.023s-.267-.037-.466.084c-.193.119-.318.396-.318.396s-.571 1.555-1.333 2.877c-1.607 2.79-2.25 2.937-2.512 2.764-.611-.404-.459-1.622-.459-2.487 0-2.704.401-3.832-.78-4.124-.393-.097-.682-.16-1.685-.17-1.287-.014-2.377.003-2.994.312z" fill="#6435A5" fill-rule="evenodd"/></svg><svg viewBox="0 0 40 40" id="contact-i-3" xmlns="http://www.w3.org/2000/svg"><path d="M20 0c11.046 0 20 8.954 20 20s-8.954 20-20 20S0 31.046 0 20 8.954 0 20 0zm6.604 11.096l-18.63 7.336c-1.27.507-1.251 1.236-.215 1.567l4.763 1.523 11.062-7.12c.521-.354.994-.158.605.197l-8.949 8.264-.347 5.026c.497 0 .712-.22.97-.484l2.33-2.29 4.829 3.637c.885.507 1.51.24 1.748-.838l3.17-15.275c.281-1.347-.473-1.874-1.336-1.543z" fill="#6435A5" fill-rule="evenodd"/></svg><svg viewBox="0 0 40 40" id="contact-i-4" xmlns="http://www.w3.org/2000/svg"><path d="M20 0c11.046 0 20 8.954 20 20s-8.954 20-20 20S0 31.046 0 20 8.954 0 20 0zm7.59 9.695c-2.986-2.796-12.184-3.153-15.48.287-1.508 1.714-2.039 4.228-2.097 7.342-.058 3.114-.127 8.948 4.824 10.53l-.005 2.417v.013c-.002.114.004.98.535 1.163.651.232.946-.223 2.97-2.88 3.386.322 5.986-.417 6.281-.525.684-.252 4.552-.814 5.178-6.648.65-6.022-.313-9.823-2.05-11.544zm-14.312 1.54c2.945-3.033 11.251-2.355 13.368-.169 2.587 2.52 1.666 9.643 1.672 9.885-.532 4.87-3.667 5.179-4.243 5.39-.247.09-2.533.736-5.404.525 0 0-2.143 2.937-2.809 3.699-.218.248-.457.225-.454-.267v-.222l.016-3.682v-.108c-4.193-1.321-3.946-6.289-3.9-8.888.045-2.6.478-4.728 1.754-6.162zm3.547 1.576c-.242-.333-.606-.408-.984-.183h-.008l-.125.083c-.749.522-1.508 1.42-1.247 2.343.47 1.027 1.334 4.3 4.086 6.775 1.294 1.17 3.341 2.368 4.21 2.645l.009.014.122.036c.812.185 1.588-.748 2.011-1.602l.052-.129c.13-.382.051-.736-.208-.976-.511-.548-1.282-1.152-1.887-1.541-.45-.286-.907-.108-1.096.173l-.395.562-.065.077c-.207.202-.512.171-.512.171-2.578-.75-3.38-3.585-3.464-3.916l-.008-.031s-.034-.427.217-.656l.494-.45.06-.06c.211-.242.323-.717.092-1.185-.672-1.336-1.124-1.797-1.354-2.15zm3.032-1.005c-.35 0-.35.6 0 .605 2.715.023 4.951 2.103 4.976 5.919 0 .402.536.397.53-.005l-.005-.278c-.135-3.94-2.534-6.218-5.501-6.24zm.486 1.574c-.35-.028-.386.577-.037.604 2.072.173 3.164 1.728 3.122 3.713-.008.398.528.417.532.014.045-2.267-1.227-4.134-3.617-4.331zm.404 1.626c-.35-.023-.383.581-.03.604.874.056 1.298.558 1.343 1.588.017.402.548.374.532-.028-.058-1.345-.696-2.094-1.845-2.164z" fill="#6435A5" fill-rule="evenodd"/></svg><svg viewBox="0 0 18 18" id="cross" xmlns="http://www.w3.org/2000/svg"><path fill="#dce3f4" d="M15.569-.03a1 1 0 011.414 0l1.01 1.01a1 1 0 010 1.415L2.438 17.95a1 1 0 01-1.414 0l-1.01-1.01a1 1 0 010-1.414z"/><path fill="#dce3f4" d="M-.03 2.431a1 1 0 010-1.414L.98.007a1 1 0 011.415 0L17.95 15.562a1 1 0 010 1.414l-1.01 1.01a1 1 0 01-1.414 0z"/></svg><svg viewBox="0 0 246 231" id="decor-dots" xmlns="http://www.w3.org/2000/svg"><path fill="#F75DB8" fill-rule="evenodd" d="M6.669 0C2.989 0 0 2.968 0 6.621c0 3.66 2.99 6.621 6.669 6.621 3.68 0 6.668-2.96 6.668-6.621C13.337 2.968 10.348 0 6.67 0m59.28 0c-3.684 0-6.672 2.968-6.672 6.621 0 3.66 2.988 6.621 6.673 6.621 3.677 0 6.664-2.96 6.664-6.621C72.614 2.968 69.627 0 65.95 0m57.799 0c-3.695 0-6.677 2.968-6.677 6.621 0 3.66 2.982 6.621 6.677 6.621 3.68 0 6.66-2.96 6.66-6.621 0-3.653-2.98-6.621-6.66-6.621m56.305 0c-3.68 0-6.668 2.968-6.668 6.621 0 3.66 2.989 6.621 6.668 6.621 3.695 0 6.669-2.96 6.669-6.621 0-3.653-2.974-6.621-6.669-6.621m59.281 13.242c3.685 0 6.665-2.96 6.665-6.621C246 2.968 243.02 0 239.335 0c-3.677 0-6.672 2.968-6.672 6.621 0 3.66 2.995 6.621 6.672 6.621M6.67 42.669c-3.681 0-6.67 2.966-6.67 6.625 0 3.65 2.99 6.617 6.669 6.617 3.68 0 6.668-2.966 6.668-6.617 0-3.66-2.989-6.625-6.668-6.625m59.28 0c-3.684 0-6.672 2.966-6.672 6.625 0 3.65 2.988 6.617 6.673 6.617 3.677 0 6.664-2.966 6.664-6.617 0-3.66-2.987-6.625-6.664-6.625m57.799 0c-3.695 0-6.677 2.966-6.677 6.625 0 3.65 2.982 6.617 6.677 6.617 3.68 0 6.66-2.966 6.66-6.617 0-3.66-2.98-6.625-6.66-6.625m56.305 0c-3.68 0-6.668 2.966-6.668 6.625 0 3.65 2.989 6.617 6.668 6.617 3.695 0 6.669-2.966 6.669-6.617 0-3.66-2.974-6.625-6.669-6.625m59.281 0c-3.677 0-6.672 2.966-6.672 6.625 0 3.65 2.995 6.617 6.672 6.617 3.685 0 6.665-2.966 6.665-6.617 0-3.66-2.98-6.625-6.665-6.625M6.67 85.338c-3.68 0-6.669 2.96-6.669 6.62 0 3.654 2.99 6.622 6.669 6.622 3.68 0 6.668-2.968 6.668-6.621 0-3.661-2.989-6.621-6.668-6.621m59.28 0c-3.684 0-6.672 2.96-6.672 6.62 0 3.654 2.988 6.622 6.673 6.622 3.677 0 6.664-2.968 6.664-6.621 0-3.661-2.987-6.621-6.664-6.621m57.799 0c-3.695 0-6.677 2.96-6.677 6.62 0 3.654 2.982 6.622 6.677 6.622 3.68 0 6.66-2.968 6.66-6.621 0-3.661-2.98-6.621-6.66-6.621m56.305 0c-3.68 0-6.668 2.96-6.668 6.62 0 3.654 2.989 6.622 6.668 6.622 3.695 0 6.669-2.968 6.669-6.621 0-3.661-2.974-6.621-6.669-6.621m59.281 0c-3.677 0-6.672 2.96-6.672 6.62 0 3.654 2.995 6.622 6.672 6.622 3.685 0 6.665-2.968 6.665-6.621 0-3.661-2.98-6.621-6.665-6.621M6.67 132.42c-3.68 0-6.669 2.966-6.669 6.618 0 3.658 2.99 6.624 6.669 6.624 3.68 0 6.668-2.966 6.668-6.624 0-3.652-2.989-6.618-6.668-6.618m59.28 0c-3.684 0-6.672 2.966-6.672 6.618 0 3.658 2.988 6.624 6.673 6.624 3.677 0 6.664-2.966 6.664-6.624 0-3.652-2.987-6.618-6.664-6.618m57.799 0c-3.695 0-6.677 2.966-6.677 6.618 0 3.658 2.982 6.624 6.677 6.624 3.68 0 6.66-2.966 6.66-6.624 0-3.652-2.98-6.618-6.66-6.618m56.305 0c-3.68 0-6.668 2.966-6.668 6.618 0 3.658 2.989 6.624 6.668 6.624 3.695 0 6.669-2.966 6.669-6.624 0-3.652-2.974-6.618-6.669-6.618m59.281 0c-3.677 0-6.672 2.966-6.672 6.618 0 3.658 2.995 6.624 6.672 6.624 3.685 0 6.665-2.966 6.665-6.624 0-3.652-2.98-6.618-6.665-6.618M6.67 175.09c-3.68 0-6.669 2.96-6.669 6.62 0 3.661 2.99 6.621 6.669 6.621 3.68 0 6.668-2.96 6.668-6.62 0-3.662-2.989-6.622-6.668-6.622m59.28 0c-3.684 0-6.672 2.96-6.672 6.621 0 3.661 2.988 6.621 6.673 6.621 3.677 0 6.664-2.96 6.664-6.62 0-3.662-2.987-6.622-6.664-6.622m57.799 0c-3.695 0-6.677 2.96-6.677 6.621 0 3.661 2.982 6.621 6.677 6.621 3.68 0 6.66-2.96 6.66-6.62 0-3.662-2.98-6.622-6.66-6.622m56.305 0c-3.68 0-6.668 2.96-6.668 6.621 0 3.661 2.989 6.621 6.668 6.621 3.695 0 6.669-2.96 6.669-6.62 0-3.662-2.974-6.622-6.669-6.622m59.281 0c-3.677 0-6.672 2.96-6.672 6.621 0 3.661 2.995 6.621 6.672 6.621 3.685 0 6.665-2.96 6.665-6.62 0-3.662-2.98-6.622-6.665-6.622M6.67 217.758c-3.68 0-6.669 2.968-6.669 6.629C0 228.04 2.99 231 6.669 231c3.68 0 6.668-2.96 6.668-6.613 0-3.661-2.989-6.629-6.668-6.629m59.28 0c-3.684 0-6.672 2.968-6.672 6.629 0 3.653 2.988 6.613 6.673 6.613 3.677 0 6.664-2.96 6.664-6.613 0-3.661-2.987-6.629-6.664-6.629m57.799 0c-3.695 0-6.677 2.968-6.677 6.629 0 3.653 2.982 6.613 6.677 6.613 3.68 0 6.66-2.96 6.66-6.613 0-3.661-2.98-6.629-6.66-6.629m56.305 0c-3.68 0-6.668 2.968-6.668 6.629 0 3.653 2.989 6.613 6.668 6.613 3.695 0 6.669-2.96 6.669-6.613 0-3.661-2.974-6.629-6.669-6.629M246 224.387c0 3.653-2.98 6.613-6.665 6.613-3.677 0-6.672-2.96-6.672-6.613 0-3.661 2.995-6.629 6.672-6.629 3.685 0 6.665 2.968 6.665 6.629"/></svg><svg viewBox="0 0 278 146" id="decor-waves" xmlns="http://www.w3.org/2000/svg"><path d="M272 134.417c-8.994 0-13.386-3.098-22.388-13.683-10.94-12.865-17.63-17.584-30.794-17.584-13.171 0-19.863 4.72-30.806 17.583-9.005 10.587-13.396 13.684-22.39 13.684-8.99 0-13.38-3.097-22.381-13.68-10.944-12.866-17.636-17.587-30.808-17.587s-19.866 4.72-30.81 17.58l-.003.002c-9.009 10.587-13.403 13.685-22.403 13.685-8.996 0-13.39-3.097-22.397-13.682C25.872 107.87 19.176 103.15 6 103.15c-3.06 0-5.542 2.5-5.542 5.583 0 3.084 2.481 5.584 5.542 5.584 9 0 13.395 3.098 22.404 13.684 10.947 12.863 17.64 17.582 30.813 17.582 13.176 0 19.872-4.72 30.817-17.582 9.01-10.587 13.403-13.684 22.4-13.684 8.993 0 13.384 3.097 22.388 13.683 10.942 12.864 17.633 17.583 30.8 17.583 13.171 0 19.863-4.72 30.806-17.583 9.005-10.586 13.396-13.683 22.39-13.683 8.985 0 13.374 3.096 22.372 13.676l.006.007c10.938 12.862 17.632 17.583 30.804 17.583 3.06 0 5.542-2.5 5.542-5.583 0-3.084-2.481-5.583-5.542-5.583zm0-51.367c-8.994 0-13.386-3.098-22.388-13.683-10.94-12.864-17.63-17.584-30.794-17.584-13.171 0-19.863 4.72-30.806 17.584-9.005 10.586-13.396 13.683-22.39 13.683-8.99 0-13.38-3.097-22.381-13.68-10.944-12.866-17.636-17.587-30.808-17.587s-19.866 4.72-30.81 17.58l-.003.003C72.611 79.952 68.217 83.05 59.217 83.05c-8.996 0-13.39-3.097-22.397-13.681C25.872 56.504 19.176 51.783 6 51.783c-3.06 0-5.542 2.5-5.542 5.584C.458 60.45 2.94 62.95 6 62.95c9 0 13.395 3.098 22.404 13.684 10.947 12.863 17.64 17.583 30.813 17.583 13.176 0 19.872-4.72 30.817-17.583 9.01-10.587 13.403-13.684 22.4-13.684 8.993 0 13.384 3.098 22.388 13.683 10.942 12.864 17.633 17.584 30.8 17.584 13.171 0 19.863-4.72 30.806-17.584 9.005-10.586 13.396-13.683 22.39-13.683 8.985 0 13.374 3.096 22.372 13.677l.006.006C252.134 89.495 258.828 94.217 272 94.217c3.06 0 5.542-2.5 5.542-5.584 0-3.083-2.481-5.583-5.542-5.583zm0-51.367c-8.994 0-13.386-3.098-22.388-13.683C238.672 5.136 231.982.417 218.818.417c-13.171 0-19.863 4.72-30.806 17.583-9.005 10.586-13.396 13.683-22.39 13.683-8.99 0-13.38-3.096-22.381-13.68C132.297 5.137 125.605.417 112.433.417s-19.866 4.719-30.81 17.58l-.003.002c-9.009 10.586-13.403 13.684-22.403 13.684-8.996 0-13.39-3.097-22.397-13.68C25.872 5.136 19.176.416 6 .416 2.94.417.458 2.917.458 6c0 3.084 2.481 5.583 5.542 5.583 9 0 13.395 3.098 22.404 13.685C39.35 38.13 46.044 42.85 59.217 42.85c13.176 0 19.872-4.72 30.817-17.582 9.01-10.588 13.403-13.685 22.4-13.685 8.993 0 13.384 3.098 22.388 13.683 10.942 12.864 17.633 17.584 30.8 17.584 13.171 0 19.863-4.72 30.806-17.583 9.005-10.587 13.396-13.684 22.39-13.684 8.985 0 13.374 3.097 22.372 13.677l.006.006C252.134 38.128 258.828 42.85 272 42.85c3.06 0 5.542-2.5 5.542-5.583 0-3.084-2.481-5.584-5.542-5.584z" fill="#FFD304"/></svg><svg viewBox="0 0 11 20" id="fb" xmlns="http://www.w3.org/2000/svg"><path fill="#fff" d="M10.313 10.667L11 7.333H7.562V4.667c0-1 .55-1.334 2.063-1.334H11V0H8.25C5.431 0 3.437 1.6 3.437 4.667v2.666H0v3.334h3.438V20h4.124v-9.333z"/></svg><svg viewBox="0 0 21 21" id="ggl" xmlns="http://www.w3.org/2000/svg"><path fill="#fff" d="M11.517 12.666h5.129a6.526 6.526 0 01-6.193 4.348c-3.463-.025-6.327-2.795-6.462-6.256-.144-3.709 2.832-6.772 6.511-6.772a6.49 6.49 0 014.374 1.69c.274.249.691.25.96-.003L17.72 3.9a.704.704 0 00.002-1.023A10.464 10.464 0 0010.711.002C4.921-.111.041 4.635.001 10.425-.04 16.26 4.676 21 10.501 21c5.602 0 10.178-4.385 10.484-9.91.009-.069.014-2.41.014-2.41h-9.483a.704.704 0 00-.704.704v2.579c0 .388.316.703.704.703z"/></svg><svg viewBox="0 0 25 18" id="i-arrow" xmlns="http://www.w3.org/2000/svg"><path fill="#0D1D4A" fill-rule="evenodd" d="M16.835.27a.87.87 0 00-1.26 0c-.34.35-.34.93 0 1.278l6.388 6.542H.882c-.491 0-.882.4-.882.903 0 .504.39.917.882.917h21.081l-6.388 6.53a.943.943 0 000 1.29.87.87 0 001.26 0l7.9-8.091a.902.902 0 000-1.277L16.836.27z"/></svg><svg viewBox="0 0 492 492" id="i-close" xmlns="http://www.w3.org/2000/svg"><path d="M300.188 246L484.14 62.04c5.06-5.064 7.852-11.82 7.86-19.024 0-7.208-2.792-13.972-7.86-19.028L468.02 7.872C462.952 2.796 456.196.016 448.984.016c-7.2 0-13.956 2.78-19.024 7.856L246.008 191.82 62.048 7.872C56.988 2.796 50.228.016 43.02.016c-7.2 0-13.96 2.78-19.02 7.856L7.872 23.988c-10.496 10.496-10.496 27.568 0 38.052L191.828 246 7.872 429.952C2.808 435.024.02 441.78.02 448.984c0 7.204 2.788 13.96 7.852 19.028l16.124 16.116c5.06 5.072 11.824 7.856 19.02 7.856 7.208 0 13.968-2.784 19.028-7.856l183.96-183.952 183.952 183.952c5.068 5.072 11.824 7.856 19.024 7.856h.008c7.204 0 13.96-2.784 19.028-7.856l16.12-16.116c5.06-5.064 7.852-11.824 7.852-19.028 0-7.204-2.792-13.96-7.852-19.028L300.188 246z"/></svg><svg viewBox="0 0 43 48" id="i-download-app" xmlns="http://www.w3.org/2000/svg"><path d="M42.18 22.13l-9.93-5.694a.802.802 0 00-.165-.06l-9.6-5.472L1.23.084A1.17 1.17 0 00.99.017.708.708 0 00.724.009a.812.812 0 00-.32.105C.135.228 0 .522 0 .816v46.37c0 .326.164.57.41.733.082.081.246.081.41.081.165 0 .247 0 .41-.081l21.255-11.715 9.341-5.37h.014c.164 0 .246-.08.41-.243a.576.576 0 00.19-.11l9.74-5.585c.492-.244.82-.813.82-1.383 0-.57-.328-1.057-.82-1.383zM1.64 2.687l22.555 20.897L1.641 45.199V2.687zm28.886 14.644l-2.863 2.884-2.229 2.237-9.884-9.107-9.799-9.066 15.912 8.008 8.863 5.044zm-8.863 17.49L5.896 43.443l14.948-14.324 4.591-4.382 5.046 5.067-8.817 5.017zm10.313-5.889l-5.315-5.337 5.346-5.367 9.35 5.367-9.38 5.337z"/></svg><svg viewBox="0 0 26 26" id="i-like" xmlns="http://www.w3.org/2000/svg"><path fill="#FFF" stroke="#FFF" stroke-width=".5" d="M24.222 17.743c.505-.643.747-1.334.716-2.044-.03-.783-.38-1.396-.67-1.772.335-.834.464-2.148-.653-3.167-.82-.747-2.21-1.082-4.136-.99-1.355.063-2.488.315-2.534.325-.263.047-.536.103-.814.165-.02-.33.036-1.148.644-2.992.721-2.194.68-3.873-.134-4.996C15.786 1.092 14.421 1 14.02 1c-.387 0-.742.16-.994.453-.572.665-.505 1.89-.433 2.457-.68 1.823-2.585 6.293-4.197 7.535-.031.02-.057.046-.083.072a5.55 5.55 0 00-1.01 1.514 2.117 2.117 0 00-1.019-.258H3.142A2.144 2.144 0 001 14.916v8.369c0 1.185.963 2.142 2.142 2.142h3.142c.458 0 .886-.144 1.236-.39l1.21.143c.186.026 3.482.443 6.866.376.613.047 1.19.072 1.725.072.922 0 1.725-.072 2.395-.216 1.576-.335 2.652-1.004 3.198-1.988a3.152 3.152 0 00.35-1.972c1.025-.928 1.206-1.952 1.17-2.673a3.487 3.487 0 00-.212-1.036zm-21.08 6.294a.752.752 0 01-.751-.752v-8.374c0-.417.34-.752.751-.752h3.142c.417 0 .752.34.752.752v8.369c0 .417-.34.752-.752.752H3.142v.005zm19.762-6.896a.693.693 0 00-.093.84c0 .004.211.365.237.86.036.674-.288 1.271-.968 1.781a.702.702 0 00-.237.793c0 .006.221.685-.14 1.33-.344.617-1.112 1.06-2.276 1.307-.932.201-2.199.237-3.754.114h-.072c-3.312.072-6.66-.36-6.695-.366H8.9l-.52-.062c.031-.144.047-.299.047-.453v-8.374c0-.222-.036-.438-.098-.639.092-.345.35-1.112.958-1.766 2.312-1.834 4.573-8.02 4.67-8.287a.65.65 0 00.032-.345c-.088-.577-.057-1.283.067-1.494.273.005 1.01.083 1.452.696.525.726.505 2.024-.062 3.744-.865 2.621-.937 4.001-.252 4.61.34.303.793.318 1.123.2.314-.072.613-.134.896-.18l.067-.016c1.58-.345 4.414-.556 5.397.34.835.762.242 1.772.175 1.88a.689.689 0 00.124.896c.005.005.546.515.572 1.2.02.459-.196.927-.644 1.39z"/></svg><svg viewBox="0 0 20 16" id="i-mail" xmlns="http://www.w3.org/2000/svg"><path fill="#F75DB8" fill-rule="evenodd" d="M19.19 1.874A1.872 1.872 0 0017.317 0H1.875A1.874 1.874 0 000 1.874v12.214c0 1.035.84 1.874 1.875 1.874h15.441a1.874 1.874 0 001.875-1.874V1.874zM1.886 1.498H17.33a.37.37 0 01.373.371v.016l-7.831 7.83a.377.377 0 01-.53 0l-7.834-7.83v-.016c0-.207.169-.371.376-.371zM17.33 14.465H1.885a.38.38 0 01-.376-.378V4.004l6.774 6.771c.354.354.825.549 1.325.549.501 0 .97-.195 1.325-.55l6.771-6.769v10.082a.377.377 0 01-.373.378z"/></svg><svg viewBox="0 0 515.558 515.558" id="i-search" xmlns="http://www.w3.org/2000/svg"><path d="M378.344 332.78c25.37-34.645 40.545-77.2 40.545-123.333C418.889 93.963 324.928.002 209.444.002S0 93.963 0 209.447s93.961 209.445 209.445 209.445c46.133 0 88.692-15.177 123.337-40.547l137.212 137.212 45.564-45.564L378.344 332.78zm-168.899 21.667c-79.958 0-145-65.042-145-145s65.042-145 145-145 145 65.042 145 145-65.043 145-145 145z"/></svg><svg viewBox="0 0 32 32" id="i-user" xmlns="http://www.w3.org/2000/svg"><path fill="#FFF" d="M16 0c8.837 0 16 7.163 16 16s-7.163 16-16 16S0 24.837 0 16 7.163 0 16 0zm-.085 20.31a11.626 11.626 0 00-9.3 4.618l-.029.038A12.967 12.967 0 0015.953 29h-.038c2.354 0 4.604-.613 6.565-1.727l.246-.146a13.04 13.04 0 002.59-2.06l-.1-.14a11.627 11.627 0 00-8.973-4.612l-.328-.005zM16 3C8.82 3 3 8.82 3 16c0 2.738.846 5.278 2.292 7.374a13.625 13.625 0 017.467-4.699 5.916 5.916 0 01-2.359-4.727c0-3.285 2.686-5.948 6-5.948s6 2.663 6 5.948a5.928 5.928 0 01-2.62 4.916 13.604 13.604 0 016.849 4.623A12.945 12.945 0 0029 16c0-7.18-5.82-13-13-13zm.4 7c-2.213 0-4 1.772-4 3.948 0 2.177 1.787 3.949 4 3.949s4-1.772 4-3.949c0-2.176-1.787-3.948-4-3.948z"/></svg><svg viewBox="0 0 18 19" id="inst" xmlns="http://www.w3.org/2000/svg"><path fill="#fff" d="M12.638 16.77H5.362a3.552 3.552 0 01-3.551-3.552V5.942a3.551 3.551 0 013.551-3.551h7.276a3.551 3.551 0 013.551 3.551v7.276a3.552 3.552 0 01-3.551 3.551zm0-16.19H5.362A5.368 5.368 0 000 5.942v7.276a5.368 5.368 0 005.362 5.362h7.276A5.368 5.368 0 0018 13.218V5.942A5.368 5.368 0 0012.638.58z"/><path fill="#fff" d="M9.438 13.155a3.148 3.148 0 113.15-3.147 3.148 3.148 0 01-3.15 3.147zM9.433 4.86a5.149 5.149 0 00-5.143 5.143 5.149 5.149 0 005.143 5.143 5.149 5.149 0 005.143-5.143A5.149 5.149 0 009.433 4.86z"/><path fill="#fff" d="M14.146 6.581a1.286 1.286 0 100-2.571 1.286 1.286 0 000 2.571z"/></svg><svg viewBox="0 0 24 24" id="login" xmlns="http://www.w3.org/2000/svg"><path fill="#f75db8" d="M5.03 19.832c.226-2.75 3.142-4.785 6.97-4.785s6.744 2.035 6.97 4.785A10.445 10.445 0 0112 22.5a10.445 10.445 0 01-6.97-2.668zM8.027 9.586c0-2.19 1.78-3.972 3.969-3.972a3.974 3.974 0 013.969 3.972c0 2.19-1.78 3.97-3.969 3.97a3.974 3.974 0 01-3.969-3.97zM12 1.5c5.79 0 10.5 4.71 10.5 10.5 0 2.455-.853 4.71-2.27 6.5-.65-2.097-2.508-3.74-5.028-4.495a5.455 5.455 0 002.272-4.424A5.476 5.476 0 0012 4.114a5.476 5.476 0 00-5.474 5.467c0 1.82.899 3.43 2.272 4.424-2.52.756-4.377 2.398-5.028 4.496A10.44 10.44 0 011.5 12C1.5 6.21 6.21 1.5 12 1.5zM24 12c0-6.617-5.383-12-12-12S0 5.383 0 12c0 3.384 1.413 6.439 3.674 8.622a.732.732 0 00.189.172A11.936 11.936 0 0012 24c3.142 0 5.996-1.223 8.137-3.206a.732.732 0 00.19-.172A11.957 11.957 0 0024 12z"/></svg><svg viewBox="0 0 81 72" id="logo-2" xmlns="http://www.w3.org/2000/svg"><defs><linearGradient x1="89.727%" y1="142.692%" x2=".925%" y2="-56.873%" id="atb"><stop stop-color="#F85DB9" offset="0%"/><stop stop-color="#EF5CBB" offset="17%"/><stop stop-color="#D558C1" offset="45%"/><stop stop-color="#AC52CB" offset="81%"/><stop stop-color="#934ED1" offset="100%"/></linearGradient><linearGradient x1="44.664%" y1="45.198%" x2="74.738%" y2="75.669%" id="atc"><stop stop-color="#FECF00" offset="0%"/><stop stop-color="#FDC607" offset="34%"/><stop stop-color="#FAA81C" offset="100%"/></linearGradient><linearGradient x1="15.225%" y1="33.021%" x2="107.373%" y2="93.839%" id="ate"><stop stop-color="#6435A5" offset="0%"/><stop stop-color="#6D3AAE" offset="24%"/><stop stop-color="#8747C6" offset="63%"/><stop stop-color="#934ED1" offset="100%"/></linearGradient><path d="M22.408 2.38C35.94-2.843 51.323.704 61.132 11.307l-.03.009.069.076.24.253c.131.138.247.283.371.421a35.413 35.413 0 017.132 12.856 34.727 34.727 0 011.455 9.007v.077c.008.337.016.66-.116.973v2.185l-.002.002.134.029v23.97a10.358 10.358 0 003.08 7.37 10.57 10.57 0 007.443 3.048H35.162c-11.441.008-22.17-5.494-28.766-14.749.143.009.286.016.43.024a1.742 1.742 0 00-.244-.031h-.186a30.768 30.768 0 01-4.282-8.187.319.319 0 000-.077l-.227-.64A34.588 34.588 0 010 36.637v-1.74C-.026 20.517 8.876 7.601 22.408 2.38zm23.988 20.178c-5.347-4.424-12.796-5.433-19.158-2.564-6.481 2.921-10.637 9.324-10.629 16.374v.897a17.794 17.794 0 001.634 7.459l-.036.013.044-.013.175.362c2.264 4.555 6.367 7.963 11.308 9.373l-.148.03a4.86 4.86 0 00-.192.057l.34-.087a18.58 18.58 0 005.002.682h18.173l-.001-11.685-.108-.105v-7.129c.002-.73-.042-1.46-.131-2.185-.016-.137-.031-.214-.062-.421s-.1-.406-.1-.613a16.748 16.748 0 00-.357-1.534l-.033-.142c-.02-.093-.04-.187-.075-.294-.055-.161-.117-.307-.17-.46v-.085a17.564 17.564 0 00-.659-1.633l-.077-.16a17.614 17.614 0 00-.728-1.373c-.054-.084-.093-.168-.147-.245l-.341-.537-.395-.575-.225-.306a17.82 17.82 0 00-2.098-2.346l-.248-.23-.31-.284-.013-.043z" id="ata"/></defs><g fill="none" fill-rule="evenodd"><mask id="atd" fill="#fff"><use xlink:href="#ata"/></mask><use fill="url(#atb)" fill-rule="nonzero" xlink:href="#ata"/><path d="M72.848 37.428c-5.8-1.311-12.612 1.947-19.248 6.186-14.365 7.687-22.09 11.38-23.175 11.077a74.27 74.27 0 01-23.338 2.377c6.596 9.254 17.325 21.829 28.766 21.822l45.746-7.074c-2.791.003-3.697-1.094-5.671-3.049a10.358 10.358 0 01-3.08-7.368V37.428z" fill="url(#atc)" fill-rule="nonzero" mask="url(#atd)"/><path d="M18.243 44.724a17.794 17.794 0 01-1.634-7.46v-.896c-.008-7.05 4.148-13.453 10.629-16.374 6.48-2.922 14.087-1.821 19.453 2.813 3.038-5.614 8.25-9.765 14.44-11.499C51.324.705 35.942-2.842 22.409 2.38 8.876 7.601-.026 20.517 0 34.896v1.74a34.591 34.591 0 002.114 11.928 63.97 63.97 0 0016.129-3.84z" fill="url(#ate)" fill-rule="nonzero" mask="url(#atd)"/></g></svg><svg viewBox="0 0 171 42" id="logo-black" xmlns="http://www.w3.org/2000/svg"><defs><linearGradient id="aub" x1="89.727%" x2=".925%" y1="143.061%" y2="-57.298%"><stop offset="0%" stop-color="#F85DB9"/><stop offset="17%" stop-color="#EF5CBB"/><stop offset="45%" stop-color="#D558C1"/><stop offset="81%" stop-color="#AC52CB"/><stop offset="100%" stop-color="#934ED1"/></linearGradient><linearGradient id="auc" x1="44.664%" x2="74.738%" y1="45.179%" y2="75.771%"><stop offset="0%" stop-color="#FECF00"/><stop offset="34%" stop-color="#FDC607"/><stop offset="100%" stop-color="#FAA81C"/></linearGradient><linearGradient id="aue" x1="15.225%" x2="107.373%" y1="32.954%" y2="94.013%"><stop offset="0%" stop-color="#6435A5"/><stop offset="24%" stop-color="#6D3AAE"/><stop offset="63%" stop-color="#8747C6"/><stop offset="100%" stop-color="#934ED1"/></linearGradient><path id="aua" d="M12.647 1.345c7.638-2.952 16.32-.946 21.856 5.05l-.018.005.04.043.135.143c.074.078.14.16.21.238a20.049 20.049 0 014.025 7.27c.496 1.655.772 3.368.821 5.094v.043c.005.191.009.373-.065.551v1.236l-.002.001.076.016V34.59a5.863 5.863 0 001.738 4.167 5.961 5.961 0 004.201 1.724H19.845c-6.457.004-12.513-3.107-16.235-8.34l.238.012-.062-.01-.071-.007H3.61a17.388 17.388 0 01-2.417-4.63.155.155 0 000-.043l-.176-.501A19.626 19.626 0 010 20.718v-.984C-.014 11.603 5.01 4.298 12.647 1.345zM26.104 12.69a10.31 10.31 0 00-10.731-1.383c-3.658 1.652-6.004 5.273-5.999 9.26v.507a10.077 10.077 0 00.922 4.218l-.016.006.02-.006.14.284a10.271 10.271 0 006.342 5.222l-.084.017-.071.02.155-.037a10.47 10.47 0 002.823.385H29.86v-6.61l-.06-.057v-4.032c0-.413-.025-.825-.075-1.235-.009-.078-.017-.122-.035-.239-.017-.117-.057-.23-.057-.346a9.545 9.545 0 00-.2-.867l-.02-.08a1.248 1.248 0 00-.042-.168c-.03-.09-.066-.173-.096-.26v-.047a9.881 9.881 0 00-.372-.924l-.043-.09a9.913 9.913 0 00-.411-.777c-.03-.047-.053-.095-.083-.139l-.192-.303-.223-.325-.127-.174c-.355-.475-.751-.92-1.184-1.326l-.14-.13-.175-.16-.008-.026z"/></defs><g fill="none" fill-rule="evenodd"><path d="M103.814 14.942c-4.93-.043-8.605 3.538-8.614 8.398-.009 4.86 3.601 8.392 8.513 8.427 4.912.035 8.6-3.507 8.631-8.358.03-4.851-3.526-8.419-8.53-8.467zm-.088 13.236c-2.74 0-4.65-2.008-4.645-4.838.004-2.831 1.962-4.856 4.72-4.843 2.757.013 4.671 2.012 4.663 4.886-.01 2.874-1.936 4.816-4.738 4.795zm44.462-4.618c2.623-2.414 3.26-5.44 2.037-8.739-1.154-3.121-3.605-4.639-6.892-4.769-4.693-.195-8.211 2.948-8.277 7.37-.026 1.942.573 3.616 2.124 4.868.455.417 1.1.564 1.692.385a1.737 1.737 0 001.192-1.252c.184-.737-.157-1.326-.546-1.911a3.644 3.644 0 01-.083-4.249c1.005-1.552 2.6-1.834 4.313-1.565a3.453 3.453 0 013.007 2.736 4.512 4.512 0 01-1.35 4.725c-.472.433-.984.832-1.5 1.222-2.508 1.917-5.02 3.831-7.533 5.745-.748.572-.98 1.213-.748 1.963a1.991 1.991 0 001.831 1.405h11.048c.2.013.4.013.599 0a1.806 1.806 0 001.67-1.795 1.731 1.731 0 00-.463-1.247 1.754 1.754 0 00-1.216-.556c-.778-.06-1.56-.035-2.342-.04h-3.933l-.053-.138c.267-.195.533-.386.795-.585 1.53-1.184 3.195-2.255 4.628-3.572zm-88.64-7.924a9.613 9.613 0 00-7.364.039c-5.366 2.09-6.38 9.537-2.818 13.413 2.81 3.065 8.334 3.767 10.82.585.048.076.089.156.123.239.38 1.196 1.123 1.734 2.185 1.582 1.062-.152 1.63-.915 1.634-2.098 0-2.432.066-4.869-.026-7.3-.127-3.092-1.683-5.277-4.554-6.46zm.586 9.073c-.437 2.259-1.95 3.469-4.252 3.469-2.37 0-4.222-1.366-4.585-3.538a7.534 7.534 0 01.04-2.748c.515-2.367 2.678-3.69 5.296-3.364 2.517.307 3.632 1.712 3.667 4.582-.053.524-.066 1.058-.166 1.6zm107.65-1.851c-.83 0-1.66.135-2.53.208v-1.24c0-1.564-.507-2.21-1.748-2.21s-1.77.65-1.77 2.167v1.37l-3.65-.386c.119-.195.224-.381.342-.563 1.923-2.925 3.846-5.851 5.768-8.779.18-.253.337-.521.468-.802.226-.491.224-1.055-.006-1.545s-.663-.854-1.187-1c-.874-.286-1.783.074-2.377 1.032-2.535 4.084-5.07 8.172-7.57 12.277-.992 1.622-.152 3.035 1.749 3.065h4.754c1.18 0 1.543.369 1.582 1.552.022.663 0 1.331.035 1.994.088 1.045.822 1.635 1.914 1.609.477.028.944-.144 1.287-.474.343-.33.531-.787.518-1.26.022-.62 0-1.24.022-1.86.066-1.231.415-1.552 1.648-1.57h.738c1.276-.026 2.006-.684 2.002-1.812-.005-1.127-.721-1.79-1.989-1.773zm-43.955-7.907c-4.523-.212-8.203 2.883-8.373 7.322-.157 4.136-.061 8.28-.04 12.42-.009.485.18.953.522 1.298.343.345.812.538 1.3.536a1.84 1.84 0 001.967-1.613c.05-.372.073-.747.066-1.122V29.76a16.606 16.606 0 002.33 1.487 7.265 7.265 0 005.423.052c5.545-1.96 6.511-9.19 3.644-13.036-1.7-2.272-4.073-3.178-6.839-3.312zm4.265 10.092c-.52 2.016-2.124 3.174-4.221 3.19-2.098.018-3.811-1.096-4.37-2.938a13.8 13.8 0 01-.302-1.817h.061c.022-.373 0-.754.075-1.123.375-2.505 1.957-3.901 4.37-3.845 2.412.057 4.34 1.635 4.562 4.032a7.313 7.313 0 01-.175 2.501zM92.346 14.938h-9.675c-1.037.049-1.853.897-1.853 1.927s.816 1.878 1.853 1.927h3.033v11.029a1.937 1.937 0 001.942 1.837 1.938 1.938 0 001.943-1.837V18.792h2.757a1.948 1.948 0 001.761-.936 1.917 1.917 0 000-1.982 1.948 1.948 0 00-1.76-.936zM79.17 24.15a6.047 6.047 0 00-3.339-1.374h-.03l.03-.03a5.274 5.274 0 002.815-1.3 3.225 3.225 0 001.036-2.416c0-2.73-2.524-4.096-7.57-4.096-1.057 0-2.202.052-3.435.156a1.89 1.89 0 00-1.31.628 1.96 1.96 0 00-.503 1.349v12.571c-.006.494.175.972.507 1.34.317.379.776.612 1.271.646 1.338.108 2.575.16 3.72.16 5.346 0 8.017-1.65 8.014-4.95a3.457 3.457 0 00-1.206-2.684zm-8.106-6.134a.299.299 0 01.253-.316 14.1 14.1 0 011.145-.065c2.185 0 3.278.631 3.278 1.894a1.731 1.731 0 01-.91 1.543 4.57 4.57 0 01-2.464.568h-1.014c-.192 0-.288-.082-.288-.251v-3.373zm1.481 11.029a8.835 8.835 0 01-1.206-.061c-.192-.043-.289-.148-.289-.317V24.48c0-.17.097-.252.289-.252h1.11c2.587 0 3.88.768 3.88 2.302.01 1.676-1.252 2.515-3.784 2.515z" fill="#0D1D4A" fill-rule="nonzero"/><g transform="translate(0 1)"><mask id="aud" fill="#fff"><use xlink:href="#aua"/></mask><use fill="url(#aub)" fill-rule="nonzero" xlink:href="#aua"/><path fill="url(#auc)" fill-rule="nonzero" d="M41.115 21.166c-3.273-.741-7.118 1.101-10.863 3.499-8.108 4.347-12.468 6.435-13.08 6.264A41.84 41.84 0 014 32.273c3.722 5.233 9.778 12.345 16.235 12.34l25.82-4c-1.576.002-2.088-.619-3.202-1.724a5.863 5.863 0 01-1.738-4.167V21.166z" mask="url(#aud)"/><path fill="url(#aue)" fill-rule="nonzero" d="M10.296 25.292a10.077 10.077 0 01-.922-4.218v-.507c-.005-3.987 2.341-7.608 5.999-9.26a10.312 10.312 0 0110.98 1.59 13.358 13.358 0 018.15-6.502C28.966.4 20.285-1.607 12.647 1.345 5.009 4.298-.014 11.603 0 19.735v.983c-.002 2.3.402 4.584 1.193 6.746a36.043 36.043 0 009.103-2.172z" mask="url(#aud)"/></g></g></svg><svg viewBox="0 0 171 42" id="logo-white" xmlns="http://www.w3.org/2000/svg"><defs><linearGradient id="avb" x1="89.727%" x2=".925%" y1="143.061%" y2="-57.298%"><stop offset="0%" stop-color="#F85DB9"/><stop offset="17%" stop-color="#EF5CBB"/><stop offset="45%" stop-color="#D558C1"/><stop offset="81%" stop-color="#AC52CB"/><stop offset="100%" stop-color="#934ED1"/></linearGradient><linearGradient id="avc" x1="44.664%" x2="74.738%" y1="45.179%" y2="75.771%"><stop offset="0%" stop-color="#FECF00"/><stop offset="34%" stop-color="#FDC607"/><stop offset="100%" stop-color="#FAA81C"/></linearGradient><linearGradient id="ave" x1="15.225%" x2="107.373%" y1="32.954%" y2="94.013%"><stop offset="0%" stop-color="#6435A5"/><stop offset="24%" stop-color="#6D3AAE"/><stop offset="63%" stop-color="#8747C6"/><stop offset="100%" stop-color="#934ED1"/></linearGradient><path id="ava" d="M12.647 1.345c7.638-2.952 16.32-.946 21.856 5.05l-.018.005.04.043.135.143c.074.078.14.16.21.238a20.049 20.049 0 014.025 7.27c.496 1.655.772 3.368.821 5.094v.043c.005.191.009.373-.065.551v1.236l-.002.001.076.016V34.59a5.863 5.863 0 001.738 4.167 5.961 5.961 0 004.201 1.724H19.845c-6.457.004-12.513-3.107-16.235-8.34l.238.012-.062-.01-.071-.007H3.61a17.388 17.388 0 01-2.417-4.63.155.155 0 000-.043l-.176-.501A19.626 19.626 0 010 20.718v-.984C-.014 11.603 5.01 4.298 12.647 1.345zM26.104 12.69a10.31 10.31 0 00-10.731-1.383c-3.658 1.652-6.004 5.273-5.999 9.26v.507a10.077 10.077 0 00.922 4.218l-.016.006.02-.006.14.284a10.271 10.271 0 006.342 5.222l-.084.017-.071.02.155-.037a10.47 10.47 0 002.823.385H29.86v-6.61l-.06-.057v-4.032c0-.413-.025-.825-.075-1.235-.009-.078-.017-.122-.035-.239-.017-.117-.057-.23-.057-.346a9.545 9.545 0 00-.2-.867l-.02-.08a1.248 1.248 0 00-.042-.168c-.03-.09-.066-.173-.096-.26v-.047a9.881 9.881 0 00-.372-.924l-.043-.09a9.913 9.913 0 00-.411-.777c-.03-.047-.053-.095-.083-.139l-.192-.303-.223-.325-.127-.174c-.355-.475-.751-.92-1.184-1.326l-.14-.13-.175-.16-.008-.026z"/></defs><g fill="none" fill-rule="evenodd"><path d="M103.814 14.942c-4.93-.043-8.605 3.538-8.614 8.398-.009 4.86 3.601 8.392 8.513 8.427 4.912.035 8.6-3.507 8.631-8.358.03-4.851-3.526-8.419-8.53-8.467zm-.088 13.236c-2.74 0-4.65-2.008-4.645-4.838.004-2.831 1.962-4.856 4.72-4.843 2.757.013 4.671 2.012 4.663 4.886-.01 2.874-1.936 4.816-4.738 4.795zm44.462-4.618c2.623-2.414 3.26-5.44 2.037-8.739-1.154-3.121-3.605-4.639-6.892-4.769-4.693-.195-8.211 2.948-8.277 7.37-.026 1.942.573 3.616 2.124 4.868.455.417 1.1.564 1.692.385a1.737 1.737 0 001.192-1.252c.184-.737-.157-1.326-.546-1.911a3.644 3.644 0 01-.083-4.249c1.005-1.552 2.6-1.834 4.313-1.565a3.453 3.453 0 013.007 2.736 4.512 4.512 0 01-1.35 4.725c-.472.433-.984.832-1.5 1.222-2.508 1.917-5.02 3.831-7.533 5.745-.748.572-.98 1.213-.748 1.963a1.991 1.991 0 001.831 1.405h11.048c.2.013.4.013.599 0a1.806 1.806 0 001.67-1.795 1.731 1.731 0 00-.463-1.247 1.754 1.754 0 00-1.216-.556c-.778-.06-1.56-.035-2.342-.04h-3.933l-.053-.138c.267-.195.533-.386.795-.585 1.53-1.184 3.195-2.255 4.628-3.572zm-88.64-7.924a9.613 9.613 0 00-7.364.039c-5.366 2.09-6.38 9.537-2.818 13.413 2.81 3.065 8.334 3.767 10.82.585.048.076.089.156.123.239.38 1.196 1.123 1.734 2.185 1.582 1.062-.152 1.63-.915 1.634-2.098 0-2.432.066-4.869-.026-7.3-.127-3.092-1.683-5.277-4.554-6.46zm.586 9.073c-.437 2.259-1.95 3.469-4.252 3.469-2.37 0-4.222-1.366-4.585-3.538a7.534 7.534 0 01.04-2.748c.515-2.367 2.678-3.69 5.296-3.364 2.517.307 3.632 1.712 3.667 4.582-.053.524-.066 1.058-.166 1.6zm107.65-1.851c-.83 0-1.66.135-2.53.208v-1.24c0-1.564-.507-2.21-1.748-2.21s-1.77.65-1.77 2.167v1.37l-3.65-.386c.119-.195.224-.381.342-.563 1.923-2.925 3.846-5.851 5.768-8.779.18-.253.337-.521.468-.802.226-.491.224-1.055-.006-1.545s-.663-.854-1.187-1c-.874-.286-1.783.074-2.377 1.032-2.535 4.084-5.07 8.172-7.57 12.277-.992 1.622-.152 3.035 1.749 3.065h4.754c1.18 0 1.543.369 1.582 1.552.022.663 0 1.331.035 1.994.088 1.045.822 1.635 1.914 1.609.477.028.944-.144 1.287-.474.343-.33.531-.787.518-1.26.022-.62 0-1.24.022-1.86.066-1.231.415-1.552 1.648-1.57h.738c1.276-.026 2.006-.684 2.002-1.812-.005-1.127-.721-1.79-1.989-1.773zm-43.955-7.907c-4.523-.212-8.203 2.883-8.373 7.322-.157 4.136-.061 8.28-.04 12.42-.009.485.18.953.522 1.298.343.345.812.538 1.3.536a1.84 1.84 0 001.967-1.613c.05-.372.073-.747.066-1.122V29.76a16.606 16.606 0 002.33 1.487 7.265 7.265 0 005.423.052c5.545-1.96 6.511-9.19 3.644-13.036-1.7-2.272-4.073-3.178-6.839-3.312zm4.265 10.092c-.52 2.016-2.124 3.174-4.221 3.19-2.098.018-3.811-1.096-4.37-2.938a13.8 13.8 0 01-.302-1.817h.061c.022-.373 0-.754.075-1.123.375-2.505 1.957-3.901 4.37-3.845 2.412.057 4.34 1.635 4.562 4.032a7.313 7.313 0 01-.175 2.501zM92.346 14.938h-9.675c-1.037.049-1.853.897-1.853 1.927s.816 1.878 1.853 1.927h3.033v11.029a1.937 1.937 0 001.942 1.837 1.938 1.938 0 001.943-1.837V18.792h2.757a1.948 1.948 0 001.761-.936 1.917 1.917 0 000-1.982 1.948 1.948 0 00-1.76-.936zM79.17 24.15a6.047 6.047 0 00-3.339-1.374h-.03l.03-.03a5.274 5.274 0 002.815-1.3 3.225 3.225 0 001.036-2.416c0-2.73-2.524-4.096-7.57-4.096-1.057 0-2.202.052-3.435.156a1.89 1.89 0 00-1.31.628 1.96 1.96 0 00-.503 1.349v12.571c-.006.494.175.972.507 1.34.317.379.776.612 1.271.646 1.338.108 2.575.16 3.72.16 5.346 0 8.017-1.65 8.014-4.95a3.457 3.457 0 00-1.206-2.684zm-8.106-6.134a.299.299 0 01.253-.316 14.1 14.1 0 011.145-.065c2.185 0 3.278.631 3.278 1.894a1.731 1.731 0 01-.91 1.543 4.57 4.57 0 01-2.464.568h-1.014c-.192 0-.288-.082-.288-.251v-3.373zm1.481 11.029a8.835 8.835 0 01-1.206-.061c-.192-.043-.289-.148-.289-.317V24.48c0-.17.097-.252.289-.252h1.11c2.587 0 3.88.768 3.88 2.302.01 1.676-1.252 2.515-3.784 2.515z" fill="#FFF" fill-rule="nonzero"/><g transform="translate(0 1)"><mask id="avd" fill="#fff"><use xlink:href="#ava"/></mask><use fill="url(#avb)" fill-rule="nonzero" xlink:href="#ava"/><path fill="url(#avc)" fill-rule="nonzero" d="M41.115 21.166c-3.273-.741-7.118 1.101-10.863 3.499-8.108 4.347-12.468 6.435-13.08 6.264A41.84 41.84 0 014 32.273c3.722 5.233 9.778 12.345 16.235 12.34l25.82-4c-1.576.002-2.088-.619-3.202-1.724a5.863 5.863 0 01-1.738-4.167V21.166z" mask="url(#avd)"/><path fill="url(#ave)" fill-rule="nonzero" d="M10.296 25.292a10.077 10.077 0 01-.922-4.218v-.507c-.005-3.987 2.341-7.608 5.999-9.26a10.312 10.312 0 0110.98 1.59 13.358 13.358 0 018.15-6.502C28.966.4 20.285-1.607 12.647 1.345 5.009 4.298-.014 11.603 0 19.735v.983c-.002 2.3.402 4.584 1.193 6.746a36.043 36.043 0 009.103-2.172z" mask="url(#avd)"/></g></g></svg><svg viewBox="0 0 20 16" id="mail" xmlns="http://www.w3.org/2000/svg"><path fill="#f75db8" d="M17.331 14.465H1.885a.378.378 0 01-.376-.378V4.004l6.774 6.771c.354.354.825.549 1.325.549.501 0 .97-.195 1.325-.55l6.771-6.769v10.082a.376.376 0 01-.373.378zM1.885 1.498H17.33a.37.37 0 01.373.37v.017l-7.831 7.82a.373.373 0 01-.53 0L1.509 1.884v-.015c0-.207.169-.371.376-.371zm17.306.376A1.876 1.876 0 0017.316 0H1.875A1.874 1.874 0 000 1.874v12.214c0 1.035.84 1.874 1.875 1.874h15.441a1.874 1.874 0 001.875-1.874z"/></svg><svg viewBox="0 0 7 5" id="mark" xmlns="http://www.w3.org/2000/svg"><path fill="#FFF" fill-rule="evenodd" d="M1.312 1.269a.784.784 0 00-1.1.03.765.765 0 00.031 1.087l2.691 2.52 3.823-3.578a.763.763 0 00.03-1.087.783.783 0 00-1.1-.031L2.935 2.787 1.312 1.27z"/></svg><svg viewBox="0 0 17 23" id="password" xmlns="http://www.w3.org/2000/svg"><path fill="#f75db8" d="M15.222 20.788a.441.441 0 01-.44.445H2.234a.455.455 0 01-.455-.445V11.37h13.444zM4.095 6.179a4.405 4.405 0 014.4-4.4c2.426 0 4.4 1.972 4.4 4.396v3.41h-8.8zm12.023 3.415h-1.435V6.181A6.188 6.188 0 008.5 0a6.19 6.19 0 00-6.183 6.185v3.41H.898a.89.89 0 00-.898.88v10.313a2.233 2.233 0 002.233 2.221h12.55A2.219 2.219 0 0017 20.788V10.475a.876.876 0 00-.882-.88z"/><path fill="#f75db8" d="M8.503 18.981a.886.886 0 00.883-.89V14.89a.886.886 0 00-.883-.89.886.886 0 00-.883.89v3.202c0 .491.395.89.883.89z"/></svg><svg viewBox="0 0 24 24" id="policy-check" xmlns="http://www.w3.org/2000/svg"><path fill="#f75db8" d="M0 2a2 2 0 012-2h20a2 2 0 012 2v20a2 2 0 01-2 2H2a2 2 0 01-2-2z"/><path fill="#fff" d="M8.437 9.383a1.444 1.444 0 10-1.985 2.099l4.998 4.73 7.098-6.718a1.445 1.445 0 00-1.985-2.099l-5.113 4.84z"/></svg><svg viewBox="0 0 22 16" id="sandwich" xmlns="http://www.w3.org/2000/svg"><path fill="#fff" d="M0 0h22v3H0zM0 7h15v3H0zM0 13h7v3H0z"/></svg><svg viewBox="0 0 17 11" id="vk" xmlns="http://www.w3.org/2000/svg"><path fill="#fff" d="M16.91 9.611a1.212 1.212 0 00-.058-.114c-.295-.548-.858-1.22-1.69-2.017l-.018-.018-.009-.01-.009-.008h-.009c-.377-.371-.616-.62-.716-.749-.184-.243-.225-.49-.125-.739.071-.189.337-.587.797-1.195.242-.323.434-.581.575-.776 1.021-1.4 1.464-2.293 1.328-2.683l-.053-.09c-.035-.056-.127-.106-.274-.151a1.353 1.353 0 00-.567-.023l-2.549.018a.321.321 0 00-.177.005l-.115.027-.044.023-.035.027a.399.399 0 00-.098.096.631.631 0 00-.088.16 15.11 15.11 0 01-.947 2.053c-.219.377-.42.704-.602.981-.183.277-.337.48-.46.611a3.164 3.164 0 01-.337.315c-.1.08-.177.113-.23.1a6.287 6.287 0 01-.15-.036.6.6 0 01-.2-.224 1.024 1.024 0 01-.101-.356 4.047 4.047 0 01-.031-.37 7.964 7.964 0 01.004-.437c.006-.189.01-.317.01-.383 0-.232.003-.483.012-.753l.022-.644c.006-.158.01-.325.01-.502a2.13 2.13 0 00-.032-.415c-.02-.1-.051-.197-.092-.292A.488.488 0 009.67.823 1.005 1.005 0 009.374.7 5.773 5.773 0 008.179.58C7.08.57 6.376.642 6.063.801a1.199 1.199 0 00-.336.273c-.106.134-.121.207-.045.22.355.054.605.185.753.391l.053.11c.041.08.083.22.124.42.041.2.068.423.08.666.029.444.029.824 0 1.14a14 14 0 01-.085.74 1.515 1.515 0 01-.225.63.155.155 0 01-.044.045.645.645 0 01-.24.046c-.082 0-.182-.043-.3-.128a2.15 2.15 0 01-.368-.351A4.697 4.697 0 015 4.377a11.02 11.02 0 01-.495-.949l-.141-.264A23.03 23.03 0 014 2.42a13.74 13.74 0 01-.407-.945.6.6 0 00-.213-.292l-.044-.027a.918.918 0 00-.345-.137l-2.425.018c-.248 0-.416.058-.505.174l-.035.054A.303.303 0 000 1.412c0 .066.018.149.053.246.354.858.74 1.685 1.155 2.482a28.33 28.33 0 001.084 1.925c.307.487.62.947.939 1.378.318.432.53.71.632.83.104.123.185.214.244.275l.221.219c.142.146.35.32.624.524.275.204.578.405.912.603.333.197.721.359 1.164.483a3.91 3.91 0 001.292.151h1.018c.206-.018.363-.085.47-.2l.034-.047a.615.615 0 00.067-.168.954.954 0 00.03-.251 3.097 3.097 0 01.058-.707 1.9 1.9 0 01.15-.475 1.165 1.165 0 01.342-.401.57.57 0 01.07-.032c.142-.049.309-.002.5.141.192.143.372.32.54.53.169.21.37.445.607.707.236.261.442.456.62.584l.176.11c.118.072.272.14.46.2a.97.97 0 00.496.046l2.266-.037c.224 0 .399-.038.522-.114.124-.076.198-.16.222-.25a.728.728 0 00.004-.311 1.173 1.173 0 00-.062-.242z"/></svg><svg viewBox="0 0 17 13" id="yt" xmlns="http://www.w3.org/2000/svg"><path fill="#fff" d="M10.942 7.21l-4.72 1.916c-.127.05-.272-.027-.272-.146V5.027c0-.12.15-.198.275-.144l4.721 2.037c.14.06.138.231-.004.29zM13.469.58H3.531A3.526 3.526 0 000 4.102v4.956a3.526 3.526 0 003.53 3.522h9.94c1.95 0 3.53-1.577 3.53-3.522V4.102A3.526 3.526 0 0013.47.58z"/></svg></svg>