<svg xmlns="http://www.w3.org/2000/svg" viewBox="0 0 472 203.4">
    <path fill="#FF8C00" d="M239.3,148.5h9.8c4.8,0,7.9,2.1,7.9,6.1c0,2.3-1.2,4.3-3.4,5.2v0c3,0.7,4.5,3,4.5,5.6c0,4.4-3.6,6.7-8.7,6.7h-10.1V148.5z M248.3,158.6c2.7,0,4.1-1.4,4.1-3.6c0-2.2-1.4-3.3-4.2-3.3h-4.3v6.9H248.3z M248.7,169.1c3.3,0,4.8-1.5,4.8-3.7c0-2.3-1.7-3.7-4.9-3.7h-4.8v7.4H248.7z"></path>
    <path fill="#FF8C00" d="M274.8,148c3.1,0,6.7,1.1,8.9,3.5l-2.2,3.2c-1.6-1.6-4.1-2.7-6.6-2.7c-4.8,0-8.2,3.6-8.2,8.4c0,4.8,3.5,8.5,8.4,8.5c2.6,0,5.5-1.3,7.3-3.2l1.8,3.3c-2.2,2.3-5.8,3.8-9.5,3.8c-7.5,0-12.7-5.3-12.7-12.4C262.1,153.4,267.4,148,274.8,148"></path>
    <path fill="#FF8C00" d="M299,148c6.7,0,10.3,5,10.3,11.1c0,0.6-0.1,1.3-0.2,1.9h-17.2c0.2,5.1,3.9,7.9,8.2,7.9c2.5,0,5.1-1.1,7-2.8l1.9,3.3c-2.3,2.1-5.9,3.4-9.2,3.4c-7.5,0-12.6-5.4-12.6-12.4C287.1,152.9,292.3,148,299,148 M304.7,157.7c-0.1-4.1-2.7-6.2-5.8-6.2c-3.5,0-6.3,2.3-6.9,6.2H304.7z M293,139.1h3.7v4.7H293V139.1z M300.8,139.1h3.7v4.7h-3.7V139.1z"></path>
    <polygon fill="#FF8C00" points="326.5,148.5 347.2,148.5 347.2,172.3 342.6,172.3 342.6,152.4 331,152.4 331,172.3 326.5,172.3"></polygon>
    <path fill="#FF8C00" d="M354.2,148.5h4.2v2.1c0,1-0.1,1.8-0.1,1.8h0.1c1.5-2.9,4.5-4.5,8-4.5c6.4,0,10.4,5.1,10.4,12.4c0,7.5-4.5,12.4-10.7,12.4c-3,0-5.7-1.5-7.4-4h-0.1c0,0,0.2,0.8,0.2,2.1v10.8h-4.5V148.5z M365.3,168.9c3.8,0,6.8-3,6.8-8.4c0-5.2-2.8-8.5-6.7-8.5c-3.6,0-6.8,2.5-6.8,8.5C358.6,164.7,361,168.9,365.3,168.9"></path>
    <path fill="#FF8C00" d="M393.6,148c7.1,0,12.8,5.2,12.8,12.4c0,7.2-5.7,12.5-12.7,12.5c-7.1,0-12.8-5.2-12.8-12.5C380.8,153.2,386.6,148,393.6,148 M393.6,168.9c4.5,0,8.2-3.6,8.2-8.5c0-4.9-3.7-8.4-8.2-8.4c-4.5,0-8.2,3.5-8.2,8.4C385.5,165.3,389.1,168.9,393.6,168.9"></path>
    <polygon fill="#FF8C00" points="410.9,148.5 415.3,148.5 415.3,168.3 424.1,168.3 424.1,148.5 428.5,148.5 428.5,168.3 437.2,168.3 437.2,148.5 441.6,148.5 441.6,168.3 445,168.3 445,177.9 440.8,177.9 440.8,172.3 410.9,172.3"></polygon>
    <path fill="#FF8C00" d="M459.9,148c6.7,0,10.3,5,10.3,11.1c0,0.6-0.1,1.3-0.2,1.9h-17.2c0.2,5.1,3.9,7.9,8.2,7.9c2.5,0,5.1-1.1,7-2.8l1.9,3.3c-2.3,2.1-5.9,3.4-9.2,3.4c-7.5,0-12.6-5.4-12.6-12.4C448,152.9,453.1,148,459.9,148 M465.5,157.7c-0.1-4.1-2.7-6.2-5.8-6.2c-3.5,0-6.3,2.3-6.9,6.2H465.5z"></path>
    <path fill="#0023A0" d="M261.8,93.5c10.6,0,17-9.2,17-24.2c0-15.3-6.3-24.2-17-24.2c-10.4,0-17.1,8.9-17.1,24.2C244.7,84.3,251.4,93.5,261.8,93.5 M291.3,127c-0.7,0.5-1.4,0.4-2-0.2l-5.3-7c-4.8-6.5-10.9-10.5-22.3-10.5c-21.5,0-34.9-15.4-34.9-40c0-24.6,13.5-40.1,34.9-40.1c21.5,0,34.8,15.4,34.8,40.1c0,12.5-4.4,25.2-11.7,29.6c-1.3,0.8-1.3,1.1,0,1.5c6.4,2.3,9.3,5,12.7,9.4l4.9,6.7c0.5,0.7,0.4,1.4-0.2,2L291.3,127z"></path>
    <path fill="#0023A0" d="M326.5,106.6c0,0.9-0.5,1.4-1.4,1.4h-14.9c-0.9,0-1.4-0.5-1.4-1.4V31.8c0-0.9,0.5-1.4,1.4-1.4h14.9c0.9,0,1.4,0.5,1.4,1.4V106.6z"></path>
    <path fill="#0023A0" d="M427.9,84.5c-2,7.6-3.6,14.8-5,22.2c-0.1,0.9-0.7,1.3-1.5,1.3h-20c-0.9,0-1.4-0.4-1.5-1.3c-1.2-6.3-2.4-12.2-3.9-18.2l-3.4-14.2c-0.7-2.8-1.5-7.4-2.2-11.3c-0.2-1.5-1.5-1.5-1.8,0c-0.7,3.8-1.5,8.3-2.2,11.3l-3.4,14.2c-1.4,6-2.6,11.8-3.9,18.2c-0.1,0.9-0.7,1.3-1.5,1.3h-20c-0.9,0-1.4-0.4-1.5-1.3c-1.4-7.4-3.1-14.7-5-22.2L337.3,32c-0.3-0.9,0.2-1.5,1.2-1.5h15.1c0.9,0,1.4,0.4,1.6,1.2l7.4,29.6c1.9,7.4,3.4,17,4.1,24.1c0.1,1.4,1.8,1.5,2,0c1-7,2.7-16.6,4.8-24.1l8-29.6c0.2-0.8,0.8-1.2,1.5-1.2h12.5c0.8,0,1.3,0.4,1.5,1.2l8.1,29.6c2.1,7.4,3.8,17.1,4.8,24.1c0.1,1.5,1.8,1.4,1.9,0c0.5-7.1,2.2-16.6,4-24.1l7.4-29.6c0.2-0.8,0.8-1.2,1.6-1.2h15.1c1,0,1.5,0.7,1.2,1.5L427.9,84.5z"></path>
    <path fill="#0023A0" d="M469.9,106.6c0,0.9-0.5,1.4-1.4,1.4h-14.9c-0.9,0-1.4-0.5-1.4-1.4V31.8c0-0.9,0.5-1.4,1.4-1.4h14.9c0.9,0,1.4,0.5,1.4,1.4V106.6z"></path>
    <path fill="#FF8C00" d="M197.1,200c1.8,2.3-1,4.6-3,2.7c-20.8-18.4-38.3-23.7-55.6-24.4c-9.2-0.4-18.3,0.5-27.9,1.3c-1.9,0.2-3.8,0.3-5.8,0.5c-0.8,0.1-1.7,0.1-2.6,0.2c-3.4,0.4-6.8,0.6-10.2,0.6c-16.3,0-31.7-4-45.7-11.9c-14.1-7.9-25.3-18.9-33.3-32.8c-8-13.8-12-29.1-12-45.4c0-16.3,4-31.7,12-45.6c8-14,19-25.1,32.9-33.1C59.7,4,74.8,0,90.7,0c16.7,0,32.2,4,46.3,11.9c14.1,7.9,25.3,19,33.4,32.9c8.1,13.9,12.1,29.2,12.1,45.6c0,6.3-0.6,12.4-1.8,18.4c-0.2,0.9-0.4,1.9-0.7,3.1c-0.2,1-0.5,2-0.8,2.9l-0.1,0c-1.6,5.2-4.6,12.5-10.2,21.9c-0.6,1-0.9,0.2-1-0.3c-2-13.8-8-24.3-18.7-31.1c-0.2-0.1-0.4-0.2-0.5-0.3c-1.7-1.1-3.6-2.1-5.6-2.9c-2.5-1.1-5.3-2.1-8.2-2.9c-1.8-0.5-5.8-0.3-4.4-1.7c0.6-0.6,9.3-0.7,19.4-0.1c0.2,0,0.4,0,0.6,0c0.2-2.1,0.3-4.3,0.3-6.5c0-17.2-5.7-31.3-17.4-42.9c-11.7-11.7-25.5-17.3-42-17.3c-16.9,0-30.6,5.7-41.9,17.4C38.1,59.7,32.6,73.7,32.6,90.6c0,16.9,5.7,30.7,17.3,42.4c11.7,11.7,25.2,17.3,41.4,17.3c0.8,0,1.5,0,2.3,0c0-0.2,0-0.4,0-0.6c-0.9-11.9-1.1-21.8,1.3-17.8c0.9,1.4,1.7,2.7,2.6,4c3.2,4.8,6.4,8.7,9.5,12c0.2,0.2,0.3,0.3,0.5,0.5c11.5,11.7,22.8,14.6,34.9,17.5c0.3,0.1,0.5,0.1,0.8,0.2c2,0.5,4,1,6,1.5C163.5,171.4,179,177.5,197.1,200M157.3,128.1c-1.8-0.5-3.1-0.1-3.8,1.1c-1,1.8-0.3,5.4,1.7,8.5c2,3.2,3.8,4.8,5.1,4.8c0.5,0,0.9-0.2,1.2-0.6c0.8-0.9,1-2.7,0.7-5C162,134.5,160.6,129.6,157.3,128.1 M137.3,142.9c-1.8,0-3.3,0.6-4.3,1.8c-2.4,2.9-1.3,8.1,2.3,11.3c1.6,1.4,3.9,2.2,6.2,2.2c2.3,0,4.2-0.9,5.4-2.4c2.1-2.9,0.9-6.9-3.1-10.3C141.8,143.8,139.5,142.9,137.3,142.9"></path>
</svg>