<svg width="15" height="15" viewBox="0 0 15 15" fill="none" xmlns="http://www.w3.org/2000/svg">
<path fill-rule="evenodd" clip-rule="evenodd" d="M1.9775 0.292438C1.5875 -0.0975616 0.9575 -0.0975616 0.5675 0.292438C0.1775 0.682438 0.1775 1.31244 0.5675 1.70244L6.2275 7.36244L0.5675 13.0224C0.177499 13.4124 0.177499 14.0424 0.567499 14.4324C0.9575 14.8224 1.5875 14.8224 1.9775 14.4324L7.6375 8.77244L13.2875 14.4424C13.6775 14.8324 14.3075 14.8324 14.6975 14.4424C15.0875 14.0524 15.0875 13.4224 14.6975 13.0324L9.0475 7.36244L14.7075 1.71244C15.0975 1.32244 15.0975 0.682439 14.7075 0.292439C14.3175 -0.0975611 13.6775 -0.0975611 13.2875 0.292439L7.6375 5.95244L1.9775 0.292438Z" fill="#93A1C8"/>
</svg>
