<svg width="181" height="180" viewBox="0 0 181 180" fill="none" xmlns="http://www.w3.org/2000/svg">
<path d="M90.3407 180C140.046 180 180.341 139.856 180.341 90.3353C180.341 40.8148 140.046 0.670563 90.3407 0.670563C40.6351 0.670563 0.340698 40.8148 0.340698 90.3353C0.340698 139.856 40.6351 180 90.3407 180Z" fill="#7D2AEB"/>
<path d="M90.3406 171.129C135.129 171.129 171.437 134.957 171.437 90.3352C171.437 45.7139 135.129 9.5412 90.3406 9.5412C45.5525 9.5412 9.24451 45.7139 9.24451 90.3352C9.24451 134.957 45.5525 171.129 90.3406 171.129Z" fill="url(#paint0_linear_7958_86458)"/>
<path d="M169.666 90.3353C169.666 133.983 134.143 169.374 90.3406 169.374C46.5295 169.374 11.0067 133.992 11.0067 90.3353C11.0067 46.6874 46.5211 11.2969 90.3406 11.2969C134.152 11.2969 169.666 46.6874 169.666 90.3353Z" fill="url(#paint1_radial_7958_86458)"/>
<path d="M169.666 90.3353C169.666 133.983 134.143 169.374 90.3406 169.374C46.5295 169.374 11.0067 133.992 11.0067 90.3353C11.0067 46.6874 46.5211 11.2969 90.3406 11.2969C134.152 11.2969 169.666 46.6874 169.666 90.3353Z" fill="white"/>
<path d="M32.6087 144.542L90.3406 90.3353L14.3372 113.05C17.9207 124.97 24.2613 135.714 32.6087 144.542Z" fill="#F2EAFD"/>
<path d="M90.3406 169.365C96.6222 169.365 102.735 168.634 108.595 167.257L90.3406 90.3353L72.0859 167.265C77.946 168.634 84.059 169.365 90.3406 169.365Z" fill="#F2EAFD"/>
<path d="M166.336 113.041L90.3406 90.3353L148.064 144.542C156.42 135.714 162.752 124.97 166.336 113.041Z" fill="#F2EAFD"/>
<path d="M148.064 36.1283L90.3406 90.3354L166.344 67.621C162.752 55.701 156.42 44.957 148.064 36.1283Z" fill="#F2EAFD"/>
<path d="M14.3372 67.621L90.3406 90.3354L32.6087 36.1283C24.2613 44.957 17.9207 55.701 14.3372 67.621Z" fill="#F2EAFD"/>
<path d="M90.3406 11.297C84.0589 11.297 77.9459 12.0279 72.0775 13.4055L90.3321 90.3354L108.587 13.4055C102.735 12.0279 96.6222 11.297 90.3406 11.297Z" fill="#F2EAFD"/>
<g filter="url(#filter0_d_7958_86458)">
<path d="M106.357 90.1754C106.357 99.036 99.1709 106.205 90.29 106.205C81.4091 106.205 74.2234 99.036 74.2234 90.1754C74.2234 81.3148 81.4091 74.1456 90.29 74.1456C99.1456 74.1456 106.357 81.3148 106.357 90.1754Z" fill="#7D2AEB"/>
</g>
<path d="M31.7292 53.229L31.7664 54.0194L32.5188 53.926L30.6259 57.1924L31.3263 57.5952L33.7961 53.3331L33.2907 53.0424L31.7292 53.229Z" fill="#0D1D4A"/>
<path d="M34.7413 56.7262C33.9884 58.0255 33.9446 59.166 34.925 59.7299C35.8993 60.2904 36.8444 59.6683 37.5974 58.369C38.3503 57.0698 38.4063 55.9363 37.432 55.3759C36.4515 54.8119 35.4943 55.427 34.7413 56.7262ZM35.4904 57.1571C36.085 56.131 36.5709 55.7549 37.052 56.0316C37.5392 56.3118 37.4631 56.8914 36.8544 57.9417C36.2457 58.992 35.7886 59.3605 35.3015 59.0803C34.8447 58.8176 34.8887 58.1953 35.4904 57.1571Z" fill="#0D1D4A"/>
<path d="M38.1132 58.6658C37.3603 59.965 37.3164 61.1055 38.2969 61.6694C39.2712 62.2299 40.2163 61.6078 40.9692 60.3085C41.7222 59.0093 41.7782 57.8758 40.8039 57.3154C39.8234 56.7514 38.8661 57.3665 38.1132 58.6658ZM38.8622 59.0966C39.4568 58.0705 39.9428 57.6944 40.4239 57.9711C40.911 58.2513 40.835 58.8309 40.2263 59.8812C39.6176 60.9315 39.1605 61.3 38.6733 61.0198C38.2166 60.7571 38.2606 60.1348 38.8622 59.0966Z" fill="#0D1D4A"/>
<path d="M41.4851 60.6053C40.7322 61.9045 40.6883 63.045 41.6688 63.6089C42.6431 64.1694 43.5882 63.5473 44.3411 62.248C45.0941 60.9488 45.1501 59.8153 44.1757 59.2549C43.1953 58.6909 42.238 59.306 41.4851 60.6053ZM42.2341 61.0361C42.8287 60.01 43.3147 59.6339 43.7958 59.9106C44.2829 60.1908 44.2069 60.7704 43.5982 61.8207C42.9895 62.871 42.5324 63.2395 42.0452 62.9593C41.5885 62.6966 41.6325 62.0743 42.2341 61.0361Z" fill="#0D1D4A"/>
<path d="M44.3463 66.7033L45.0466 67.1061L45.789 65.8251C45.8946 66.0072 46.1074 66.1863 46.351 66.3264C47.2279 66.8308 48.1733 66.5165 48.6553 65.6848C49.1232 64.8773 48.9738 64.0142 48.2187 63.5799C47.8655 63.3767 47.4583 63.3368 47.1823 63.4209L47.3336 63.1598L46.6333 62.757L44.3463 66.7033ZM47.6195 64.1095C48.0823 64.3757 48.1551 64.8385 47.9018 65.2757C47.6379 65.731 47.1538 65.922 46.6666 65.6418C46.4352 65.5087 46.298 65.3812 46.1795 65.1512L46.8199 64.0462C47.0995 63.9561 47.382 63.9729 47.6195 64.1095Z" fill="#0D1D4A"/>
<path d="M52.5648 66.1688L51.767 65.7099L50.4118 66.9137C50.2821 67.0253 50.1804 67.1448 50.0821 67.2583C50.1169 67.1002 50.1543 66.9517 50.1769 66.7866L50.403 64.9253L49.5626 64.4419L49.246 67.9026L49.1006 68.0133C48.8196 68.2321 48.6108 68.2982 48.4342 68.1966C48.3246 68.1335 48.2527 68.0193 48.2043 67.9348L47.6728 68.3334C47.7643 68.5398 47.8907 68.7421 48.1404 68.8857C48.5423 69.1168 48.9353 69.0272 49.9037 68.2809L52.5648 66.1688Z" fill="#0D1D4A"/>
<path d="M55.9611 66.0095C55.4849 66.1728 55.23 65.8561 54.4793 65.7643C53.4375 65.6427 52.6876 66.4742 52.1704 67.3667C51.5547 68.4292 51.734 69.4228 52.6536 69.9517C53.5183 70.4491 54.4637 70.1348 54.907 69.3698C55.382 68.5502 55.1913 67.7443 54.4362 67.31C54.0343 67.0788 53.5214 67.0671 53.1785 67.2665L53.1663 67.2595C53.4587 66.853 53.8467 66.5338 54.3481 66.5793C55.0292 66.623 55.3902 67.0087 55.9958 66.7904L55.9611 66.0095ZM52.835 67.9432C53.0882 67.7165 53.4934 67.6338 53.8831 67.858C54.3276 68.1137 54.3761 68.5625 54.1404 68.9693C53.9117 69.3639 53.4563 69.5472 53.0118 69.2915C52.5672 69.0358 52.535 68.4749 52.835 67.9432Z" fill="#0D1D4A"/>
<path d="M56.4508 72.0468L57.1511 72.4496L58.7344 69.7175L56.6578 68.5231L56.1226 69.3486C55.4495 70.3699 54.9966 70.4089 54.7732 70.248L54.44 70.963C55.1769 71.3869 55.7217 71.2874 56.7176 69.877L56.9048 69.5961L57.6295 70.0129L56.4508 72.0468Z" fill="#0D1D4A"/>
<path d="M60.5239 73.3697C60.2917 73.4061 59.9412 73.3664 59.6063 73.1737C59.1739 72.925 58.9753 72.5113 59.1536 72.0634L61.1327 73.2018C61.223 73.1161 61.295 73.0199 61.3935 72.8499C61.8368 72.0849 61.5381 71.2412 60.8317 70.8349C59.9305 70.3165 59.013 70.6387 58.5521 71.4341C58.0525 72.2962 58.3124 73.2067 59.1954 73.7146C59.5791 73.9352 60.0321 74.0501 60.4399 73.977L60.5239 73.3697ZM60.4635 71.4002C60.8654 71.6314 60.9456 72.0256 60.746 72.356L59.4002 71.5819C59.6808 71.2657 60.0434 71.1585 60.4635 71.4002Z" fill="#0D1D4A"/>
<path d="M61.7712 75.1071L64.0528 74.1124L63.05 75.8427L63.7503 76.2455L65.3336 73.5134L64.6333 73.1106L62.3518 74.1053L63.3545 72.375L62.6542 71.9722L61.0709 74.7043L61.7712 75.1071ZM63.8538 70.8408C63.5477 71.369 63.5825 71.9395 64.2645 72.3318C64.8796 72.6856 65.439 72.4488 65.7416 71.9267L65.1022 71.5589C64.972 71.7835 64.7601 71.9531 64.553 71.834C64.3216 71.7009 64.363 71.4333 64.4932 71.2086L63.8538 70.8408Z" fill="#0D1D4A"/>
<path d="M57.6181 36.9323L58.0228 37.6305L60.7631 36.0543L60.3585 35.3561L59.3232 35.9516L58.6301 34.7555L59.6654 34.1601L59.2607 33.4619L56.5204 35.0381L56.925 35.7363L57.9724 35.1338L58.6656 36.3299L57.6181 36.9323Z" fill="#0D1D4A"/>
<path d="M60.4813 40.1076C60.2619 40.0233 59.9783 39.8141 59.7848 39.4801C59.535 39.0491 59.5703 38.5916 59.9492 38.2927L61.0927 40.2659C61.2138 40.2367 61.3244 40.1893 61.4949 40.0912C62.2622 39.6499 62.4263 38.7702 62.0182 38.066C61.4975 37.1674 60.5414 36.9888 59.7437 37.4476C58.8789 37.945 58.6478 38.8632 59.158 39.7435C59.3796 40.126 59.7144 40.4516 60.1041 40.5917L60.4813 40.1076ZM61.416 38.3719C61.6482 38.7726 61.52 39.1539 61.1816 39.3405L60.404 37.9987C60.8055 37.8649 61.1732 37.953 61.416 38.3719Z" fill="#0D1D4A"/>
<path d="M62.1437 40.0479L62.6644 40.9464L60.6244 42.1198L61.029 42.818L63.069 41.6446L63.5862 42.5371L64.2865 42.1343L62.844 39.645L62.1437 40.0479Z" fill="#0D1D4A"/>
<path d="M64.7007 47.0382C64.4038 46.9743 64.13 46.8241 63.9576 46.5266C63.7184 46.1138 63.7986 45.5657 64.2858 45.2855C64.7669 45.0088 65.2799 45.2075 65.505 45.5961C65.6493 45.845 65.7125 46.1082 65.6312 46.4302L66.3753 46.4393C66.4833 46.0372 66.3703 45.576 66.1099 45.1267C65.6279 44.2949 64.6508 44.0799 63.853 44.5387C62.9883 45.0361 62.7607 45.9604 63.2743 46.8468C63.5312 47.29 63.9349 47.6083 64.3791 47.6603L64.7007 47.0382Z" fill="#0D1D4A"/>
<path d="M68.535 49.4656L68.0249 48.5852L66.0969 48.3828L65.3408 50.2586L65.8686 51.1693L66.6232 49.1648L68.535 49.4656ZM64.2959 48.4554L64.7005 49.1536L67.4408 47.5774L67.0362 46.8792L64.2959 48.4554Z" fill="#0D1D4A"/>
<path d="M66.5112 52.2782L68.9856 52.5549L67.2501 53.5532L67.6547 54.2514L70.395 52.6751L69.9904 51.9769L67.516 51.7003L69.2515 50.702L68.8469 50.0038L66.1066 51.58L66.5112 52.2782Z" fill="#0D1D4A"/>
<path d="M67.2769 55.0706L67.6534 55.7203L68.2928 55.3525L69.4151 57.2892L68.7757 57.657L69.1557 58.3127L70.4467 57.5701L70.1828 57.1148L72.2716 55.9133L71.1035 53.8977L70.4212 54.2335C69.7789 54.5543 69.1368 54.7213 68.7685 54.6741L68.5679 54.328L67.2769 55.0706ZM70.5316 55.0685L70.8223 54.9256L71.2093 55.5934L69.7782 56.4166L69.1907 55.4027C69.4315 55.426 69.9214 55.3466 70.5316 55.0685Z" fill="#0D1D4A"/>
<path d="M74.3005 59.4144L73.7903 58.5341L71.8624 58.3317L71.1063 60.2075L71.6341 61.1182L72.3886 59.1137L74.3005 59.4144ZM70.0613 58.4043L70.466 59.1025L73.2063 57.5263L72.8017 56.8281L70.0613 58.4043Z" fill="#0D1D4A"/>
<path d="M72.2767 62.2271L74.7511 62.5038L73.0155 63.502L73.4202 64.2002L76.1605 62.624L75.7559 61.9258L73.2815 61.6491L75.017 60.6508L74.6124 59.9526L71.8721 61.5289L72.2767 62.2271Z" fill="#0D1D4A"/>
<path d="M105.161 120.143L105.566 120.841L108.306 119.265L107.902 118.567L106.866 119.162L106.173 117.966L107.208 117.371L106.804 116.673L104.064 118.249L104.468 118.947L105.516 118.344L106.209 119.541L105.161 120.143Z" fill="#0D1D4A"/>
<path d="M108.024 123.318C107.805 123.234 107.521 123.025 107.328 122.691C107.078 122.26 107.113 121.802 107.492 121.503L108.636 123.477C108.757 123.447 108.867 123.4 109.038 123.302C109.805 122.861 109.969 121.981 109.561 121.277C109.041 120.378 108.085 120.199 107.287 120.658C106.422 121.156 106.191 122.074 106.701 122.954C106.923 123.337 107.258 123.662 107.647 123.802L108.024 123.318ZM108.959 121.583C109.191 121.983 109.063 122.365 108.725 122.551L107.947 121.209C108.349 121.076 108.716 121.164 108.959 121.583Z" fill="#0D1D4A"/>
<path d="M109.687 123.259L110.207 124.157L108.167 125.33L108.572 126.029L110.612 124.855L111.129 125.748L111.83 125.345L110.387 122.856L109.687 123.259Z" fill="#0D1D4A"/>
<path d="M112.244 130.249C111.947 130.185 111.673 130.035 111.501 129.737C111.261 129.324 111.342 128.776 111.829 128.496C112.31 128.219 112.823 128.418 113.048 128.807C113.192 129.056 113.256 129.319 113.174 129.641L113.918 129.65C114.026 129.248 113.913 128.787 113.653 128.337C113.171 127.506 112.194 127.291 111.396 127.749C110.531 128.247 110.304 129.171 110.817 130.057C111.074 130.501 111.478 130.819 111.922 130.871L112.244 130.249Z" fill="#0D1D4A"/>
<path d="M116.078 132.676L115.568 131.796L113.64 131.593L112.884 133.469L113.412 134.38L114.166 132.375L116.078 132.676ZM111.839 131.666L112.244 132.364L114.984 130.788L114.579 130.09L111.839 131.666Z" fill="#0D1D4A"/>
<path d="M114.054 135.489L116.529 135.766L114.793 136.764L115.198 137.462L117.938 135.886L117.534 135.188L115.059 134.911L116.795 133.913L116.39 133.214L113.65 134.791L114.054 135.489Z" fill="#0D1D4A"/>
<path d="M114.82 138.281L115.196 138.931L115.836 138.563L116.958 140.5L116.319 140.868L116.699 141.523L117.99 140.781L117.726 140.325L119.815 139.124L118.647 137.108L117.964 137.444C117.322 137.765 116.68 137.932 116.312 137.885L116.111 137.539L114.82 138.281ZM118.075 138.279L118.365 138.136L118.752 138.804L117.321 139.627L116.734 138.613C116.975 138.637 117.465 138.557 118.075 138.279Z" fill="#0D1D4A"/>
<path d="M121.844 142.625L121.333 141.745L119.405 141.542L118.649 143.418L119.177 144.329L119.932 142.324L121.844 142.625ZM117.604 141.615L118.009 142.313L120.749 140.737L120.345 140.039L117.604 141.615Z" fill="#0D1D4A"/>
<path d="M119.82 145.438L122.294 145.714L120.559 146.713L120.963 147.411L123.704 145.835L123.299 145.136L120.825 144.86L122.56 143.862L122.156 143.163L119.415 144.74L119.82 145.438Z" fill="#0D1D4A"/>
<path d="M121.247 92.5503H122.056V89.3944H121.247V90.5866H119.863V89.3944H119.054V92.5503H119.863V91.344H121.247V92.5503Z" fill="#0D1D4A"/>
<path d="M125.435 91.6666C125.252 91.8139 124.928 91.9542 124.542 91.9542C124.043 91.9542 123.663 91.6947 123.593 91.2178H125.877C125.913 91.0986 125.927 90.9794 125.927 90.783C125.927 89.8993 125.245 89.3173 124.429 89.3173C123.389 89.3173 122.756 90.0536 122.756 90.9723C122.756 91.9682 123.438 92.6274 124.457 92.6274C124.9 92.6274 125.35 92.5012 125.666 92.2347L125.435 91.6666ZM124.394 89.9905C124.858 89.9905 125.125 90.2921 125.118 90.6778H123.565C123.649 90.264 123.909 89.9905 124.394 89.9905Z" fill="#0D1D4A"/>
<path d="M126.213 90.2009H127.253V92.5503H128.062V90.2009H129.095V89.3944H126.213V90.2009Z" fill="#0D1D4A"/>
<path d="M133.56 91.4913C133.356 91.7157 133.089 91.877 132.745 91.877C132.267 91.877 131.831 91.5334 131.831 90.9723C131.831 90.4183 132.26 90.0747 132.709 90.0747C132.998 90.0747 133.258 90.1518 133.497 90.3832L133.876 89.7451C133.581 89.4505 133.124 89.3173 132.604 89.3173C131.641 89.3173 130.966 90.0536 130.966 90.9723C130.966 91.9682 131.655 92.6274 132.681 92.6274C133.194 92.6274 133.672 92.4381 133.94 92.0804L133.56 91.4913Z" fill="#0D1D4A"/>
<path d="M137.583 89.3944H136.564L135.425 90.9583L136.676 92.5503H137.73L136.367 90.8952L137.583 89.3944ZM134.588 92.5503H135.397V89.3944H134.588V92.5503Z" fill="#0D1D4A"/>
<path d="M139.014 92.5503L140.49 90.5516V92.5503H141.299V89.3944H140.49L139.014 91.3931V89.3944H138.206V92.5503H139.014Z" fill="#0D1D4A"/>
<path d="M141.821 93.2867H142.574V92.5503H144.816V93.2867H145.575V91.7999H145.048V89.3944H142.714L142.665 90.1518C142.623 90.8671 142.447 91.5053 142.222 91.7999H141.821V93.2867ZM143.445 90.4744L143.466 90.1518H144.239V91.7999H143.066C143.206 91.6035 143.382 91.1407 143.445 90.4744Z" fill="#0D1D4A"/>
<path d="M149.101 89.3944H148.082L146.943 90.9583L148.195 92.5503H149.249L147.885 90.8952L149.101 89.3944ZM146.107 92.5503H146.915V89.3944H146.107V92.5503Z" fill="#0D1D4A"/>
<path d="M150.533 92.5503L152.009 90.5516V92.5503H152.817V89.3944H152.009L150.533 91.3931V89.3944H149.724V92.5503H150.533Z" fill="#0D1D4A"/>
<path d="M108.31 62.2542L108.715 61.556L105.974 59.9797L105.57 60.6779L106.605 61.2734L105.912 62.4694L104.877 61.874L104.472 62.5722L107.212 64.1484L107.617 63.4502L106.569 62.8477L107.263 61.6517L108.31 62.2542Z" fill="#0D1D4A"/>
<path d="M109.639 58.1962C109.675 58.4276 109.635 58.777 109.441 59.1109C109.192 59.5419 108.776 59.7402 108.327 59.5627L109.47 57.5895C109.385 57.4996 109.288 57.4279 109.118 57.3299C108.35 56.8885 107.504 57.1867 107.095 57.891C106.575 58.7895 106.897 59.7037 107.695 60.1626C108.56 60.66 109.474 60.4003 109.984 59.52C110.205 59.1375 110.321 58.6859 110.248 58.2796L109.639 58.1962ZM107.662 58.2576C107.895 57.8569 108.29 57.7768 108.622 57.9755L107.844 59.3173C107.527 59.0378 107.42 58.6765 107.662 58.2576Z" fill="#0D1D4A"/>
<path d="M108.755 56.7918L109.276 55.8932L111.316 57.0667L111.721 56.3685L109.681 55.195L110.198 54.3026L109.498 53.8997L108.055 56.389L108.755 56.7918Z" fill="#0D1D4A"/>
<path d="M113.553 51.0904C113.646 51.3786 113.653 51.6898 113.48 51.9873C113.241 52.4002 112.724 52.605 112.237 52.3247C111.756 52.048 111.672 51.506 111.898 51.1175C112.042 50.8686 112.239 50.6824 112.56 50.5916L112.195 49.945C111.792 50.0529 111.448 50.381 111.187 50.8303C110.705 51.662 111.007 52.6127 111.805 53.0715C112.669 53.5689 113.587 53.3032 114.1 52.4168C114.357 51.9736 114.432 51.4661 114.255 51.0568L113.553 51.0904Z" fill="#0D1D4A"/>
<path d="M113.746 46.5685L113.236 47.4488L114.024 49.2135L116.033 48.9279L116.56 48.0172L114.441 48.3684L113.746 46.5685ZM114.988 50.7311L115.392 50.0329L112.652 48.4566L112.247 49.1548L114.988 50.7311Z" fill="#0D1D4A"/>
<path d="M117.203 46.9083L116.206 44.635L117.942 45.6333L118.347 44.9351L115.606 43.3589L115.202 44.0571L116.198 46.3303L114.463 45.332L114.058 46.0302L116.798 47.6065L117.203 46.9083Z" fill="#0D1D4A"/>
<path d="M119.248 44.8514L119.624 44.2018L118.985 43.834L120.107 41.8973L120.746 42.2651L121.126 41.6094L119.835 40.8668L119.572 41.3221L117.483 40.1207L116.315 42.1364L116.948 42.5572C117.548 42.9509 118.014 43.4214 118.157 43.7628L117.957 44.1089L119.248 44.8514ZM117.618 42.0444L117.349 41.865L117.736 41.1972L119.167 42.0203L118.579 43.0342C118.479 42.8147 118.165 42.4318 117.618 42.0444Z" fill="#0D1D4A"/>
<path d="M119.512 36.6196L119.002 37.4999L119.79 39.2646L121.798 38.979L122.326 38.0683L120.206 38.4195L119.512 36.6196ZM120.753 40.7822L121.158 40.084L118.417 38.5078L118.013 39.206L120.753 40.7822Z" fill="#0D1D4A"/>
<path d="M122.969 36.9594L121.972 34.6862L123.707 35.6844L124.112 34.9862L121.372 33.41L120.967 34.1082L121.964 36.3815L120.228 35.3832L119.824 36.0814L122.564 37.6576L122.969 36.9594Z" fill="#0D1D4A"/>
<path d="M72.068 117.135L71.6634 117.834L74.4037 119.41L74.8083 118.712L73.7731 118.116L74.4662 116.92L75.5014 117.516L75.906 116.817L73.1657 115.241L72.7611 115.939L73.8085 116.542L73.1154 117.738L72.068 117.135Z" fill="#0D1D4A"/>
<path d="M70.7394 121.193C70.703 120.962 70.7431 120.613 70.9366 120.279C71.1864 119.848 71.6017 119.649 72.051 119.827L70.9075 121.8C70.9934 121.89 71.0899 121.962 71.2604 122.06C72.0277 122.501 72.8744 122.203 73.2826 121.499C73.8033 120.6 73.4805 119.686 72.6828 119.227C71.8181 118.73 70.9043 118.989 70.3942 119.87C70.1725 120.252 70.057 120.704 70.13 121.11L70.7394 121.193ZM72.7155 121.132C72.4833 121.533 72.0878 121.613 71.7564 121.414L72.5339 120.072C72.851 120.352 72.9583 120.713 72.7155 121.132Z" fill="#0D1D4A"/>
<path d="M71.6225 122.598L71.1018 123.496L69.0618 122.323L68.6571 123.021L70.6972 124.195L70.18 125.087L70.8803 125.49L72.3228 123.001L71.6225 122.598Z" fill="#0D1D4A"/>
<path d="M66.8245 128.299C66.7317 128.011 66.7253 127.7 66.8977 127.402C67.137 126.989 67.6535 126.785 68.1407 127.065C68.6217 127.342 68.7055 127.884 68.4803 128.272C68.3361 128.521 68.1389 128.707 67.8183 128.798L68.1825 129.445C68.586 129.337 68.9304 129.009 69.1908 128.559C69.6728 127.728 69.3712 126.777 68.5734 126.318C67.7087 125.821 66.7915 126.086 66.2778 126.973C66.021 127.416 65.9461 127.923 66.123 128.333L66.8245 128.299Z" fill="#0D1D4A"/>
<path d="M66.6317 132.821L67.1419 131.941L66.3539 130.176L64.3453 130.462L63.8175 131.372L65.9372 131.021L66.6317 132.821ZM65.3902 128.658L64.9856 129.357L67.7259 130.933L68.1306 130.235L65.3902 128.658Z" fill="#0D1D4A"/>
<path d="M63.1749 132.481L64.1716 134.755L62.436 133.756L62.0314 134.454L64.7717 136.031L65.1764 135.332L64.1797 133.059L65.9152 134.058L66.3198 133.359L63.5795 131.783L63.1749 132.481Z" fill="#0D1D4A"/>
<path d="M61.1304 134.538L60.7539 135.188L61.3933 135.556L60.271 137.492L59.6316 137.124L59.2516 137.78L60.5426 138.523L60.8065 138.067L62.8952 139.269L64.0633 137.253L63.4302 136.832C62.8302 136.439 62.364 135.968 62.2208 135.627L62.4214 135.281L61.1304 134.538ZM62.7596 137.345L63.0291 137.525L62.6421 138.192L61.2111 137.369L61.7986 136.355C61.8988 136.575 62.2127 136.958 62.7596 137.345Z" fill="#0D1D4A"/>
<path d="M60.8663 142.77L61.3764 141.89L60.5884 140.125L58.5798 140.411L58.0521 141.321L60.1718 140.97L60.8663 142.77ZM59.6248 138.607L59.2202 139.306L61.9605 140.882L62.3651 140.184L59.6248 138.607Z" fill="#0D1D4A"/>
<path d="M57.4094 142.43L58.4061 144.703L56.6706 143.705L56.266 144.403L59.0063 145.98L59.4109 145.281L58.4142 143.008L60.1498 144.006L60.5544 143.308L57.814 141.732L57.4094 142.43Z" fill="#0D1D4A"/>
<path d="M29.5876 92.5503H30.396V89.3944H29.5876V90.5866H28.2029V89.3944H27.3945V92.5503H28.2029V91.344H29.5876V92.5503Z" fill="#0D1D4A"/>
<path d="M33.7748 91.6666C33.592 91.8139 33.2687 91.9542 32.8821 91.9542C32.383 91.9542 32.0035 91.6947 31.9332 91.2178H34.2176C34.2528 91.0986 34.2668 90.9794 34.2668 90.783C34.2668 89.8993 33.585 89.3173 32.7696 89.3173C31.7293 89.3173 31.0967 90.0536 31.0967 90.9723C31.0967 91.9682 31.7785 92.6274 32.7977 92.6274C33.2406 92.6274 33.6905 92.5012 34.0068 92.2347L33.7748 91.6666ZM32.7345 89.9905C33.1984 89.9905 33.4655 90.2921 33.4585 90.6778H31.905C31.9894 90.264 32.2495 89.9905 32.7345 89.9905Z" fill="#0D1D4A"/>
<path d="M34.5532 90.2009H35.5935V92.5503H36.4019V90.2009H37.4352V89.3944H34.5532V90.2009Z" fill="#0D1D4A"/>
<path d="M41.9003 91.4913C41.6964 91.7157 41.4293 91.877 41.0849 91.877C40.6069 91.877 40.1711 91.5334 40.1711 90.9723C40.1711 90.4183 40.5999 90.0747 41.0497 90.0747C41.3379 90.0747 41.598 90.1518 41.837 90.3832L42.2166 89.7451C41.9214 89.4505 41.4645 89.3173 40.9443 89.3173C39.9813 89.3173 39.3065 90.0536 39.3065 90.9723C39.3065 91.9682 39.9954 92.6274 41.0216 92.6274C41.5348 92.6274 42.0127 92.4381 42.2798 92.0804L41.9003 91.4913Z" fill="#0D1D4A"/>
<path d="M45.9231 89.3944H44.9039L43.7651 90.9583L45.0163 92.5503H46.0707L44.707 90.8952L45.9231 89.3944ZM42.9287 92.5503H43.737V89.3944H42.9287V92.5503Z" fill="#0D1D4A"/>
<path d="M47.3546 92.5503L48.8307 90.5516V92.5503H49.639V89.3944H48.8307L47.3546 91.3931V89.3944H46.5462V92.5503H47.3546Z" fill="#0D1D4A"/>
<path d="M50.1617 93.2867H50.9138V92.5503H53.1561V93.2867H53.9153V91.7999H53.3881V89.3944H51.0544L51.0052 90.1518C50.963 90.8671 50.7873 91.5053 50.5624 91.7999H50.1617V93.2867ZM51.7855 90.4744L51.8065 90.1518H52.5797V91.7999H51.4059C51.5465 91.6035 51.7222 91.1407 51.7855 90.4744Z" fill="#0D1D4A"/>
<path d="M57.4416 89.3944H56.4223L55.2836 90.9583L56.5348 92.5503H57.5892L56.2255 90.8952L57.4416 89.3944ZM54.4471 92.5503H55.2555V89.3944H54.4471V92.5503Z" fill="#0D1D4A"/>
<path d="M58.873 92.5503L60.3492 90.5516V92.5503H61.1575V89.3944H60.3492L58.873 91.3931V89.3944H58.0647V92.5503H58.873Z" fill="#0D1D4A"/>
<path d="M30.4733 121.71L32.3124 120.652L32.9335 125.031L33.7008 124.589L33.019 119.938L32.7481 119.471L30.0687 121.012L30.4733 121.71Z" fill="#0D1D4A"/>
<path d="M34.4306 121.336C35.1835 122.635 36.153 123.243 37.1334 122.68C38.1078 122.119 38.0396 120.993 37.2866 119.693C36.5337 118.394 35.5764 117.779 34.6021 118.339C33.6217 118.903 33.6777 120.037 34.4306 121.336ZM35.1796 120.905C34.585 119.879 34.501 119.272 34.9821 118.995C35.4692 118.715 35.935 119.07 36.5437 120.121C37.1524 121.171 37.2441 121.75 36.757 122.03C36.3002 122.293 35.7813 121.944 35.1796 120.905Z" fill="#0D1D4A"/>
<path d="M37.8025 119.397C38.5554 120.696 39.5249 121.304 40.5053 120.74C41.4797 120.18 41.4115 119.053 40.6585 117.754C39.9056 116.455 38.9483 115.84 37.974 116.4C36.9936 116.964 37.0496 118.097 37.8025 119.397ZM38.5515 118.966C37.9569 117.94 37.8729 117.332 38.354 117.056C38.8411 116.775 39.3069 117.131 39.9156 118.181C40.5243 119.232 40.616 119.81 40.1288 120.09C39.6721 120.353 39.1532 120.004 38.5515 118.966Z" fill="#0D1D4A"/>
<path d="M44.5339 119.977L45.2342 119.574L44.4919 118.293C44.703 118.293 44.9651 118.199 45.2087 118.059C46.0856 117.555 46.2851 116.582 45.803 115.75C45.3351 114.942 44.5102 114.64 43.7551 115.074C43.4019 115.277 43.1635 115.609 43.0986 115.889L42.9473 115.628L42.247 116.031L44.5339 119.977ZM43.9158 115.856C44.3786 115.59 44.8173 115.758 45.0707 116.196C45.3345 116.651 45.2585 117.164 44.7713 117.444C44.5399 117.577 44.3605 117.632 44.1013 117.619L43.461 116.514C43.5224 116.228 43.6783 115.993 43.9158 115.856Z" fill="#0D1D4A"/>
<path d="M48.1785 112.619L47.3808 113.078L47.7495 114.849C47.7817 115.017 47.8348 115.164 47.8843 115.306C47.7643 115.197 47.6538 115.09 47.5216 114.988L46.0167 113.862L45.1763 114.346L48.0262 116.349L48.0498 116.53C48.0994 116.882 48.0525 117.095 47.8759 117.197C47.7663 117.26 47.6311 117.265 47.5334 117.264L47.6142 117.922C47.8393 117.946 48.0783 117.938 48.328 117.795C48.7299 117.563 48.8485 117.18 48.6839 115.971L48.1785 112.619Z" fill="#0D1D4A"/>
<path d="M49.7383 109.609C49.642 110.101 49.2393 110.163 48.7842 110.765C48.1575 111.603 48.5054 112.666 49.0226 113.558C49.6383 114.621 50.5917 114.963 51.5112 114.434C52.376 113.936 52.5754 112.964 52.1321 112.199C51.6571 111.379 50.8613 111.14 50.1062 111.575C49.7043 111.806 49.4377 112.243 49.4396 112.638L49.4274 112.645C49.2202 112.19 49.1367 111.695 49.427 111.286C49.8055 110.72 50.3214 110.601 50.4344 109.969L49.7383 109.609ZM49.8561 113.273C49.7856 112.941 49.9163 112.55 50.3061 112.326C50.7506 112.07 51.165 112.253 51.4007 112.66C51.6294 113.054 51.561 113.539 51.1165 113.795C50.672 114.05 50.1683 113.798 49.8561 113.273Z" fill="#0D1D4A"/>
<path d="M55.2311 112.205L55.9314 111.802L54.3481 109.07L52.2715 110.265L52.7215 111.139C53.2728 112.23 53.0802 112.641 52.8286 112.753L53.2836 113.398C54.0204 112.974 54.2064 112.454 53.4784 110.89L53.3277 110.588L54.0524 110.171L55.2311 112.205Z" fill="#0D1D4A"/>
<path d="M58.4175 109.352C58.3331 109.571 58.1233 109.853 57.7884 110.046C57.356 110.295 56.897 110.259 56.5969 109.881L58.576 108.743C58.5466 108.622 58.499 108.512 58.4005 108.342C57.9572 107.577 57.0745 107.413 56.3681 107.819C55.4668 108.338 55.2882 109.29 55.7491 110.086C56.2487 110.948 57.1701 111.179 58.0531 110.671C58.4367 110.45 58.7631 110.117 58.9035 109.728L58.4175 109.352ZM56.6754 108.42C57.0773 108.188 57.46 108.316 57.6474 108.654L56.3016 109.428C56.1671 109.028 56.2552 108.661 56.6754 108.42Z" fill="#0D1D4A"/>
<path d="M60.5515 109.145L60.8276 106.679L61.8303 108.409L62.5306 108.006L60.9473 105.274L60.247 105.677L59.9709 108.143L58.9682 106.413L58.2679 106.815L59.8512 109.548L60.5515 109.145ZM57.8843 105.215C58.1904 105.743 58.7037 105.998 59.3857 105.606C60.0007 105.252 60.0746 104.651 59.7721 104.129L59.1326 104.497C59.2628 104.721 59.3042 104.989 59.0972 105.108C58.8658 105.241 58.6539 105.072 58.5237 104.847L57.8843 105.215Z" fill="#0D1D4A"/>
<path d="M90.3623 157.865C91.3535 157.865 92.1829 157.206 92.1829 156.112C92.1829 155.326 91.5995 154.527 90.5662 154.527C89.6665 154.527 89.062 155.151 89.062 155.901C89.062 156.392 89.2377 156.708 89.5188 156.911C88.5699 156.659 87.9584 155.922 87.7194 155.123L87.1079 155.452C87.375 156.525 88.5559 157.865 90.3623 157.865ZM90.3694 157.009C90.1023 156.883 89.8141 156.617 89.8141 156.175C89.8141 155.656 90.1726 155.382 90.6224 155.382C91.0161 155.382 91.3745 155.656 91.3745 156.105C91.3745 156.694 90.9317 157.009 90.3694 157.009Z" fill="#0D1D4A"/>
<path d="M89.6454 153.969C91.1496 153.969 92.1618 153.436 92.1618 152.306C92.1618 151.184 91.1496 150.679 89.6454 150.679C88.1411 150.679 87.1289 151.198 87.1289 152.32C87.1289 153.45 88.1411 153.969 89.6454 153.969ZM89.6454 153.106C88.4574 153.106 87.8881 152.875 87.8881 152.32C87.8881 151.759 88.4293 151.535 89.6454 151.535C90.8614 151.535 91.4097 151.745 91.4097 152.306C91.4097 152.832 90.8474 153.106 89.6454 153.106Z" fill="#0D1D4A"/>
<path d="M89.6454 150.085C91.1496 150.085 92.1618 149.552 92.1618 148.423C92.1618 147.301 91.1496 146.796 89.6454 146.796C88.1411 146.796 87.1289 147.315 87.1289 148.437C87.1289 149.566 88.1411 150.085 89.6454 150.085ZM89.6454 149.223C88.4574 149.223 87.8881 148.991 87.8881 148.437C87.8881 147.876 88.4293 147.652 89.6454 147.652C90.8614 147.652 91.4097 147.862 91.4097 148.423C91.4097 148.949 90.8474 149.223 89.6454 149.223Z" fill="#0D1D4A"/>
<path d="M93.5114 144.562V143.755H92.0283C92.1337 143.573 92.1829 143.299 92.1829 143.019C92.1829 142.009 91.4378 141.35 90.4748 141.35C89.5399 141.35 88.8651 141.911 88.8651 142.78C88.8651 143.187 89.0338 143.559 89.2447 143.755H88.9425V144.562H93.5114ZM89.6243 143.033C89.6243 142.5 89.9898 142.205 90.4959 142.205C91.0231 142.205 91.4308 142.528 91.4308 143.089C91.4308 143.355 91.3886 143.538 91.248 143.755H89.9687C89.7508 143.559 89.6243 143.306 89.6243 143.033Z" fill="#0D1D4A"/>
<path d="M88.9425 137.731L88.9425 138.649L90.6646 139.217C90.8263 139.274 90.9809 139.302 91.1285 139.33C90.9739 139.379 90.8263 139.421 90.6716 139.484L88.9425 140.22L88.9425 141.188L92.1056 139.729L92.2743 139.8C92.6046 139.933 92.7663 140.08 92.7663 140.283C92.7663 140.41 92.7031 140.529 92.6538 140.613L93.2654 140.873C93.3989 140.69 93.5114 140.48 93.5114 140.192C93.5114 139.729 93.2373 139.435 92.1056 138.972L88.9425 137.731Z" fill="#0D1D4A"/>
<path d="M87.1078 134.877C87.4874 135.206 87.3398 135.585 87.635 136.279C88.0498 137.24 89.1463 137.472 90.1796 137.472C91.4097 137.472 92.1829 136.819 92.1829 135.76C92.1829 134.765 91.4378 134.105 90.5521 134.105C89.6032 134.105 88.9987 134.673 88.9987 135.543C88.9987 136.006 89.2447 136.455 89.5891 136.651V136.665C89.0901 136.616 88.6191 136.441 88.4082 135.985C88.106 135.375 88.2606 134.87 87.7686 134.456L87.1078 134.877ZM90.3483 136.609C90.0249 136.504 89.7508 136.195 89.7508 135.746C89.7508 135.235 90.1163 134.968 90.5873 134.968C91.0442 134.968 91.4308 135.27 91.4308 135.782C91.4308 136.293 90.9598 136.602 90.3483 136.609Z" fill="#0D1D4A"/>
<path d="M92.1056 131.432L92.1056 130.626H88.9425L88.9425 133.017L89.9265 133.066C91.1496 133.136 91.4097 133.508 91.3816 133.781L92.1688 133.711C92.1688 132.863 91.8103 132.442 90.0882 132.288L89.7508 132.267V131.432H92.1056Z" fill="#0D1D4A"/>
<path d="M91.2199 127.252C91.3675 127.434 91.5081 127.757 91.5081 128.142C91.5081 128.64 91.248 129.019 90.77 129.089V126.81C90.6505 126.775 90.531 126.761 90.3342 126.761C89.4486 126.761 88.8651 127.441 88.8651 128.255C88.8651 129.293 89.6032 129.924 90.524 129.924C91.5222 129.924 92.1829 129.243 92.1829 128.227C92.1829 127.785 92.0564 127.336 91.7893 127.02L91.2199 127.252ZM89.5399 128.29C89.5399 127.827 89.8422 127.56 90.2288 127.567V129.117C89.8141 129.033 89.5399 128.774 89.5399 128.29Z" fill="#0D1D4A"/>
<path d="M92.1056 125.305L90.1023 123.832L92.1056 123.832V123.026L88.9425 123.026V123.832L90.9458 125.305H88.9425V126.111L92.1056 126.111V125.305ZM87.3609 125.641C87.9724 125.641 88.4504 125.326 88.4504 124.54C88.4504 123.832 87.9654 123.467 87.3609 123.467L87.3609 124.204C87.621 124.204 87.874 124.302 87.874 124.54C87.874 124.807 87.621 124.905 87.3609 124.905L87.3609 125.641Z" fill="#0D1D4A"/>
<path d="M117.748 107.075C117.908 107.094 118.238 107.211 118.512 107.369C119.084 107.698 119.229 108.219 118.983 108.644C118.74 109.063 118.275 109.192 117.867 108.957C117.544 108.772 117.284 108.395 117.256 108.023L116.548 108.32C116.577 108.871 116.988 109.382 117.444 109.645C118.254 110.111 119.218 109.961 119.749 109.044C120.235 108.206 119.949 107.354 119.194 106.92C119.109 106.871 119.011 106.83 118.937 106.804L119.547 106.03L120.948 106.836L121.353 106.137L119.337 104.978L117.748 107.075Z" fill="#0D1D4A"/>
<path d="M120.716 108.604C119.963 109.904 119.919 111.044 120.9 111.608C121.874 112.169 122.819 111.547 123.572 110.247C124.325 108.948 124.381 107.815 123.407 107.254C122.426 106.69 121.469 107.305 120.716 108.604ZM121.465 109.035C122.06 108.009 122.546 107.633 123.027 107.91C123.514 108.19 123.438 108.77 122.829 109.82C122.22 110.87 121.763 111.239 121.276 110.959C120.819 110.696 120.863 110.074 121.465 109.035Z" fill="#0D1D4A"/>
<path d="M124.088 110.544C123.335 111.843 123.291 112.984 124.271 113.548C125.246 114.108 126.191 113.486 126.944 112.187C127.697 110.888 127.753 109.754 126.778 109.194C125.798 108.63 124.841 109.245 124.088 110.544ZM124.837 110.975C125.431 109.949 125.917 109.573 126.398 109.849C126.886 110.13 126.81 110.709 126.201 111.759C125.592 112.81 125.135 113.178 124.648 112.898C124.191 112.635 124.235 112.013 124.837 110.975Z" fill="#0D1D4A"/>
<path d="M126.949 116.642L127.649 117.045L128.392 115.764C128.497 115.946 128.71 116.125 128.954 116.265C129.831 116.77 130.776 116.455 131.258 115.623C131.726 114.816 131.577 113.953 130.821 113.519C130.468 113.315 130.061 113.276 129.785 113.36L129.936 113.099L129.236 112.696L126.949 116.642ZM130.222 114.048C130.685 114.314 130.758 114.777 130.505 115.214C130.241 115.67 129.756 115.861 129.269 115.581C129.038 115.447 128.901 115.32 128.782 115.09L129.423 113.985C129.702 113.895 129.985 113.912 130.222 114.048Z" fill="#0D1D4A"/>
<path d="M135.168 116.108L134.37 115.649L133.015 116.852C132.885 116.964 132.783 117.084 132.685 117.197C132.72 117.039 132.757 116.89 132.78 116.725L133.006 114.864L132.165 114.381L131.849 117.841L131.703 117.952C131.422 118.171 131.213 118.237 131.037 118.135C130.927 118.072 130.855 117.958 130.807 117.874L130.276 118.272C130.367 118.479 130.493 118.681 130.743 118.824C131.145 119.056 131.538 118.966 132.506 118.22L135.168 116.108Z" fill="#0D1D4A"/>
<path d="M138.564 115.948C138.088 116.111 137.833 115.795 137.082 115.703C136.04 115.581 135.29 116.413 134.773 117.305C134.157 118.368 134.337 119.361 135.256 119.89C136.121 120.388 137.066 120.073 137.51 119.309C137.985 118.489 137.794 117.683 137.039 117.249C136.637 117.018 136.124 117.006 135.781 117.205L135.769 117.198C136.061 116.792 136.449 116.472 136.951 116.518C137.632 116.562 137.993 116.947 138.598 116.729L138.564 115.948ZM135.438 117.882C135.691 117.655 136.096 117.573 136.486 117.797C136.93 118.052 136.979 118.501 136.743 118.908C136.514 119.303 136.059 119.486 135.614 119.23C135.17 118.975 135.138 118.414 135.438 117.882Z" fill="#0D1D4A"/>
<path d="M139.054 121.986L139.754 122.388L141.337 119.656L139.261 118.462L138.725 119.287C138.052 120.309 137.599 120.348 137.376 120.187L137.043 120.902C137.78 121.326 138.324 121.226 139.32 119.816L139.508 119.535L140.232 119.952L139.054 121.986Z" fill="#0D1D4A"/>
<path d="M143.127 123.308C142.894 123.345 142.544 123.305 142.209 123.112C141.777 122.864 141.578 122.45 141.756 122.002L143.735 123.14C143.826 123.055 143.898 122.959 143.996 122.789C144.44 122.024 144.141 121.18 143.434 120.774C142.533 120.255 141.616 120.577 141.155 121.373C140.655 122.235 140.915 123.145 141.798 123.653C142.182 123.874 142.635 123.989 143.043 123.916L143.127 123.308ZM143.066 121.339C143.468 121.57 143.548 121.964 143.349 122.295L142.003 121.521C142.284 121.204 142.646 121.097 143.066 121.339Z" fill="#0D1D4A"/>
<path d="M144.374 125.046L146.655 124.051L145.653 125.781L146.353 126.184L147.936 123.452L147.236 123.049L144.954 124.044L145.957 122.314L145.257 121.911L143.674 124.643L144.374 125.046ZM146.457 120.78C146.15 121.308 146.185 121.878 146.867 122.271C147.482 122.624 148.042 122.388 148.344 121.865L147.705 121.498C147.575 121.722 147.363 121.892 147.156 121.773C146.924 121.64 146.966 121.372 147.096 121.147L146.457 120.78Z" fill="#0D1D4A"/>
<path d="M121.946 75.1732C122.734 74.7251 123.069 73.8967 122.619 73.1114C122.329 72.6061 121.801 72.3493 121.218 72.5602L121.207 72.542C121.533 72.1066 121.557 71.6406 121.281 71.1597C120.898 70.49 120.166 70.3574 119.433 70.7743C118.847 71.1078 118.534 71.5927 118.549 72.157L119.223 72.4278C119.259 71.9957 119.425 71.7072 119.767 71.5126C120.133 71.3042 120.433 71.4165 120.607 71.7209C120.816 72.0862 120.631 72.4825 120.283 72.6805L120.008 72.8369L120.409 73.537L120.714 73.3633C121.209 73.0819 121.63 73.1247 121.854 73.5143C122.039 73.837 121.96 74.2369 121.502 74.4974C121.13 74.7093 120.678 74.6839 120.283 74.4889L120.179 75.2261C120.653 75.5298 121.293 75.5449 121.946 75.1732Z" fill="#0D1D4A"/>
<path d="M122.691 71.8351C123.438 73.1379 124.404 73.7505 125.387 73.1912C126.364 72.6354 126.302 71.5086 125.555 70.2058C124.808 68.903 123.854 68.2834 122.877 68.8393C121.894 69.3986 121.944 70.5323 122.691 71.8351ZM123.442 71.4078C122.852 70.3789 122.771 69.7712 123.254 69.4967C123.742 69.2188 124.206 69.5764 124.81 70.6296C125.414 71.6828 125.503 72.2619 125.014 72.5398C124.556 72.8004 124.039 72.4488 123.442 71.4078Z" fill="#0D1D4A"/>
<path d="M126.072 69.9115C126.819 71.2143 127.785 71.8269 128.768 71.2676C129.745 70.7118 129.683 69.585 128.936 68.2822C128.189 66.9794 127.235 66.3598 126.258 66.9157C125.275 67.475 125.325 68.6087 126.072 69.9115ZM126.823 69.4842C126.233 68.4554 126.152 67.8476 126.635 67.5732C127.123 67.2953 127.587 67.6528 128.191 68.706C128.795 69.7592 128.884 70.3383 128.395 70.6162C127.937 70.8768 127.42 70.5252 126.823 69.4842Z" fill="#0D1D4A"/>
<path d="M132.801 70.5237L133.503 70.1242L132.767 68.8396C132.978 68.8406 133.24 68.7477 133.485 68.6088C134.364 68.1085 134.568 67.1367 134.09 66.3026C133.626 65.4929 132.802 65.1864 132.045 65.6172C131.691 65.8187 131.451 66.1489 131.385 66.4288L131.235 66.167L130.532 66.5665L132.801 70.5237ZM132.202 66.3997C132.666 66.1357 133.104 66.3064 133.355 66.7447C133.617 67.2013 133.539 67.7142 133.05 67.9921C132.818 68.1241 132.638 68.1779 132.379 68.1639L131.744 67.0559C131.807 66.7699 131.964 66.5352 132.202 66.3997Z" fill="#0D1D4A"/>
<path d="M136.48 63.1828L135.68 63.6379L136.041 65.4108C136.072 65.5786 136.124 65.7264 136.173 65.8682C136.054 65.7585 135.944 65.6515 135.812 65.5489L134.312 64.416L133.47 64.8954L136.31 66.9124L136.333 67.0932C136.381 67.4454 136.333 67.6583 136.156 67.7591C136.046 67.8216 135.911 67.8259 135.813 67.825L135.891 68.4831C136.116 68.5085 136.355 68.5017 136.605 68.3592C137.008 68.13 137.128 67.7466 136.97 66.5372L136.48 63.1828Z" fill="#0D1D4A"/>
<path d="M138.054 60.1802C137.956 60.6722 137.553 60.732 137.095 61.3316C136.464 62.1667 136.807 63.231 137.32 64.1259C137.93 65.1913 138.882 65.5379 139.804 65.0133C140.671 64.52 140.875 63.5482 140.436 62.7811C139.965 61.9592 139.17 61.7171 138.413 62.1478C138.01 62.3771 137.741 62.8125 137.741 63.2081L137.729 63.2151C137.524 62.7585 137.443 62.2638 137.735 61.8553C138.116 61.2913 138.633 61.1751 138.749 60.544L138.054 60.1802ZM138.155 63.8448C138.086 63.5126 138.218 63.1223 138.609 62.9C139.055 62.6464 139.468 62.8309 139.702 63.2388C139.929 63.6345 139.858 64.1188 139.412 64.3724C138.967 64.626 138.464 64.3709 138.155 63.8448Z" fill="#0D1D4A"/>
<path d="M143.535 62.8022L144.237 62.4027L142.666 59.6632L140.584 60.8478L141.03 61.7244C141.576 62.8185 141.382 63.2278 141.13 63.339L141.581 63.9861C142.32 63.5657 142.509 63.0468 141.788 61.4788L141.639 61.1762L142.366 60.7628L143.535 62.8022Z" fill="#0D1D4A"/>
<path d="M146.734 59.9645C146.649 60.1826 146.438 60.4642 146.102 60.6553C145.669 60.9019 145.21 60.8643 144.911 60.485L146.896 59.356C146.867 59.2351 146.82 59.1247 146.722 58.9542C146.283 58.1871 145.401 58.0188 144.692 58.4218C143.789 58.936 143.605 59.8878 144.063 60.6853C144.558 61.5498 145.478 61.7851 146.364 61.2814C146.748 61.0625 147.076 60.7306 147.219 60.3429L146.734 59.9645ZM144.997 59.0236C145.4 58.7943 145.782 58.9241 145.968 59.2624L144.618 60.0301C144.486 59.6293 144.575 59.2633 144.997 59.0236Z" fill="#0D1D4A"/>
<path d="M148.869 59.7671L149.157 57.3025L150.152 59.0375L150.854 58.638L149.284 55.8985L148.581 56.298L148.294 58.7626L147.299 57.0275L146.597 57.427L148.167 60.1666L148.869 59.7671ZM146.221 55.8245C146.524 56.3542 147.037 56.6118 147.72 56.2227C148.337 55.8719 148.414 55.2711 148.114 54.7476L147.473 55.1124C147.602 55.3376 147.642 55.6054 147.434 55.7235C147.202 55.8555 146.991 55.685 146.862 55.4598L146.221 55.8245Z" fill="#0D1D4A"/>
<path d="M88.9696 58.0773L89.6374 57.6495L89.1805 57.0463H92.9621V56.2398H88.0277L88.0277 56.8219L88.9696 58.0773Z" fill="#0D1D4A"/>
<path d="M90.5019 55.2112C92.0062 55.2112 93.0184 54.6782 93.0184 53.5491C93.0184 52.427 92.0062 51.9221 90.5019 51.9221C88.9977 51.9221 87.9855 52.4411 87.9855 53.5632C87.9855 54.6923 88.9977 55.2112 90.5019 55.2112ZM90.5019 54.3486C89.314 54.3486 88.7447 54.1172 88.7447 53.5632C88.7447 53.0021 89.2859 52.7777 90.5019 52.7777C91.718 52.7777 92.2663 52.9881 92.2663 53.5491C92.2663 54.0751 91.7039 54.3486 90.5019 54.3486Z" fill="#0D1D4A"/>
<path d="M90.5019 51.328C92.0062 51.328 93.0184 50.795 93.0184 49.6659C93.0184 48.5438 92.0062 48.0389 90.5019 48.0389C88.9977 48.0389 87.9855 48.5579 87.9855 49.6799C87.9855 50.809 88.9977 51.328 90.5019 51.328ZM90.5019 50.4654C89.314 50.4654 88.7447 50.234 88.7447 49.6799C88.7447 49.1189 89.2859 48.8945 90.5019 48.8945C91.718 48.8945 92.2663 49.1049 92.2663 49.6659C92.2663 50.1919 91.7039 50.4654 90.5019 50.4654Z" fill="#0D1D4A"/>
<path d="M94.368 45.8043V44.9978H92.8848C92.9903 44.8155 93.0395 44.542 93.0395 44.2615C93.0395 43.2516 92.2944 42.5924 91.3314 42.5924C90.3965 42.5924 89.7217 43.1534 89.7217 44.023C89.7217 44.4298 89.8904 44.8015 90.1013 44.9978H89.799V45.8043H94.368ZM90.4809 44.2755C90.4809 43.7425 90.8464 43.448 91.3525 43.448C91.8797 43.448 92.2873 43.7706 92.2873 44.3316C92.2873 44.5981 92.2452 44.7804 92.1046 44.9978H90.8253C90.6074 44.8015 90.4809 44.549 90.4809 44.2755Z" fill="#0D1D4A"/>
<path d="M89.799 38.9734L89.799 39.8921L91.5212 40.4601C91.6828 40.5162 91.8375 40.5443 91.9851 40.5723C91.8304 40.6214 91.6828 40.6635 91.5282 40.7266L89.799 41.463L89.799 42.4308L92.9621 40.9721L93.1308 41.0422C93.4612 41.1755 93.6229 41.3227 93.6229 41.5261C93.6229 41.6523 93.5596 41.7716 93.5104 41.8557L94.1219 42.1152C94.2555 41.9329 94.368 41.7225 94.368 41.4349C94.368 40.9721 94.0938 40.6775 92.9621 40.2147L89.799 38.9734Z" fill="#0D1D4A"/>
<path d="M87.9644 36.1195C88.344 36.4491 88.1964 36.8278 88.4916 37.5221C88.9063 38.4829 90.0029 38.7144 91.0362 38.7144C92.2663 38.7144 93.0395 38.0621 93.0395 37.0032C93.0395 36.0073 92.2944 35.3481 91.4087 35.3481C90.4598 35.3481 89.8553 35.9161 89.8553 36.7858C89.8553 37.2486 90.1013 37.6975 90.4457 37.8938V37.9079C89.9466 37.8588 89.4757 37.6834 89.2648 37.2276C88.9626 36.6175 89.1172 36.1125 88.6252 35.6987L87.9644 36.1195ZM91.2049 37.8518C90.8815 37.7466 90.6074 37.438 90.6074 36.9891C90.6074 36.4772 90.9729 36.2107 91.4438 36.2107C91.9007 36.2107 92.2873 36.5123 92.2873 37.0242C92.2873 37.5362 91.8164 37.8447 91.2049 37.8518Z" fill="#0D1D4A"/>
<path d="M92.9621 32.6747L92.9621 31.8682H89.799L89.799 34.2596L90.7831 34.3087C92.0062 34.3789 92.2663 34.7506 92.2381 35.0241L93.0254 34.9539C93.0254 34.1054 92.6669 33.6846 90.9448 33.5303L90.6074 33.5092V32.6747H92.9621Z" fill="#0D1D4A"/>
<path d="M92.0765 28.4945C92.2241 28.6768 92.3647 28.9994 92.3647 29.3851C92.3647 29.8831 92.1046 30.2618 91.6266 30.3319V28.0526C91.5071 28.0176 91.3876 28.0036 91.1908 28.0036C90.3051 28.0036 89.7217 28.6838 89.7217 29.4973C89.7217 30.5353 90.4598 31.1664 91.3806 31.1664C92.3787 31.1664 93.0395 30.4862 93.0395 29.4693C93.0395 29.0275 92.9129 28.5786 92.6458 28.263L92.0765 28.4945ZM90.3965 29.5324C90.3965 29.0695 90.6988 28.803 91.0854 28.8101V30.3599C90.6706 30.2758 90.3965 30.0163 90.3965 29.5324Z" fill="#0D1D4A"/>
<path d="M92.9621 26.5475L90.9588 25.0747L92.9621 25.0747V24.2682L89.799 24.2682V25.0747L91.8023 26.5475H89.799V27.354L92.9621 27.354V26.5475ZM88.2175 26.8841C88.829 26.8841 89.307 26.5685 89.307 25.783C89.307 25.0747 88.822 24.71 88.2175 24.71L88.2175 25.4464C88.4775 25.4464 88.7306 25.5446 88.7306 25.783C88.7306 26.0495 88.4775 26.1477 88.2175 26.1477L88.2175 26.8841Z" fill="#0D1D4A"/>
<g clip-path="url(#clip0_7958_86458)">
<path fill-rule="evenodd" clip-rule="evenodd" d="M84.265 89.9853C84.265 87.1102 86.6003 84.7796 89.4812 84.7796C91.0002 84.7796 92.3672 85.4282 93.3206 86.4623C93.0426 86.5406 92.6399 86.6905 92.2235 86.9892C91.6505 87.4003 91.3352 87.8896 91.1804 88.175C91.1818 88.1764 91.1836 88.1782 91.1851 88.1795C90.7123 87.7682 90.0945 87.5183 89.418 87.5183C87.9314 87.5183 86.7263 88.7211 86.7263 90.2046V90.3386C86.7263 90.7361 86.8136 91.1128 86.9689 91.4522C86.6152 91.5877 86.2032 91.721 85.7381 91.8297C85.317 91.928 84.9266 91.9888 84.5785 92.0255C84.3757 91.4698 84.265 90.8702 84.265 90.2445V89.9853ZM92.1069 91.3261V91.2514L92.107 91.2513V90.1874C92.1073 90.0915 92.1015 89.981 92.0872 89.8614C92.0852 89.845 92.0828 89.8285 92.0804 89.8117L92.0783 89.7977C92.0737 89.7672 92.0685 89.7371 92.0627 89.7071C92.0494 89.6339 92.0321 89.558 92.0104 89.4795C92.0102 89.4791 92.0101 89.4786 92.01 89.4781C92.0099 89.4776 92.0098 89.4771 92.0097 89.4766C92.007 89.4671 92.0048 89.4578 92.0025 89.4484L92.0025 89.4484L92.0025 89.4484C91.9995 89.4361 91.9965 89.4238 91.9926 89.4111C91.9883 89.3972 91.9834 89.3843 91.9785 89.3714L91.9785 89.3714L91.9785 89.3713C91.9748 89.3617 91.9712 89.3521 91.9678 89.3422C91.9671 89.3401 91.9663 89.338 91.9655 89.3359L91.9655 89.3359C91.9647 89.3338 91.9639 89.3317 91.9632 89.3296C91.9336 89.244 91.901 89.1629 91.8654 89.0863L91.86 89.0745L91.8545 89.0628C91.82 88.9904 91.784 88.922 91.7461 88.8576C91.7435 88.8531 91.741 88.8486 91.7384 88.8442L91.7384 88.8441C91.7339 88.8362 91.7294 88.8282 91.7246 88.8204C91.7077 88.7928 91.6908 88.7664 91.6736 88.7404C91.6546 88.7114 91.635 88.683 91.615 88.6547C91.6107 88.6487 91.6065 88.6426 91.6022 88.6366L91.6021 88.6365L91.6021 88.6365C91.5954 88.6271 91.5888 88.6177 91.5821 88.6086C91.4888 88.483 91.3848 88.366 91.2714 88.2585C91.2629 88.2503 91.2553 88.2433 91.2476 88.2364C91.2432 88.2325 91.2389 88.2285 91.2344 88.2244C91.2279 88.2185 91.2215 88.2125 91.2152 88.2065L91.2152 88.2065L91.2151 88.2065C91.2063 88.1982 91.1973 88.1898 91.1881 88.1817L91.187 88.1809C91.1867 88.1807 91.1864 88.1805 91.1861 88.1802C91.1858 88.18 91.1854 88.1798 91.1851 88.1795C91.1842 88.1787 91.1832 88.1778 91.1822 88.1768L91.1804 88.175C91.3353 87.8896 91.6505 87.4003 92.2235 86.9892C92.64 86.6905 93.0427 86.5406 93.3206 86.4623C93.3225 86.4643 93.3244 86.4663 93.3263 86.4683L93.3263 86.4683C93.3287 86.4708 93.3311 86.4732 93.3335 86.4758C93.3444 86.488 93.3557 86.5007 93.367 86.5135C93.3798 86.5276 93.3922 86.5422 93.4047 86.5567C93.4105 86.5634 93.4163 86.5702 93.4221 86.5769C93.7559 86.9668 94.2078 87.6058 94.4754 88.4953C94.6291 89.0066 94.6823 89.4696 94.6937 89.8406L94.6941 89.8516C94.6955 89.9019 94.6963 89.9508 94.6964 89.9975V90.3279L94.6964 90.3279V93.9064C94.6964 94.7657 95.3949 95.4625 96.2567 95.4625H89.4764C87.7152 95.4625 86.1587 94.5916 85.2135 93.259H85.2134C85.0963 93.0972 84.9707 92.9014 84.8519 92.6713C84.7334 92.4418 84.647 92.2267 84.5828 92.0376L84.5788 92.0265L84.5786 92.0255C84.9267 91.9888 85.3171 91.928 85.7381 91.8297C86.2033 91.721 86.6153 91.5877 86.9689 91.4522C86.9694 91.4521 86.9696 91.452 86.9699 91.4519C87.2962 92.1523 87.9162 92.6884 88.6722 92.9038C88.6722 92.9038 88.6722 92.9038 88.6722 92.9038C88.9077 92.971 89.1561 93.0076 89.4133 93.0076H92.1069V92.2045V91.3261ZM88.6717 92.9039C88.6653 92.9054 88.6559 92.9076 88.6447 92.9106C87.4993 93.223 86.3816 93.3049 85.3683 93.2659C86.3896 93.3053 87.5169 93.2223 88.6717 92.9039ZM94.2764 90.2843C94.2873 90.284 94.2982 90.2839 94.3092 90.2839C94.2982 90.2839 94.2873 90.284 94.2764 90.2843Z" fill="white"/>
</g>
<defs>
<filter id="filter0_d_7958_86458" x="35.7859" y="48.5206" width="109.008" height="108.935" filterUnits="userSpaceOnUse" color-interpolation-filters="sRGB">
<feFlood flood-opacity="0" result="BackgroundImageFix"/>
<feColorMatrix in="SourceAlpha" type="matrix" values="0 0 0 0 0 0 0 0 0 0 0 0 0 0 0 0 0 0 127 0" result="hardAlpha"/>
<feOffset dy="12.8125"/>
<feGaussianBlur stdDeviation="19.2188"/>
<feColorMatrix type="matrix" values="0 0 0 0 0.489866 0 0 0 0 0.164983 0 0 0 0 0.920833 0 0 0 0.2 0"/>
<feBlend mode="normal" in2="BackgroundImageFix" result="effect1_dropShadow_7958_86458"/>
<feBlend mode="normal" in="SourceGraphic" in2="effect1_dropShadow_7958_86458" result="shape"/>
</filter>
<linearGradient id="paint0_linear_7958_86458" x1="32.4811" y1="32.6911" x2="154.888" y2="155.555" gradientUnits="userSpaceOnUse">
<stop stop-color="#FFFB90"/>
<stop offset="0.1415" stop-color="#FBEA78"/>
<stop offset="0.2392" stop-color="#F8DC65"/>
<stop offset="0.2703" stop-color="#E6C758"/>
<stop offset="0.3368" stop-color="#C5A041"/>
<stop offset="0.3979" stop-color="#AD8330"/>
<stop offset="0.451" stop-color="#9E7226"/>
<stop offset="0.4902" stop-color="#996C22"/>
<stop offset="0.52" stop-color="#9D7126"/>
<stop offset="0.5575" stop-color="#AA8131"/>
<stop offset="0.5991" stop-color="#BE9B42"/>
<stop offset="0.6434" stop-color="#DABE5B"/>
<stop offset="0.6865" stop-color="#FBE878"/>
<stop offset="0.7724" stop-color="#FFFFAA"/>
<stop offset="0.8333" stop-color="#FBE878"/>
<stop offset="1" stop-color="#A4631B"/>
</linearGradient>
<radialGradient id="paint1_radial_7958_86458" cx="0" cy="0" r="1" gradientUnits="userSpaceOnUse" gradientTransform="translate(90.3392 90.3338) scale(84.5217 84.2068)">
<stop offset="0.3738" stop-color="#FDFDFD"/>
<stop offset="0.649" stop-color="#FBFBFB"/>
<stop offset="0.8098" stop-color="#F2F2F2"/>
<stop offset="0.9409" stop-color="#E4E4E4"/>
<stop offset="1" stop-color="#DBDBDB"/>
</radialGradient>
<clipPath id="clip0_7958_86458">
<rect width="12.05" height="10.8725" fill="white" transform="translate(84.265 84.6652)"/>
</clipPath>
</defs>
</svg>
